<svg width="169" height="37" viewBox="0 0 169 37" fill="none" xmlns="http://www.w3.org/2000/svg">
<path d="M33.8977 17.946C33.8977 26.9847 26.6321 34.3121 17.6687 34.3121C8.70531 34.3121 1.43942 26.9847 1.43942 17.946C1.43942 8.90725 8.70559 1.57983 17.6687 1.57983C26.6321 1.57983 33.8977 8.90725 33.8977 17.946Z" fill="#ED842A"/>
<path d="M29.4465 17.5057C29.4465 23.9101 24.356 29.1019 18.0766 29.1019C11.7973 29.1019 6.70673 23.9101 6.70673 17.5057C6.70673 11.1013 11.7973 5.90942 18.0766 5.90942C24.356 5.90942 29.4465 11.1013 29.4465 17.5057Z" fill="white"/>
<path d="M24.8982 18.4333C24.8982 22.7883 21.4369 26.3191 17.167 26.3191C12.8967 26.3191 9.43515 22.7883 9.43515 18.4333C9.43515 14.0783 12.8967 10.5481 17.167 10.5481C21.4369 10.5481 24.8982 14.0786 24.8982 18.4333Z" fill="#0D476A"/>
<path d="M22.6249 17.0421C22.6249 20.3721 19.9775 23.0723 16.7121 23.0723C13.447 23.0723 10.7999 20.3721 10.7999 17.0421C10.7999 13.7121 13.4473 11.012 16.7121 11.012C19.9775 11.012 22.6246 13.7121 22.6246 17.0421" fill="#368DC4"/>
<path d="M20.3499 16.1141C20.3499 18.6762 18.3139 20.7527 15.8022 20.7527C13.2905 20.7527 11.2539 18.6762 11.2539 16.1141C11.2539 13.5524 13.2905 11.4756 15.8022 11.4756C18.3136 11.4756 20.3499 13.5524 20.3499 16.1141Z" fill="#61B9E8"/>
<path d="M7.37439 21.6802C7.37439 21.6802 7.98767 23.5132 8.86042 26.1368C9.87914 29.1991 8.22327 30.4935 8.22327 30.4935L13.7417 28.9748C13.7417 28.9748 12.1364 28.3297 10.7871 25.6849C9.43847 23.0404 7.37439 21.6805 7.37439 21.6805" fill="white"/>
<path d="M59.0445 14.4266L60.8467 11.5118C60.8467 11.5118 61.7116 10.4018 60.8467 9.7776C59.9814 9.1534 56.3772 6.65576 52.4122 6.65576C47.2992 6.65548 40.9147 10.4021 40.9319 18.0345C40.9493 25.667 45.469 30.5933 52.5565 30.5933C59.6229 30.5933 60.7748 26.9851 60.7748 26.9851C60.7748 26.9851 61.2077 26.2223 60.5583 25.3896C59.9101 24.557 58.7562 22.7525 58.7562 22.7525C58.7562 22.7525 58.6119 22.1972 58.1077 22.2669C57.6026 22.3364 57.2424 22.8222 57.2424 22.8222C57.2424 22.8222 55.513 24.557 52.6287 24.557C48.2546 24.557 47.2936 20.7242 47.2936 18.6263C47.2936 16.0831 48.8915 12.9689 52.8448 12.9689C55.8039 12.9689 57.4586 14.7732 57.4586 14.7732C57.4586 14.7732 57.5308 15.0508 58.1793 15.0508C58.8284 15.0508 59.0445 14.4266 59.0445 14.4266Z" fill="#F28628"/>
<path d="M82.0024 29.2329V14.6448L86.7633 13.7545C86.7633 13.7545 87.3841 13.4808 87.315 14.1655C87.2459 14.8501 87.3205 15.8093 87.3205 15.8093C87.3205 15.8093 89.5913 13.6463 93.3174 13.7006C97.0429 13.7542 97.2499 16.0143 97.2499 16.0143C97.2499 16.0143 98.7679 13.6446 102.425 13.6994C106.081 13.7545 106.978 16.4942 106.978 16.4942V29.2329H101.735L101.528 19.5762C101.528 19.5762 101.528 18.5484 100.079 18.5484C98.6297 18.5484 97.6639 19.233 97.5948 20.3292C97.526 21.4254 97.319 29.2329 97.319 29.2329H91.7997L91.8683 19.8496C91.8683 19.8496 91.7304 18.549 90.2815 18.4806C88.8329 18.4114 87.6599 18.6859 87.5911 19.9188C87.522 21.1514 87.6599 29.2329 87.6599 29.2329H82.0024Z" fill="#F28628"/>
<path d="M110.408 26.8985L112.92 31.0928C112.92 31.0928 113.234 31.8107 114.441 31.3224C115.181 31.023 122.362 28.8601 122.433 23.8518C122.505 18.8432 118.343 17.7567 118.2 14.5433C118.056 11.3302 121.13 12.0118 121.704 12.0118C122.277 12.0118 122.29 11.8855 122.146 11.4695C122.055 11.2057 120.216 7.2577 120.216 7.2577C120.216 7.2577 120.131 6.81653 119.507 6.95747C118.195 7.25403 111.024 8.26942 110.952 13.6259C110.88 18.9825 116.047 19.4688 115.473 22.8084C114.899 26.1475 110.62 26.2613 110.62 26.2613C110.62 26.2613 109.96 26.1554 110.408 26.8985Z" fill="#318FC9"/>
<path d="M144.163 29.2328C144.373 29.2314 144.163 14.5063 144.163 14.5063L148.983 13.6985L149.297 15.5338C149.297 15.5338 152.406 14.095 154.431 14.0264V20.1907L150.659 20.1224C150.659 20.1224 150.101 19.9854 150.101 21.0129V29.2328H144.163Z" fill="#318FC9"/>
<path d="M165.103 6.87256H162.44C157.524 6.87256 157.183 11.6337 157.183 11.6337V15.3707H155.749V20.7303H157.183V30.6751H162.918V20.7303H166.059V15.3707H162.918V12.5508C162.918 11.8458 163.806 11.5634 163.806 11.5634C163.806 11.5634 165.035 11.4933 165.376 11.4933C165.718 11.4933 166.059 10.7878 166.059 10.7878V9.6597C166.059 7.33238 165.103 6.87256 165.103 6.87256Z" fill="#318FC9"/>
<path d="M140.555 14.8281V29.9473C140.555 29.9473 140.627 30.3625 139.406 30.3625H134.954C134.954 30.3625 134.451 30.3676 134.451 29.9473V27.8809" fill="#318FC9"/>
<path d="M134.662 28.1227C134.662 28.1227 131.613 30.5588 128.71 30.3498C125.806 30.1408 123.628 27.9829 123.628 25.8256C123.628 23.6677 124.209 14.8281 124.209 14.8281H130.089V23.5288C130.089 23.5288 130.379 25.6169 132.34 25.6169C134.3 25.6169 134.662 24.016 134.662 24.016V14.8281H140.833" fill="#318FC9"/>
<path fill-rule="evenodd" clip-rule="evenodd" d="M74.3406 15.3166V13.8694L79.2274 14.8715V30.4869H73.8003V28.9459C73.8003 28.9459 73.2281 28.5417 72.91 28.9459C72.592 29.35 71.6013 30.9275 68.4997 30.9275C63.5332 30.9275 61.4672 26.8829 61.4672 22.4344C61.4672 17.986 63.9702 13.6985 69.2942 13.6985C72.9891 13.6985 73.5455 15.5185 73.5455 15.5185C73.5455 15.5185 73.7048 15.7612 73.9829 15.7612C74.2607 15.7612 74.3403 15.3166 74.3403 15.3166H74.3406ZM66.1556 22.5471C66.1556 24.4282 67.6536 25.9528 69.5012 25.9528C71.3485 25.9528 72.8468 24.4279 72.8468 22.5474C72.8468 20.6663 71.3485 19.142 69.5012 19.142C67.6536 19.142 66.1556 20.6663 66.1556 22.5474V22.5471Z" fill="#F28628"/>
</svg>
