<svg width="188" height="20" viewBox="0 0 188 20" fill="none" xmlns="http://www.w3.org/2000/svg">
    <g clip-path="url(#clip0)">
        <path d="M15.2819 3.84616C13.6562 5.38462 12.7458 7.43591 12.7458 9.6795C12.7458 11.9231 13.7212 13.9744 15.2819 15.5128C15.9322 15.2564 16.4524 14.8718 16.9727 14.4231C15.542 13.2051 14.6316 11.5385 14.6316 9.7436C14.6316 7.94873 15.477 6.21796 16.9727 5.06411C16.4524 4.48719 15.8672 4.10257 15.2819 3.84616ZM22.3051 1.08975C20.2892 1.08975 18.4683 1.60257 16.8426 2.56411C17.4929 2.94873 18.0131 3.33334 18.5334 3.84616C19.6389 3.33334 20.9395 3.01283 22.3051 3.01283C26.532 3.01283 29.9785 6.02565 29.9785 9.6795C29.9785 10.7692 29.7184 11.859 29.0681 12.8205L28.808 13.2051L30.2387 16.6667L26.4019 15.2564L26.0118 15.4487C24.8412 15.9615 23.5406 16.2821 22.24 16.2821C20.8744 16.2821 19.5738 16.0257 18.4683 15.4487C17.9481 15.9615 17.4279 16.3462 16.7776 16.7308C18.3383 17.6923 20.2241 18.2051 22.24 18.2051C23.6707 18.2051 25.1664 17.9487 26.467 17.3077L33.8153 20L31.019 13.3333C31.6693 12.1795 31.9945 10.8974 31.9945 9.61539C31.9294 4.93591 27.7025 1.08975 22.3051 1.08975Z" fill="#F3B74E" />
        <path d="M18.5334 3.84616C17.8831 4.10257 17.3629 4.48719 16.8426 4.93591C18.2733 6.15385 19.1837 7.82052 19.1837 9.61539C19.1837 11.4103 18.3383 13.141 16.8426 14.2949C17.3629 14.6795 17.8831 15.0641 18.5334 15.3846C20.1591 13.8462 21.0695 11.7949 21.0695 9.55129C21.0695 7.3077 20.1591 5.38462 18.5334 3.84616ZM11.5102 1.08975C6.17779 1.08975 1.88585 4.93591 1.88585 9.61539C1.88585 10.8974 2.27603 12.1795 2.86129 13.3333L0 20L7.28329 17.3718C8.58388 18.0128 10.0796 18.2692 11.5102 18.2692C13.5261 18.2692 15.3469 17.7564 16.9727 16.7949C16.3224 16.4103 15.8021 16.0257 15.2819 15.5128C14.1764 16.0257 12.8758 16.3462 11.5102 16.3462C10.2096 16.3462 8.90903 16.0898 7.7385 15.5128L7.34832 15.3205L3.51159 16.7308L4.94223 13.2692L4.68212 12.8846C4.03182 11.9231 3.77171 10.8333 3.77171 9.7436C3.70668 6.02565 7.15323 3.07693 11.4452 3.07693C12.8108 3.07693 14.1114 3.33334 15.2169 3.91026C15.8021 3.39744 16.3224 3.01283 16.9076 2.62821C15.412 1.66668 13.5261 1.08975 11.5102 1.08975Z" fill="#5CA5DA" />
        <path d="M16.9077 14.4231C16.3874 14.8077 15.8672 15.1923 15.2169 15.5128C15.7371 16.0257 16.2574 16.4103 16.9077 16.7949C17.5579 16.4103 18.0782 16.0257 18.5984 15.5128C17.9481 15.1923 17.3629 14.8077 16.9077 14.4231ZM16.9077 2.56412C16.2574 2.94873 15.7371 3.33335 15.2169 3.84617C15.8672 4.10258 16.3874 4.48719 16.9077 4.93591C17.4279 4.5513 17.9481 4.16668 18.5984 3.84617C18.0782 3.39745 17.4929 2.94873 16.9077 2.56412Z" fill="#7A805A" />
        <path d="M47.6015 16.0897C48.1218 16.0897 48.577 16.5385 48.577 17.0513C48.577 17.3077 48.4469 17.5641 48.3169 17.7564C47.0163 18.8462 45.5206 19.359 43.8298 19.359C41.944 19.359 40.3182 18.7179 38.9526 17.3718C37.587 16.0256 36.9367 14.4872 36.9367 12.5641C36.9367 10.7051 37.587 9.10256 38.9526 7.75641C40.3182 6.41026 41.8789 5.76923 43.8298 5.76923C45.5206 5.76923 47.0163 6.28205 48.3169 7.4359C48.5119 7.62821 48.642 7.88462 48.642 8.20513C48.642 8.71795 48.1868 9.16667 47.6666 9.16667C47.4064 9.16667 47.2114 9.10256 47.0163 8.97436C46.1059 8.20513 45.0004 7.75641 43.8298 7.75641C42.4642 7.75641 41.2937 8.20513 40.3833 9.16667C39.4078 10.1282 38.9526 11.2821 38.9526 12.5641C38.9526 13.8462 39.4078 15.0641 40.3833 15.9615C41.3587 16.9231 42.5292 17.3718 43.8298 17.3718C45.0654 17.3718 46.1059 16.9872 47.0163 16.1538C47.2114 16.1538 47.4064 16.0897 47.6015 16.0897ZM51.3732 0.961538C51.3732 0.448718 51.7634 0 52.3487 0C52.9339 0 53.3241 0.448718 53.3241 0.961538V7.5641C54.5597 6.34615 55.9903 5.83333 57.7461 5.83333C59.5019 5.83333 60.9976 6.47436 62.2982 7.69231C63.5988 8.91026 64.184 10.4487 64.184 12.1795V18.4615C64.184 18.9744 63.7288 19.4231 63.2086 19.4231C62.6883 19.4231 62.2331 18.9744 62.2331 18.4615V12.1795C62.2331 10.9615 61.7779 9.9359 60.9326 9.10256C60.0872 8.26923 59.0467 7.82051 57.8111 7.82051C56.5756 7.82051 55.5351 8.26923 54.6897 9.10256C53.8443 9.9359 53.3891 10.9615 53.3891 12.1795V18.4615C53.3891 18.9744 52.9339 19.4231 52.4137 19.4231C51.8935 19.4231 51.4383 18.9744 51.4383 18.4615V0.961538H51.3732ZM78.4905 17.3718C77.1249 18.7179 75.4341 19.4231 73.5483 19.4231C71.6624 19.4231 70.0367 18.7821 68.6711 17.4359C67.3054 16.0897 66.6551 14.5513 66.6551 12.6282C66.6551 10.7051 67.3054 9.16667 68.6711 7.82051C70.0367 6.47436 71.5974 5.83333 73.5483 5.83333C75.4341 5.83333 77.0598 6.47436 78.4255 7.82051C79.7911 9.16667 80.4414 10.7051 80.4414 12.6282V18.4615C80.4414 18.9744 79.9862 19.4231 79.4659 19.4231C78.9457 19.4231 78.4905 18.9744 78.4905 18.4615V17.3718ZM73.6133 7.75641C72.2477 7.75641 71.0771 8.20513 70.1667 9.16667C69.2563 10.1282 68.7361 11.2821 68.7361 12.5641C68.7361 13.8462 69.1913 15.0641 70.1667 15.9615C71.1422 16.9231 72.3127 17.3718 73.6133 17.3718C74.9789 17.3718 76.1494 16.9231 77.0598 15.9615C77.9703 15 78.4905 13.8462 78.4905 12.5641C78.4905 11.2821 78.0353 10.0641 77.0598 9.16667C76.0844 8.20513 74.9789 7.75641 73.6133 7.75641ZM89.9357 17.5C90.4559 17.5 90.9111 17.9487 90.9111 18.4615C90.9111 18.9744 90.4559 19.4231 89.9357 19.4231C86.6842 19.4231 84.9934 17.8205 84.9934 14.5513V7.75641H84.018C83.4977 7.75641 83.0425 7.30769 83.0425 6.79487C83.0425 6.28205 83.4977 5.83333 84.018 5.83333H84.9934V0.961538C84.9934 0.448718 85.4486 0 85.9689 0C86.4891 0 86.9443 0.448718 86.9443 0.961538V5.83333H88.8952C89.4154 5.83333 89.8706 6.28205 89.8706 6.79487C89.8706 7.30769 89.4154 7.75641 88.8952 7.75641H86.9443V14.5513C87.0093 16.4744 87.9848 17.5 89.9357 17.5Z" fill="#335185" />
        <path d="M93.3822 6.79487C93.3822 6.28205 93.8374 5.83333 94.3577 5.83333C94.8779 5.83333 95.3331 6.28205 95.3331 6.79487V7.88462C96.6987 6.53846 98.3895 5.83333 100.275 5.83333C101.251 5.83333 102.096 5.96154 102.877 6.28205C103.007 6.34615 103.137 6.41026 103.267 6.53846C103.462 6.73077 103.527 6.98718 103.527 7.24359C103.527 7.75641 103.072 8.20513 102.551 8.20513C102.421 8.20513 102.291 8.14103 102.096 8.07692C101.511 7.82051 100.861 7.69231 100.145 7.69231C98.7797 7.69231 97.6091 8.14103 96.6987 9.10256C95.7883 10.0641 95.2681 11.2179 95.2681 12.5V18.3333C95.2681 18.8462 94.8129 19.2949 94.2926 19.2949C93.7724 19.2949 93.3172 18.8462 93.3172 18.3333V6.79487H93.3822ZM115.687 17.3718C114.322 18.7179 112.631 19.4231 110.745 19.4231C108.859 19.4231 107.233 18.7821 105.868 17.4359C104.502 16.0897 103.852 14.5513 103.852 12.6282C103.852 10.7051 104.502 9.16667 105.868 7.82051C107.233 6.47436 108.794 5.83333 110.745 5.83333C112.631 5.83333 114.257 6.47436 115.622 7.82051C116.988 9.16667 117.638 10.7051 117.638 12.6282V18.4615C117.638 18.9744 117.183 19.4231 116.663 19.4231C116.143 19.4231 115.687 18.9744 115.687 18.4615V17.3718ZM110.81 7.75641C109.444 7.75641 108.274 8.20513 107.364 9.16667C106.453 10.1282 105.933 11.2821 105.933 12.5641C105.933 13.8462 106.388 15.0641 107.364 15.9615C108.339 16.9231 109.51 17.3718 110.81 17.3718C112.176 17.3718 113.346 16.9231 114.257 15.9615C115.232 15 115.687 13.8462 115.687 12.5641C115.687 11.2821 115.232 10.0641 114.257 9.16667C113.281 8.26923 112.111 7.75641 110.81 7.75641ZM120.239 6.79487C120.239 6.28205 120.695 5.83333 121.215 5.83333C121.735 5.83333 122.19 6.28205 122.19 6.79487V7.5641C123.426 6.34615 124.856 5.83333 126.612 5.83333C128.368 5.83333 129.864 6.47436 131.164 7.69231C132.465 8.91026 133.05 10.4487 133.05 12.1795V18.4615C133.05 18.9744 132.595 19.4231 132.075 19.4231C131.554 19.4231 131.099 18.9744 131.099 18.4615V12.1795C131.099 10.9615 130.644 9.9359 129.799 9.10256C128.953 8.26923 127.913 7.82051 126.677 7.82051C125.442 7.82051 124.401 8.26923 123.556 9.10256C122.71 9.9359 122.255 10.9615 122.255 12.1795V18.4615C122.255 18.9744 121.8 19.4231 121.28 19.4231C120.76 19.4231 120.304 18.9744 120.304 18.4615V6.79487H120.239ZM147.422 0.961538C147.422 0.448718 147.877 0 148.397 0C148.917 0 149.373 0.448718 149.373 0.961538V12.6282C149.373 14.4872 148.722 16.0897 147.357 17.4359C145.991 18.7821 144.43 19.4231 142.479 19.4231C140.594 19.4231 138.968 18.7821 137.602 17.4359C136.302 16.0897 135.586 14.5513 135.586 12.6282C135.586 10.7051 136.237 9.16667 137.602 7.82051C138.968 6.47436 140.529 5.83333 142.479 5.83333C144.365 5.83333 145.991 6.47436 147.357 7.82051L147.422 7.88462V0.961538ZM147.422 12.6282C147.422 11.2821 146.966 10.1282 145.991 9.23077C145.016 8.26923 143.845 7.82051 142.544 7.82051C141.244 7.82051 140.008 8.26923 139.098 9.23077C138.187 10.1923 137.667 11.3462 137.667 12.6282C137.667 13.9103 138.122 15.1282 139.098 16.0256C140.073 16.9231 141.244 17.4359 142.544 17.4359C143.845 17.4359 145.081 16.9872 145.991 16.0256C146.966 15.1282 147.422 13.9744 147.422 12.6282ZM165.76 12.6282C165.76 14.4872 165.11 16.0897 163.744 17.4359C162.378 18.7821 160.818 19.4231 158.867 19.4231C156.981 19.4231 155.355 18.7821 153.99 17.4359C152.624 16.0897 151.974 14.5513 151.974 12.6282C151.974 10.7051 152.624 9.16667 153.99 7.82051C155.355 6.47436 156.916 5.83333 158.867 5.83333C160.753 5.83333 162.378 6.47436 163.744 7.82051C165.11 9.10256 165.76 10.7692 165.76 12.6282ZM158.867 7.75641C157.501 7.75641 156.331 8.20513 155.42 9.16667C154.51 10.1282 153.99 11.2821 153.99 12.5641C153.99 13.8462 154.445 15.0641 155.42 15.9615C156.396 16.9231 157.566 17.3718 158.867 17.3718C160.232 17.3718 161.403 16.9231 162.313 15.9615C163.289 15 163.744 13.8462 163.744 12.5641C163.744 11.2821 163.289 10.0641 162.313 9.16667C161.338 8.26923 160.232 7.75641 158.867 7.75641ZM170.312 18.4615C170.312 18.9744 169.857 19.4231 169.337 19.4231C168.816 19.4231 168.361 18.9744 168.361 18.4615V6.79487C168.361 6.28205 168.816 5.83333 169.337 5.83333C169.857 5.83333 170.312 6.28205 170.312 6.79487V7.05128C171.287 6.21795 172.458 5.83333 173.759 5.83333C175.254 5.83333 176.555 6.34615 177.595 7.3718C177.79 7.5641 178.051 7.82051 178.246 8.07692C178.441 7.82051 178.636 7.62821 178.896 7.3718C179.936 6.34615 181.237 5.83333 182.733 5.83333C184.228 5.83333 185.529 6.34615 186.569 7.3718C187.61 8.39744 188.13 9.67949 188.13 11.1538V18.3974C188.13 18.9103 187.675 19.359 187.155 19.359C186.634 19.359 186.179 18.9103 186.179 18.3974V11.1538C186.179 10.1923 185.854 9.42308 185.139 8.71795C184.488 8.07692 183.643 7.69231 182.668 7.69231C181.692 7.69231 180.912 8.01282 180.196 8.71795C179.546 9.35897 179.156 10.1923 179.156 11.1538V18.3974C179.156 18.9103 178.701 19.359 178.181 19.359C177.66 19.359 177.205 18.9103 177.205 18.3974V11.1538C177.205 10.1923 176.88 9.42308 176.165 8.71795C175.514 8.07692 174.669 7.69231 173.694 7.69231C172.718 7.69231 171.938 8.01282 171.222 8.71795C170.572 9.35897 170.182 10.1923 170.182 11.1538V18.4615H170.312Z" fill="#5CA5DA" />
    </g>
    <defs>
        <clipPath id="clip0">
            <rect width="188" height="20" fill="white" />
        </clipPath>
    </defs>
</svg>
