<svg width="174" height="38" viewBox="0 0 174 38" fill="none" xmlns="http://www.w3.org/2000/svg">
<path d="M21.0342 16.6043C20.8415 16.2188 20.7313 15.8608 20.5111 15.613C19.6301 14.6217 17.813 14.6767 16.1886 15.6956C14.7845 16.5767 14.2889 17.7057 14.7845 19.0275C15.4453 20.8448 16.8769 21.8086 18.6389 22.2492C22.3282 23.1854 25.8522 22.7173 28.9908 20.4593C32.4048 18.0361 32.7076 14.2637 29.7892 11.2622C24.4481 5.75499 13.6557 6.38832 9.03039 12.4738C5.69906 16.8521 6.66267 22.9927 11.4256 25.7188C13.6006 26.9579 16.1611 27.6188 18.6114 28.2796C20.043 28.6651 21.6399 28.4173 23.0991 28.7202C24.5582 29.0231 25.9348 29.7115 27.5041 30.2898C27.4215 28.4173 28.6604 27.7014 30.0921 26.9854C31.1383 26.4622 32.0468 25.6362 32.9554 24.8927C34.0291 24.0115 35.2956 23.9564 36.1491 24.8376C37.0301 25.7463 37.0025 27.013 35.9563 28.0318C35.1854 28.8028 34.3595 29.6014 33.3959 30.097C31.9918 30.7854 31.331 31.7767 31.331 33.2912C31.331 33.484 31.276 33.6492 31.2209 33.8419C30.8079 35.4115 29.5139 36.2376 28.1098 35.439C24.6684 33.5115 20.8965 33.0434 17.0972 32.3825C14.5642 31.9419 12.0038 31.0608 9.74621 29.8217C1.59684 25.3608 0.302857 14.7869 6.93798 8.23325C13.5456 1.7347 25.2741 1.4318 32.1845 7.57238C37.7734 12.5564 37.2779 20.1564 31.0282 24.2869C30.2022 24.8376 29.2937 25.3333 28.3851 25.7188C24.3104 27.3985 20.1532 27.5912 16.051 25.9115C14.6468 25.3333 13.2703 24.397 12.2791 23.268C8.39716 18.8347 10.1867 12.8043 15.8858 11.0695C18.5288 10.2709 21.0892 10.326 23.2642 12.226C24.9161 13.6854 25.7146 15.5303 25.0538 17.7883C24.5032 19.6883 23.2642 20.9275 21.2269 21.2854C19.6025 21.5883 18.0332 20.597 17.8956 19.1927C17.7304 17.7883 18.6665 16.9347 20.5386 16.797C20.6487 16.797 20.7038 16.7419 21.0342 16.6043ZM28.4127 31.6666C27.4766 31.2811 26.8984 31.0883 26.3753 30.813C24.6408 29.9043 22.8513 29.4637 20.869 29.3535C17.3174 29.1883 13.9035 28.3622 10.8199 26.4072C5.72659 23.1854 4.46014 16.6043 8.01172 11.7854C13.0225 4.95644 24.806 4.21296 30.6152 10.3811C33.8639 13.8231 33.506 18.2014 29.6791 20.955C26.0449 23.5709 22.0253 24.1217 17.7854 22.7999C15.9684 22.2492 14.4266 21.0927 13.876 19.2202C13.6006 18.284 13.6557 16.9898 14.0687 16.1086C14.9222 14.3188 17.5377 13.2173 19.4924 13.713C20.2358 13.9057 21.0342 14.4014 21.5022 14.9796C21.8601 15.3927 21.9427 16.3014 21.7225 16.8246C21.5573 17.2101 20.7313 17.3202 20.2358 17.5956C19.7953 17.8434 19.1345 18.1188 19.0794 18.4492C18.9968 18.8347 19.4924 19.6883 19.7402 19.7159C20.6763 19.7434 21.8051 19.7985 22.5484 19.3304C24.8611 17.8434 24.806 14.484 22.4658 12.639C20.2358 10.8767 17.7579 11.0419 15.3076 12.1434C12.9674 13.2173 11.343 14.9521 11.288 17.7057C11.2329 20.6796 13.2978 23.5709 16.5465 24.7275C21.3646 26.4347 26.0449 25.9941 30.3674 23.213C36.1215 19.5231 36.6171 12.639 31.4962 8.06803C24.9161 2.20281 13.6006 2.61586 7.43355 8.94919C1.65191 14.897 2.83577 24.2869 9.93893 28.555C12.582 30.1246 15.4728 31.0883 18.5013 31.3637C21.5022 31.639 24.338 32.1622 27.0636 33.5666C29.8168 34.9985 30.037 34.8333 30.4775 31.7767C30.6427 30.6753 31.0557 30.0144 32.0744 29.4637C33.1756 28.8579 34.1668 27.9767 35.1579 27.1782C35.7361 26.7101 36.0389 26.0492 35.4057 25.4159C34.8 24.7825 34.1943 25.0304 33.5886 25.5535C32.9003 26.1593 32.2396 26.8202 31.4411 27.2333C29.6791 28.0869 27.9722 28.968 28.4127 31.6666Z" fill="#2B3D5A"/>
<path d="M28.4127 31.6667C27.9721 28.9681 29.6791 28.087 31.4136 27.1783C32.212 26.7652 32.8728 26.0768 33.5611 25.4986C34.1392 24.9754 34.7449 24.7276 35.3782 25.3609C36.0114 26.0218 35.7085 26.6551 35.1304 27.1232C34.1392 27.9493 33.1756 28.8029 32.0468 29.4087C31.0557 29.9594 30.6152 30.6203 30.45 31.7218C30.0095 34.7783 29.7892 34.9435 27.0361 33.5116C24.3104 32.1073 21.4747 31.5841 18.4737 31.3087C15.4452 31.0334 12.5544 30.0971 9.91139 28.5C2.83575 24.287 1.65189 14.8971 7.43354 8.94931C13.6006 2.61597 24.9161 2.20293 31.4962 8.09568C36.6171 12.6667 36.1215 19.5232 30.3674 23.2406C26.0449 26.0218 21.3645 26.4899 16.5465 24.7551C13.2978 23.5986 11.2054 20.6797 11.288 17.7058C11.343 14.9522 12.9674 13.1899 15.3076 12.1435C17.7304 11.0421 20.2358 10.8493 22.4658 12.6392C24.806 14.4841 24.8611 17.8435 22.5484 19.3305C21.8051 19.7986 20.6763 19.7435 19.7402 19.716C19.4924 19.716 18.9968 18.8348 19.0794 18.4493C19.1345 18.0913 19.7952 17.8435 20.2358 17.5957C20.7313 17.3203 21.5573 17.2102 21.7225 16.8247C21.9427 16.3015 21.8326 15.3928 21.5022 14.9797C21.0342 14.4015 20.2358 13.9058 19.4924 13.7131C17.5652 13.2174 14.9221 14.3189 14.0687 16.1363C13.6557 17.0174 13.5731 18.3116 13.8759 19.2479C14.4266 21.1203 15.9683 22.2493 17.7854 22.8276C22.0253 24.1493 26.0725 23.5986 29.6791 20.9551C33.506 18.1739 33.8364 13.7957 30.6152 10.3812C24.806 4.21307 12.9949 4.95655 8.0117 11.7855C4.48765 16.6044 5.72658 23.1855 10.8199 26.4348C13.8759 28.3623 17.3174 29.1884 20.869 29.3812C22.8513 29.4913 24.6408 29.9319 26.3753 30.8406C26.8984 31.0884 27.4766 31.2812 28.4127 31.6667Z" fill="#FCC949"/>
<path d="M118.276 16.1362C118.634 16.329 119.019 16.4942 119.46 16.6594C119.9 16.7971 120.368 16.9623 120.809 17.1C121.277 17.2652 121.717 17.4304 122.158 17.6507C122.598 17.8435 122.984 18.1188 123.342 18.4217C123.7 18.7246 123.975 19.1101 124.195 19.5507C124.416 19.9913 124.526 20.542 124.526 21.2029C124.526 21.8913 124.416 22.5522 124.168 23.1304C123.92 23.7362 123.59 24.2594 123.149 24.7C122.709 25.1406 122.158 25.4986 121.497 25.7739C120.836 26.0217 120.093 26.1594 119.267 26.1594C118.772 26.1594 118.276 26.1044 117.808 26.0217C117.34 25.9116 116.899 25.7739 116.459 25.6087C116.046 25.4435 115.633 25.2232 115.275 24.9754C114.917 24.7275 114.587 24.4522 114.284 24.1217L114.945 23.0203C115 22.9377 115.082 22.8551 115.192 22.8C115.275 22.7449 115.385 22.7174 115.495 22.7174C115.66 22.7174 115.826 22.8 116.018 22.9652C116.211 23.1304 116.459 23.2957 116.762 23.4884C117.065 23.6812 117.395 23.8464 117.808 24.0116C118.221 24.1768 118.716 24.2594 119.295 24.2594C119.763 24.2594 120.203 24.2044 120.589 24.0667C120.974 23.929 121.277 23.7638 121.552 23.5159C121.8 23.2681 122.02 22.9928 122.158 22.6623C122.296 22.3319 122.378 21.9464 122.378 21.5609C122.378 21.0928 122.268 20.7348 122.075 20.4319C121.855 20.129 121.58 19.9087 121.249 19.7159C120.891 19.5232 120.506 19.358 120.066 19.2203C119.625 19.0826 119.157 18.9449 118.716 18.7797C118.248 18.642 117.808 18.4493 117.367 18.2565C116.927 18.0638 116.541 17.8159 116.184 17.4855C115.826 17.1826 115.55 16.7696 115.358 16.3015C115.137 15.8333 115.055 15.2275 115.055 14.5391C115.055 13.9884 115.165 13.4377 115.385 12.9145C115.605 12.3913 115.908 11.9232 116.349 11.5377C116.762 11.1246 117.285 10.8217 117.891 10.5739C118.496 10.3261 119.185 10.2159 119.983 10.2159C120.864 10.2159 121.662 10.3536 122.406 10.629C123.149 10.9043 123.782 11.3174 124.333 11.8406L123.755 12.942C123.672 13.0522 123.617 13.1623 123.535 13.2174C123.452 13.2725 123.342 13.3 123.232 13.3C123.094 13.3 122.956 13.2449 122.791 13.1072C122.626 12.9971 122.406 12.8594 122.158 12.6942C121.91 12.5565 121.607 12.4188 121.249 12.2812C120.891 12.171 120.478 12.0884 119.983 12.0884C119.515 12.0884 119.129 12.1435 118.772 12.2812C118.414 12.3913 118.138 12.5565 117.918 12.7768C117.698 12.9971 117.505 13.2174 117.395 13.5203C117.285 13.7957 117.202 14.0986 117.202 14.429C117.202 14.842 117.312 15.2 117.533 15.4754C117.643 15.6957 117.918 15.9435 118.276 16.1362ZM140.687 17.2101C140.439 17.8159 140.053 18.3391 139.558 18.8072C139.062 19.2478 138.457 19.6058 137.713 19.8261C136.97 20.0739 136.116 20.1841 135.18 20.1841H132.758V25.9391H130.445V10.3261H135.18C136.172 10.3261 137.053 10.4362 137.796 10.6841C138.539 10.9043 139.145 11.2348 139.641 11.6754C140.136 12.0884 140.494 12.6116 140.714 13.2174C140.962 13.8232 141.072 14.4841 141.072 15.2275C141.072 15.9435 140.962 16.6043 140.687 17.2101ZM137.878 12.9696C137.273 12.4188 136.392 12.1435 135.18 12.1435H132.758V18.3667H135.18C135.759 18.3667 136.282 18.2841 136.722 18.1464C137.163 17.9812 137.548 17.7884 137.851 17.4855C138.154 17.2101 138.374 16.8797 138.539 16.4942C138.704 16.1087 138.76 15.6681 138.76 15.2C138.76 14.2362 138.484 13.4928 137.878 12.9696ZM146.689 25.9667V10.3261H149.029V25.9667H146.689ZM167.558 25.9667C167.365 25.9667 167.227 25.9391 167.117 25.8565C167.007 25.8015 166.869 25.6913 166.759 25.5536L157.922 14.1261C157.949 14.3188 157.949 14.5116 157.949 14.7043C157.949 14.8971 157.977 15.0623 157.977 15.2275V25.9667H155.939V10.3261H157.151C157.343 10.3261 157.509 10.3536 157.619 10.4087C157.729 10.4638 157.839 10.5739 157.949 10.7391L166.814 22.1942C166.787 21.9739 166.787 21.7812 166.759 21.5884C166.732 21.3957 166.732 21.2029 166.732 21.0377V10.3261H168.769V25.9667H167.558Z" fill="#2B3D5A"/>
<path d="M55.4763 13.9884C55.3662 14.0711 55.201 14.1261 55.0082 14.1261C54.8706 14.1261 54.7605 14.0986 54.6503 14.0435C54.5402 13.9884 54.4025 13.9058 54.2924 13.8232C54.1548 13.7406 54.0171 13.658 53.8519 13.5479C53.6867 13.4377 53.5215 13.3551 53.3013 13.2725C53.081 13.1899 52.8332 13.1073 52.5579 13.0522C52.2826 12.9971 51.9247 12.9696 51.5393 12.9696C50.9336 12.9696 50.3829 13.0798 49.8598 13.3C49.3643 13.5203 48.9237 13.8508 48.5658 14.2913C48.2079 14.7319 47.9051 15.2551 47.7124 15.8884C47.5196 16.5218 47.4095 17.2377 47.4095 18.0363C47.4095 18.8624 47.5196 19.5783 47.7399 20.2116C47.9601 20.845 48.263 21.3682 48.6484 21.8087C49.0339 22.2493 49.4744 22.5798 49.97 22.8C50.4655 23.0203 51.0162 23.1305 51.5943 23.1305C51.9247 23.1305 52.2275 23.1029 52.5029 23.0754C52.7782 23.0479 53.026 22.9928 53.2737 22.9102C53.5215 22.8276 53.7418 22.745 53.962 22.6073C54.1823 22.4696 54.375 22.3319 54.5953 22.1116C54.6779 22.029 54.788 21.974 54.8706 21.9189C54.9807 21.8638 55.0908 21.8363 55.1734 21.8363C55.256 21.8363 55.3386 21.8638 55.4487 21.8913C55.5313 21.9189 55.6139 21.974 55.6965 22.0566L57.1557 23.5986C56.5225 24.4247 55.7241 25.058 54.7605 25.4986C53.7968 25.9116 52.6681 26.1319 51.3465 26.1319C50.1351 26.1319 49.0614 25.9392 48.0978 25.5261C47.1342 25.1131 46.3358 24.5624 45.675 23.8189C45.0143 23.1029 44.4912 22.2493 44.1332 21.258C43.7753 20.2667 43.6101 19.1928 43.6101 18.0363C43.6101 16.8522 43.8029 15.7508 44.1883 14.7595C44.5737 13.7682 45.1244 12.9145 45.8127 12.1986C46.501 11.4827 47.3544 10.9319 48.3181 10.5189C49.2817 10.1334 50.3554 9.91309 51.5393 9.91309C52.1449 9.91309 52.6956 9.96816 53.2187 10.0783C53.7418 10.1884 54.2374 10.3261 54.7054 10.5189C55.1734 10.7116 55.5864 10.9319 55.9719 11.1798C56.3573 11.4276 56.6877 11.7305 56.9905 12.0334L55.7516 13.7131L55.4763 13.9884ZM71.9953 25.9667V19.2479H65.5529V25.9667H61.8361V10.0783H65.5529V16.7145H71.9953V10.0783H75.712V25.9667H71.9953ZM93.2222 25.9667C92.8918 25.9667 92.644 25.8841 92.4513 25.7464C92.2586 25.6087 92.0934 25.416 92.0108 25.1682L91.0747 22.387H85.0453L84.1092 25.1682C84.0266 25.3609 83.8889 25.5537 83.6687 25.7189C83.4484 25.8841 83.2006 25.9667 82.8978 25.9667H80.0345L86.1741 10.0783H89.9459L96.0855 25.9667H93.2222ZM88.762 15.558C88.6519 15.2827 88.5418 14.9522 88.4041 14.5942C88.294 14.2087 88.1563 13.8232 88.0462 13.3827C87.9361 13.8232 87.826 14.2363 87.6883 14.6218C87.5782 15.0073 87.4405 15.3377 87.3304 15.6131L85.8712 19.9363H90.2212L88.762 15.558ZM105.777 12.9971V25.9667H102.087V12.9971H97.6272V10.0783H110.237V12.9971H105.777Z" fill="#FCC949"/>
</svg>
