<svg width="168" height="43" viewBox="0 0 168 43" fill="none" xmlns="http://www.w3.org/2000/svg">
<path d="M18.8303 31.2467C18.8303 31.2467 20.546 32.121 21.5612 33.5257C22.5763 34.9303 22.6335 35.4607 22.7193 35.561C22.848 35.7043 22.9052 35.6613 23.0768 35.6613C23.134 35.6613 23.1768 35.6183 23.2054 35.5467C23.234 35.4893 23.2626 35.4033 23.2769 35.3173C23.3198 35.174 23.5057 34.2853 24.3779 33.4683C25.25 32.637 26.4797 32.5223 26.4797 32.5223L21.7328 30.8023L18.8303 31.2467ZM43.4226 8.27033C43.3511 8.06967 42.7792 7.96933 41.4924 7.912C40.5202 7.869 39.2334 7.85467 38.2897 7.84033C39.4192 8.84367 40.2056 10.234 40.4201 11.8107C41.1207 11.094 42.0929 10.1193 42.3932 9.804C43.3797 8.815 43.4941 8.471 43.4226 8.27033Z" fill="#4D8BF4"/>
<path d="M30.1971 25.714C29.6538 25.0833 26.351 26.1153 21.118 25.8143C15.8849 25.5133 9.02196 23.392 8.7789 23.7503C8.52154 24.1087 9.33652 24.5817 10.1658 25.069C10.9951 25.5563 15.3273 27.434 20.2029 27.692C28.1811 28.122 30.7547 26.359 30.1971 25.714Z" fill="#FA4F4F"/>
<path d="M38.7616 13.7313C38.7616 10.2197 35.9735 7.35301 32.4991 7.23834H32.4848C27.9095 6.88001 20.7462 8.08401 20.4031 8.14134C19.8884 8.19867 19.8455 8.29901 19.8026 8.44234C19.7597 8.57134 19.9884 8.74334 20.0885 8.80067C20.1886 8.85801 22.1903 10.234 22.1903 10.234C22.1903 10.234 20.5461 10.4203 20.3602 10.4203C20.1743 10.4347 19.9741 10.4633 19.917 10.5637C19.8598 10.6783 19.8741 10.793 20.1028 10.9793C20.3173 11.1657 22.4048 12.9573 22.4048 12.9573C22.4763 13.2727 22.6478 14.319 22.5335 15.5087C22.3476 17.329 21.5612 18.6047 20.1886 19.3213C16.6713 21.1417 8.1498 18.9773 8.03542 18.9487C8.03542 18.9487 7.34912 18.8053 7.19184 19.049C7.03456 19.2927 7.57788 19.8087 7.57788 19.8087C7.66367 19.8803 14.5409 26.6313 20.0885 27.4053C25.6361 28.1793 30.7547 27.3623 32.4133 24.4097C33.8145 21.887 29.2964 20.038 27.9381 19.5507C28.6672 19.78 30.3401 20.2387 32.2846 20.2387C35.8591 20.2387 38.7616 17.329 38.7616 13.7313ZM31.0836 13.6167C31.0836 12.5703 31.9415 11.7103 32.9852 11.7103C34.029 11.7103 34.8868 12.5703 34.8868 13.6167C34.8868 14.663 34.029 15.523 32.9852 15.523C31.9415 15.523 31.0836 14.663 31.0836 13.6167Z" fill="#FA4F4F"/>
<path d="M38.4613 20.2387C38.4184 20.2244 38.3755 20.253 38.3183 20.3247C37.6034 21.0557 36.7169 21.629 35.7161 21.973C35.616 22.0017 35.6017 22.0017 35.616 22.1164C35.6875 22.7614 35.8591 26.0867 31.87 28.509C29.1962 29.8994 26.2795 29.8707 24.8211 29.9137C23.3627 29.9567 22.9052 29.9424 21.6613 29.8564C21.504 29.842 21.361 29.842 21.2037 29.8277C21.1465 29.8277 21.0894 29.8134 21.0465 29.8134C20.9464 29.799 20.8606 29.799 20.7605 29.7847C20.689 29.7847 20.6318 29.7704 20.5603 29.7704C20.4745 29.756 20.3888 29.756 20.303 29.7417C20.2315 29.7274 20.16 29.7274 20.0742 29.713C20.0027 29.6987 19.9312 29.6987 19.8597 29.6844C19.7739 29.67 19.6882 29.6557 19.6167 29.6557C19.5595 29.6414 19.488 29.6414 19.4308 29.627L19.1734 29.584C19.1162 29.5697 19.0591 29.5697 19.0019 29.5554C18.9161 29.541 18.816 29.5267 18.7302 29.5124C18.673 29.498 18.6301 29.498 18.5729 29.4837C18.4728 29.4694 18.3728 29.4407 18.287 29.4264C18.2441 29.412 18.2012 29.412 18.1583 29.3977C18.0582 29.3834 17.9581 29.3547 17.858 29.3404C17.8294 29.3404 17.7865 29.326 17.7579 29.326C17.6579 29.2974 17.5435 29.283 17.4434 29.2544C17.4148 29.2544 17.3862 29.24 17.3576 29.24C17.2432 29.2114 17.1431 29.1827 17.0288 29.1684C17.0002 29.1684 16.9859 29.154 16.9573 29.154C16.8429 29.1254 16.7428 29.0967 16.6284 29.068C16.6141 29.068 16.5998 29.0537 16.5712 29.0537L16.2281 28.9677C16.2138 28.9677 16.1995 28.9677 16.1995 28.9534C16.0851 28.9247 15.9707 28.896 15.8563 28.853H15.842C15.7991 28.8387 15.6991 28.81 15.599 28.7814C15.5275 28.767 15.4131 28.724 15.3845 28.7814C15.3559 28.8387 15.4417 28.9104 15.4846 28.9677C15.6705 29.1397 15.8563 29.2974 15.842 29.2974C18.2441 31.3757 21.3896 32.637 24.8068 32.637C31.87 32.637 37.6892 27.2907 38.4613 20.4107C38.4756 20.3677 38.4899 20.253 38.4613 20.2387ZM23.0625 34.6437C23.4914 34.6867 25.6933 35.8047 25.6933 35.8047C25.6933 35.8047 23.4628 35.8334 23.0196 35.819C22.5906 35.8047 22.4191 34.6437 23.0625 34.6437Z" fill="#4D8BF4"/>
<path d="M49.7709 22.7326C49.7709 16.727 54.6465 10.105 63.2109 10.105C67.6147 10.105 70.989 12.5846 70.989 15.8096C70.989 17.4436 70.2741 18.447 69.0302 18.447C67.6719 18.447 66.4851 17.5583 66.4851 17.329C66.5137 17.0996 67.3716 15.8096 67.3716 14.6773C67.3716 12.9716 65.7559 12.4126 63.9544 12.4126C57.9922 12.4126 54.4463 17.673 54.4463 22.6323C54.4463 26.832 56.977 30.5443 61.4809 30.5443C66.2278 30.5443 68.9301 26.6743 68.9301 26.6743C68.9301 26.6743 69.7308 25.5993 70.2455 25.112C70.7602 24.6246 73.2623 23.6213 73.3195 24.9686C73.3338 25.3556 73.1051 25.5276 73.1051 25.6566C73.1051 26.359 70.0739 29.3403 69.1874 30.1143C67.4002 31.6623 64.2118 33.024 61.2092 33.024C54.7037 33.0383 49.7709 28.638 49.7709 22.7326Z" fill="#FA4F4F"/>
<path d="M87.8175 24.123C86.6451 25.2697 85.2868 25.9433 84.0715 25.9433C83.5853 25.9433 83.0563 25.7713 82.5702 25.456C82.5273 25.4273 82.4987 25.37 82.513 25.3127C82.5702 24.9113 82.5988 24.51 82.5988 24.1087C82.5988 20.769 80.7972 18.6047 78.0092 18.6047C75.8359 18.6047 74.3203 19.78 74.063 21.672C74.0487 21.7437 74.0058 21.7867 73.9343 21.801C73.105 21.887 72.3901 22.3027 71.8754 23.005C71.3607 23.7217 71.0747 24.6963 71.0747 25.8143C71.0747 27.1617 71.5465 28.509 72.3615 29.5123C73.0478 30.358 74.306 31.347 76.4364 31.347H76.5365C78.9242 31.3183 80.883 29.9137 81.8982 27.477C81.9125 27.434 81.9411 27.4197 81.984 27.4053C81.9983 27.4053 82.0126 27.391 82.0412 27.391C82.0555 27.391 82.0841 27.391 82.0984 27.4053C82.6417 27.6633 83.2565 27.8067 83.8713 27.8067C85.1438 27.8067 86.6022 27.219 87.8461 26.2013C88.9041 25.3413 88.2035 23.7503 87.8175 24.123ZM76.6795 29.7847C75.8788 29.7847 75.1353 28.681 75.1353 27.5057C75.1353 26.359 75.65 25.3557 76.2648 25.241C76.3649 24.8253 76.4078 24.4957 76.4078 24.1087C76.4078 23.091 76.0361 22.3743 75.3498 22.0447C75.3069 22.0303 75.2926 22.0017 75.2783 21.9587C75.264 21.9157 75.2783 21.8727 75.2926 21.844C75.5499 21.4283 75.9503 20.9267 76.4364 20.9267C77.7661 20.9267 78.5668 22.4747 78.5668 25.0547C78.5668 27.6633 77.7232 29.7847 76.6795 29.7847Z" fill="#FA4F4F"/>
<path d="M102.83 26.2014C103.888 25.3414 103.445 23.4494 103.202 23.7217C101.944 25.1264 100.414 25.9577 99.0557 25.9577C98.5696 25.9577 98.0405 25.7857 97.5544 25.4704C97.5115 25.4417 97.4829 25.3844 97.4972 25.327C97.5544 24.9257 97.583 24.5244 97.583 24.123C97.583 20.7834 95.7815 18.619 92.9934 18.619C90.8201 18.619 89.3046 19.7944 89.0472 21.6864C89.0329 21.758 88.99 21.801 88.9185 21.8154C88.0893 21.9014 87.3744 22.317 86.8596 23.0194C86.3449 23.736 86.059 24.7107 86.059 25.8287C86.059 27.176 86.5308 28.5234 87.3458 29.5267C88.0321 30.3724 89.2903 31.3614 91.4207 31.3614H91.5207C93.9085 31.3327 95.8673 29.928 96.8824 27.4914C96.8967 27.4484 96.9253 27.434 96.9682 27.4197C96.9825 27.4197 96.9968 27.4054 97.0254 27.4054C97.0397 27.4054 97.0683 27.4054 97.0826 27.4197C97.6259 27.6777 98.2407 27.821 98.8555 27.821C100.128 27.8067 101.572 27.219 102.83 26.2014ZM91.678 29.7847C90.8773 29.7847 90.1338 28.681 90.1338 27.5057C90.1338 26.359 90.6486 25.3557 91.2634 25.241C91.3635 24.8254 91.4063 24.4957 91.4063 24.1087C91.4063 23.091 91.0346 22.3744 90.3483 22.0447C90.3054 22.0304 90.2911 22.0017 90.2768 21.9587C90.2625 21.9157 90.2768 21.8727 90.2911 21.844C90.5485 21.4284 90.9488 20.9267 91.4349 20.9267C92.7646 20.9267 93.5653 22.4747 93.5653 25.0547C93.5653 27.6634 92.7218 29.7847 91.678 29.7847Z" fill="#FA4F4F"/>
<path d="M119.544 31.261C122.804 31.261 125.75 29.1827 127.694 27.1617C128.166 26.6743 126.779 25.4703 126.508 25.7713C125.993 26.3303 125.45 26.8463 124.892 27.3193C123.434 28.5377 122.118 29.2113 121.16 29.2113C120.331 29.2113 119.902 28.4087 119.902 26.8463C119.902 26.1727 119.959 25.3843 120.016 24.639C120.074 23.8793 120.131 23.091 120.131 22.403C120.131 20.7833 119.144 19.7657 117.557 19.7657C115.241 19.7657 113.825 22.231 112.753 24.6533C112.724 24.7107 112.681 24.7393 112.624 24.7393H112.596C112.524 24.725 112.481 24.6677 112.481 24.596C112.61 22.4747 112.253 20.7403 111.523 19.9663C111.237 19.6653 110.909 19.5077 110.523 19.5077C107.892 19.5077 106.748 22.1163 105.161 25.7283C104.946 26.2157 104.732 26.7173 104.489 27.2333C104.46 27.2907 104.417 27.3193 104.36 27.3193H104.317C104.246 27.305 104.203 27.2333 104.217 27.1617C104.231 27.0613 104.246 26.9467 104.26 26.832C104.417 25.7713 104.646 24.166 104.646 22.6467C104.646 20.2243 104.06 18.9917 102.887 18.9917C102.144 18.9917 101.272 19.3357 100.8 19.823C101.601 22.2597 101.3 25.026 100.986 27.95C100.914 28.6237 100.843 29.326 100.771 30.014C101.272 30.6017 102.244 31.003 103.131 31.003C105.59 31.003 107.62 26.4593 108.692 24.0227C109.05 23.22 109.307 22.6467 109.493 22.3887C109.522 22.3457 109.565 22.3313 109.607 22.3313C109.622 22.3313 109.65 22.3313 109.665 22.3457C109.722 22.3743 109.765 22.446 109.736 22.5177C109.722 22.5893 109.736 22.7757 109.765 22.9907C109.793 23.2773 109.836 23.6643 109.836 24.1373C109.836 26.316 109.45 28.3513 109.307 29.1253C109.293 29.1827 109.293 29.2257 109.279 29.2687C109.722 29.9853 110.537 30.444 111.38 30.444C112.596 30.444 113.482 29.3117 114.669 26.2587C115.384 24.4527 115.827 23.4207 116.084 22.9907C116.113 22.9477 116.156 22.919 116.213 22.919H116.256C116.313 22.9333 116.356 22.9907 116.356 23.0623C116.356 23.607 116.285 24.209 116.213 24.854C116.113 25.6567 116.013 26.5597 116.013 27.563C116.013 28.767 116.313 29.6987 116.914 30.3293C117.543 30.9313 118.415 31.261 119.544 31.261Z" fill="#4D8BF4"/>
<path d="M125.707 29.3403C126.965 30.5587 128.738 31.2323 130.697 31.2323C131.926 31.2323 133.199 30.8453 134.5 30.0713C135.601 29.412 136.673 28.509 137.703 27.3767C138.318 26.703 138.861 26.0007 139.304 25.3557C140.191 24.0513 138.318 22.9333 137.946 23.4923C137.131 24.7537 136.23 25.8573 135.315 26.7173C133.957 27.993 132.641 28.681 131.498 28.681C130.482 28.681 129.61 28.1507 128.981 27.1473C128.938 27.0757 128.952 27.004 129.024 26.9467C131.426 25.2697 132.641 23.4063 132.641 21.3853C132.641 19.0777 131.355 17.7017 129.196 17.7017C126.136 17.7017 123.734 20.683 123.734 24.4957C123.748 26.402 124.449 28.122 125.707 29.3403ZM129.396 20.0523C129.767 20.0523 130.039 20.5683 130.039 21.285C130.039 22.489 129.51 23.607 128.395 24.811C128.366 24.8397 128.323 24.854 128.295 24.854H128.252C128.195 24.8397 128.166 24.7967 128.152 24.7393C128.066 24.3093 128.037 23.7933 128.037 23.1627C128.023 21.6147 128.709 20.0523 129.396 20.0523Z" fill="#4D8BF4"/>
<path d="M141.606 17.7017C138.546 17.7017 136.144 20.683 136.144 24.4957C136.144 26.3877 136.845 28.1077 138.103 29.3403C139.361 30.5587 141.134 31.2323 143.093 31.2323C144.323 31.2323 145.595 30.8453 146.896 30.0713C147.997 29.412 149.07 28.509 150.099 27.3767C151.086 26.2873 151.886 25.1693 152.401 24.252C152.859 23.4493 150.986 22.4603 150.771 22.8043C149.842 24.3667 148.798 25.6997 147.711 26.7173C146.353 27.993 145.038 28.681 143.894 28.681C142.879 28.681 142.007 28.1507 141.377 27.1473C141.335 27.0757 141.349 27.004 141.42 26.9467C143.822 25.2697 145.038 23.4063 145.038 21.3853C145.052 19.092 143.765 17.7017 141.606 17.7017ZM140.777 24.7967C140.748 24.8253 140.705 24.8397 140.677 24.8397H140.634C140.577 24.8253 140.548 24.7823 140.534 24.725C140.448 24.295 140.419 23.779 140.419 23.1483C140.419 21.6147 141.106 20.0523 141.792 20.0523C142.164 20.0523 142.435 20.5683 142.435 21.285C142.421 22.489 141.906 23.607 140.777 24.7967Z" fill="#4D8BF4"/>
<path d="M154.574 31.476C158.335 31.476 160.822 28.8673 160.822 27.821C160.822 27.348 160.422 26.9753 159.793 26.8607C158.349 28.5233 156.776 29.4837 155.475 29.4837C154.603 29.4837 153.116 28.724 153.116 25.886C153.116 23.2773 153.573 21.0557 153.988 19.178C154.002 19.1207 154.06 19.0633 154.131 19.0633C157.248 19.006 158.177 18.791 158.435 18.0457C158.606 17.5727 158.692 17.3147 158.749 17.0137H154.689C154.646 17.0137 154.603 16.9993 154.574 16.9563C154.546 16.9133 154.531 16.8703 154.546 16.8417C154.86 15.4943 155.075 14.362 155.075 13.244C155.075 11.094 154.203 10.707 151.772 10.707C151.557 10.707 151.329 10.707 151.071 10.7213C151.086 12.6133 150.728 14.6773 150.342 16.7843C150.328 16.856 150.271 16.899 150.199 16.899H150.185C149.07 16.813 148.169 16.6697 147.483 16.4833C147.282 17.0137 147.182 17.4293 147.182 17.802C147.182 18.5903 147.668 19.0347 148.555 19.0347H149.785C149.827 19.0347 149.87 19.049 149.899 19.092C149.928 19.1207 149.942 19.1637 149.927 19.2067C149.684 20.726 149.398 22.7183 149.398 24.6533C149.398 26.832 149.856 28.5233 150.742 29.713C151.643 30.874 152.93 31.476 154.574 31.476Z" fill="#4D8BF4"/>
</svg>
