<svg width="16" height="16" viewBox="0 0 16 16" fill="none" xmlns="http://www.w3.org/2000/svg">
    <path d="M6.00004 4.66667V7.29867C4.86571 7.104 4.00004 6.11333 4.00004 4.92433V4.66667H6.00004ZM6.66671 4H3.33337V4.92433C3.33337 5.74005 3.65742 6.52236 4.23422 7.09916C4.81102 7.67596 5.59332 8 6.40904 8H6.66671V4ZM12 4.66667V4.92433C12 6.11333 11.1344 7.10367 10 7.29867V4.66667H12ZM12.6667 4H9.33337V8H9.59104C10.4068 8 11.1891 7.67596 11.7659 7.09916C12.3427 6.52236 12.6667 5.74005 12.6667 4.92433V4ZM9.33337 12.6667H6.66671L7.33337 8.33333H8.66671L9.33337 12.6667Z" fill="#FF8B00" />
    <path d="M5.33337 13.6667C5.33337 13.1144 5.78109 12.6667 6.33337 12.6667H9.66671C10.219 12.6667 10.6667 13.1144 10.6667 13.6667V14.3334C10.6667 14.8856 10.219 15.3334 9.66671 15.3334H6.33338C5.78109 15.3334 5.33337 14.8856 5.33337 14.3334V13.6667Z" fill="#FFC200" />
    <path d="M7.99996 10.6667C6.15896 10.6667 4.66663 9.17433 4.66663 7.33333V2.66666H11.3333V7.33333C11.3333 9.17433 9.84096 10.6667 7.99996 10.6667ZM7.99996 0.654327L8.21329 1.08666L8.69029 1.15599L8.34496 1.49233L8.42662 1.96733L7.99996 1.74299L7.57329 1.96733L7.65496 1.49233L7.30963 1.15599L7.78663 1.08666L7.99996 0.654327ZM6.18163 1.33333L6.33863 1.65166L6.69029 1.70266L6.43596 1.95066L6.49596 2.30066L6.18163 2.13533L5.86729 2.30066L5.92729 1.95066L5.67296 1.70266L6.02429 1.65166L6.18163 1.33333ZM9.84829 1.33333L10.0053 1.65166L10.357 1.70266L10.1026 1.95066L10.1626 2.30066L9.84829 2.13533L9.53396 2.30066L9.59396 1.95066L9.33962 1.70266L9.69096 1.65166L9.84829 1.33333Z" fill="#FFC200" />
</svg>
