<svg width="161" height="40" viewBox="0 0 161 40" fill="none" xmlns="http://www.w3.org/2000/svg">
<path d="M9.63825 10.0417L2.65912 17.0191C2.4377 17.2408 2.31332 17.5414 2.31332 17.8547C2.31332 18.1681 2.4377 18.4686 2.65912 18.6904L19.1635 35.1947C19.3852 35.4161 19.6858 35.5405 19.9991 35.5405C20.3125 35.5405 20.613 35.4161 20.8348 35.1947L37.3391 18.6904C37.5606 18.4686 37.6849 18.1681 37.6849 17.8547C37.6849 17.5414 37.5606 17.2408 37.3391 17.0191L30.3617 10.0417C30.252 9.93156 30.1216 9.84416 29.9781 9.78448C29.8346 9.7248 29.6807 9.694 29.5252 9.69385H10.473C10.1597 9.69462 9.85944 9.81971 9.63825 10.0417Z" fill="#00CC6A"/>
<path d="M51.4756 18.8965C50.9072 18.8965 50.4619 19.0781 50.1396 19.4414C49.8174 19.7988 49.6328 20.3086 49.5859 20.9707H53.3477C53.3359 20.3086 53.1631 19.7988 52.8291 19.4414C52.4951 19.0781 52.0439 18.8965 51.4756 18.8965ZM51.8535 27.1758C50.2715 27.1758 49.0352 26.7393 48.1445 25.8662C47.2539 24.9932 46.8086 23.7568 46.8086 22.1572C46.8086 20.5107 47.2188 19.2393 48.0391 18.3428C48.8652 17.4404 50.0049 16.9893 51.458 16.9893C52.8467 16.9893 53.9277 17.3848 54.7012 18.1758C55.4746 18.9668 55.8613 20.0596 55.8613 21.4541V22.7549H49.5244C49.5537 23.5166 49.7793 24.1113 50.2012 24.5391C50.623 24.9668 51.2148 25.1807 51.9766 25.1807C52.5684 25.1807 53.1279 25.1191 53.6553 24.9961C54.1826 24.873 54.7334 24.6768 55.3076 24.4072V26.4814C54.8389 26.7158 54.3379 26.8887 53.8047 27C53.2715 27.1172 52.6211 27.1758 51.8535 27.1758ZM66.8389 27H64.1582V21.2607C64.1582 20.5518 64.0381 20.0215 63.7979 19.6699C63.5635 19.3125 63.1914 19.1338 62.6816 19.1338C61.9961 19.1338 61.498 19.3857 61.1875 19.8896C60.877 20.3936 60.7217 21.2227 60.7217 22.377V27H58.041V17.1738H60.0889L60.4492 18.4307H60.5986C60.8623 17.9795 61.2432 17.6279 61.7412 17.376C62.2393 17.1182 62.8105 16.9893 63.4551 16.9893C64.9258 16.9893 65.9219 17.4697 66.4434 18.4307H66.6807C66.9443 17.9736 67.3311 17.6191 67.8408 17.3672C68.3564 17.1152 68.9365 16.9893 69.5811 16.9893C70.6943 16.9893 71.5352 17.2764 72.1035 17.8506C72.6777 18.4189 72.9648 19.333 72.9648 20.5928V27H70.2754V21.2607C70.2754 20.5518 70.1553 20.0215 69.915 19.6699C69.6807 19.3125 69.3086 19.1338 68.7988 19.1338C68.1426 19.1338 67.6504 19.3682 67.3223 19.8369C67 20.3057 66.8389 21.0498 66.8389 22.0693V27ZM79.7939 18.8965C79.2256 18.8965 78.7803 19.0781 78.458 19.4414C78.1357 19.7988 77.9512 20.3086 77.9043 20.9707H81.666C81.6543 20.3086 81.4814 19.7988 81.1475 19.4414C80.8135 19.0781 80.3623 18.8965 79.7939 18.8965ZM80.1719 27.1758C78.5898 27.1758 77.3535 26.7393 76.4629 25.8662C75.5723 24.9932 75.127 23.7568 75.127 22.1572C75.127 20.5107 75.5371 19.2393 76.3574 18.3428C77.1836 17.4404 78.3232 16.9893 79.7764 16.9893C81.165 16.9893 82.2461 17.3848 83.0195 18.1758C83.793 18.9668 84.1797 20.0596 84.1797 21.4541V22.7549H77.8428C77.8721 23.5166 78.0977 24.1113 78.5195 24.5391C78.9414 24.9668 79.5332 25.1807 80.2949 25.1807C80.8867 25.1807 81.4463 25.1191 81.9736 24.9961C82.501 24.873 83.0518 24.6768 83.626 24.4072V26.4814C83.1572 26.7158 82.6562 26.8887 82.123 27C81.5898 27.1172 80.9395 27.1758 80.1719 27.1758ZM91.8438 16.9893C92.207 16.9893 92.5088 17.0156 92.749 17.0684L92.5469 19.582C92.3301 19.5234 92.0664 19.4941 91.7559 19.4941C90.9004 19.4941 90.2324 19.7139 89.752 20.1533C89.2773 20.5928 89.04 21.208 89.04 21.999V27H86.3594V17.1738H88.3896L88.7852 18.8262H88.917C89.2217 18.2754 89.6318 17.833 90.1475 17.499C90.6689 17.1592 91.2344 16.9893 91.8438 16.9893ZM100.773 27L100.255 25.6641H100.185C99.7334 26.2324 99.2676 26.6279 98.7871 26.8506C98.3125 27.0674 97.6914 27.1758 96.9238 27.1758C95.9805 27.1758 95.2363 26.9062 94.6914 26.3672C94.1523 25.8281 93.8828 25.0605 93.8828 24.0645C93.8828 23.0215 94.2461 22.2539 94.9727 21.7617C95.7051 21.2637 96.8066 20.9883 98.2773 20.9355L99.9824 20.8828V20.4521C99.9824 19.4561 99.4727 18.958 98.4531 18.958C97.668 18.958 96.7451 19.1953 95.6846 19.6699L94.7969 17.8594C95.9277 17.2676 97.1816 16.9717 98.5586 16.9717C99.877 16.9717 100.888 17.2588 101.591 17.833C102.294 18.4072 102.646 19.2803 102.646 20.4521V27H100.773ZM99.9824 22.4473L98.9453 22.4824C98.166 22.5059 97.5859 22.6465 97.2051 22.9043C96.8242 23.1621 96.6338 23.5547 96.6338 24.082C96.6338 24.8379 97.0674 25.2158 97.9346 25.2158C98.5557 25.2158 99.0508 25.0371 99.4199 24.6797C99.7949 24.3223 99.9824 23.8477 99.9824 23.2559V22.4473ZM108.095 27H105.414V13.3242H108.095V27ZM114.027 27.1758C112.873 27.1758 111.965 26.7275 111.303 25.8311C110.646 24.9346 110.318 23.6924 110.318 22.1045C110.318 20.4932 110.652 19.2393 111.32 18.3428C111.994 17.4404 112.92 16.9893 114.098 16.9893C115.334 16.9893 116.277 17.4697 116.928 18.4307H117.016C116.881 17.6982 116.813 17.0449 116.813 16.4707V13.3242H119.503V27H117.446L116.928 25.7256H116.813C116.204 26.6924 115.275 27.1758 114.027 27.1758ZM114.968 25.04C115.653 25.04 116.154 24.8408 116.471 24.4424C116.793 24.0439 116.969 23.3672 116.998 22.4121V22.1221C116.998 21.0674 116.834 20.3115 116.506 19.8545C116.184 19.3975 115.656 19.1689 114.924 19.1689C114.326 19.1689 113.86 19.4238 113.526 19.9336C113.198 20.4375 113.034 21.1729 113.034 22.1396C113.034 23.1064 113.201 23.833 113.535 24.3193C113.869 24.7998 114.347 25.04 114.968 25.04ZM126.297 27.1758C123.238 27.1758 121.709 25.4971 121.709 22.1396C121.709 20.4697 122.125 19.1953 122.957 18.3164C123.789 17.4316 124.981 16.9893 126.534 16.9893C127.671 16.9893 128.69 17.2119 129.593 17.6572L128.802 19.7314C128.38 19.5615 127.987 19.4238 127.624 19.3184C127.261 19.207 126.897 19.1514 126.534 19.1514C125.14 19.1514 124.442 20.1416 124.442 22.1221C124.442 24.0439 125.14 25.0049 126.534 25.0049C127.05 25.0049 127.527 24.9375 127.967 24.8027C128.406 24.6621 128.846 24.4453 129.285 24.1523V26.4463C128.852 26.7217 128.412 26.9121 127.967 27.0176C127.527 27.123 126.971 27.1758 126.297 27.1758ZM140.641 27H137.96V21.2607C137.96 19.8428 137.433 19.1338 136.378 19.1338C135.628 19.1338 135.086 19.3887 134.752 19.8984C134.418 20.4082 134.251 21.2344 134.251 22.377V27H131.57V13.3242H134.251V16.1104C134.251 16.3271 134.23 16.8369 134.189 17.6396L134.128 18.4307H134.269C134.866 17.4697 135.815 16.9893 137.116 16.9893C138.271 16.9893 139.146 17.2998 139.744 17.9209C140.342 18.542 140.641 19.4326 140.641 20.5928V27ZM149.641 27L149.122 25.6641H149.052C148.601 26.2324 148.135 26.6279 147.654 26.8506C147.18 27.0674 146.559 27.1758 145.791 27.1758C144.848 27.1758 144.104 26.9062 143.559 26.3672C143.02 25.8281 142.75 25.0605 142.75 24.0645C142.75 23.0215 143.113 22.2539 143.84 21.7617C144.572 21.2637 145.674 20.9883 147.145 20.9355L148.85 20.8828V20.4521C148.85 19.4561 148.34 18.958 147.32 18.958C146.535 18.958 145.612 19.1953 144.552 19.6699L143.664 17.8594C144.795 17.2676 146.049 16.9717 147.426 16.9717C148.744 16.9717 149.755 17.2588 150.458 17.833C151.161 18.4072 151.513 19.2803 151.513 20.4521V27H149.641ZM148.85 22.4473L147.812 22.4824C147.033 22.5059 146.453 22.6465 146.072 22.9043C145.691 23.1621 145.501 23.5547 145.501 24.082C145.501 24.8379 145.935 25.2158 146.802 25.2158C147.423 25.2158 147.918 25.0371 148.287 24.6797C148.662 24.3223 148.85 23.8477 148.85 23.2559V22.4473ZM158.421 25.04C158.89 25.04 159.452 24.9375 160.108 24.7324V26.7275C159.44 27.0264 158.62 27.1758 157.647 27.1758C156.575 27.1758 155.793 26.9062 155.301 26.3672C154.814 25.8223 154.571 25.0078 154.571 23.9238V19.1865H153.288V18.0527L154.765 17.1562L155.538 15.082H157.252V17.1738H160.003V19.1865H157.252V23.9238C157.252 24.3047 157.357 24.5859 157.568 24.7676C157.785 24.9492 158.069 25.04 158.421 25.04Z" fill="black"/>
</svg>
