<svg width="177" height="32" viewBox="0 0 177 32" fill="none" xmlns="http://www.w3.org/2000/svg">
<g clip-path="url(#clip0)">
<path d="M43.3399 1.87055C42.0878 -1.09826 38.5377 -0.406206 38.5126 3.03902C38.5126 4.92963 40.2022 5.63673 41.3386 6.39398C42.1942 6.91789 42.8898 7.66536 43.3499 8.5554C43.4555 8.13916 44.3254 7.1061 45.3613 6.37392C46.4776 5.57154 48.2024 4.90957 48.1873 3.01896C48.142 -0.431281 44.5316 -0.977903 43.3399 1.87055Z" fill="#FA4F4F"/>
<path d="M0 11.7098H12.3749V14.6385H3.14778V19.6534H10.9066V22.5821H3.14778V30.5407H0V11.7098Z" fill="#2B3D5A"/>
<path d="M20.7673 11.7098H23.9151V27.612H32.5137V30.5407H20.7673V11.7098Z" fill="#2B3D5A"/>
<path d="M53.0698 11.7098H56.469L64.605 25.1045V11.7098H67.7528V30.5407H64.5698L56.2176 16.7698V30.5407H53.0698V11.7098Z" fill="#2B3D5A"/>
<path d="M76.3514 26.9651V15.496C76.3514 14.4918 76.7514 13.5288 77.4633 12.8187C78.1753 12.1087 79.1409 11.7098 80.1478 11.7098H86.4032C86.9015 11.7098 87.3949 11.8077 87.8552 11.9981C88.3156 12.1884 88.7338 12.4674 89.0859 12.819C89.438 13.1707 89.7172 13.5881 89.9074 14.0475C90.0977 14.5068 90.1953 14.999 90.1946 15.496V17.7778H87.0518V15.6414C87.0518 14.9093 86.7753 14.6385 86.0009 14.6385H80.5501C79.7757 14.6385 79.4992 14.9093 79.4992 15.6414V26.609C79.4992 27.3412 79.7757 27.612 80.5501 27.612H85.9858C86.7602 27.612 87.0368 27.3412 87.0368 26.609V23.2189H82.838V20.5009H90.1795V26.9651C90.1802 27.462 90.0826 27.9543 89.8923 28.4136C89.7021 28.873 89.4229 29.2904 89.0708 29.642C88.7187 29.9937 88.3005 30.2727 87.8402 30.463C87.3798 30.6533 86.8864 30.7513 86.3881 30.7513H80.1478C79.1409 30.7513 78.1753 30.3524 77.4633 29.6423C76.7514 28.9323 76.3514 27.9692 76.3514 26.9651Z" fill="#2B3D5A"/>
<path d="M98.587 26.9651V24.6833H101.941V26.7845C101.941 27.5468 102.228 27.8226 102.997 27.8226H107.864C108.594 27.8226 108.87 27.5518 108.87 26.8196V24.5228C108.87 23.6603 108.518 23.3895 107.628 23.1989L102.484 22.0655C100.211 21.564 98.587 20.7366 98.587 18.169V15.496C98.587 14.4918 98.987 13.5288 99.6989 12.8187C100.411 12.1087 101.377 11.7098 102.383 11.7098H108.01C109.016 11.7111 109.981 12.1106 110.691 12.8205C111.402 13.5304 111.802 14.4927 111.802 15.496V17.5521H108.654V15.6465C108.654 15.3805 108.548 15.1253 108.359 14.9373C108.171 14.7492 107.915 14.6435 107.648 14.6435H102.786C102.652 14.6401 102.518 14.6636 102.393 14.7125C102.268 14.7614 102.154 14.8348 102.058 14.9282C101.962 15.0217 101.886 15.1334 101.834 15.2568C101.782 15.3801 101.755 15.5126 101.755 15.6465V17.6524C101.755 18.52 102.112 18.7858 103.052 19.0064L108.267 20.1147C110.615 20.6162 112.244 21.4387 112.244 24.0063V26.95C112.244 27.9542 111.844 28.9172 111.132 29.6273C110.42 30.3374 109.455 30.7363 108.448 30.7363H102.414C101.914 30.7402 101.418 30.6457 100.955 30.4582C100.492 30.2706 100.07 29.9937 99.7149 29.6433C99.3594 29.2929 99.0767 28.876 98.8832 28.4164C98.6896 27.9568 98.5889 27.4636 98.587 26.9651Z" fill="#2B3D5A"/>
<path d="M125.207 14.6385H119.772V11.7098H133.826V14.6385H128.581V30.5407H125.207V14.6385Z" fill="#2B3D5A"/>
<path d="M142.219 11.7098H154.593V14.6385H145.361V19.4528H152.904V22.3815H145.361V27.612H154.593V30.5407H142.219V11.7098Z" fill="#2B3D5A"/>
<path d="M177 30.7513H173.535L170.016 23.6352H166.134V30.7513H162.991V11.6948H172.62C173.626 11.6961 174.591 12.0956 175.301 12.8055C176.012 13.5154 176.412 14.4777 176.412 15.481V19.7487C176.412 22.0304 175.471 23.2591 173.48 23.4998L177 30.7513ZM172.062 20.7216C172.786 20.7216 173.068 20.4508 173.068 19.6885V15.6766C173.068 15.4106 172.962 15.1555 172.773 14.9674C172.585 14.7793 172.329 14.6736 172.062 14.6736H166.129V20.7416L172.062 20.7216Z" fill="#2B3D5A"/>
<path d="M46.5983 17.2814C46.6225 17.2295 46.6351 17.1731 46.6351 17.1159C46.6351 17.0587 46.6225 17.0022 46.5983 16.9504C46.5783 16.8905 46.5408 16.838 46.4906 16.7995C46.4404 16.7611 46.3798 16.7385 46.3167 16.7347H44.5165L46.025 12.2213C46.0322 12.1748 46.0322 12.1275 46.025 12.0809C46.0337 11.9962 46.0093 11.9113 45.9568 11.8441C45.9044 11.7768 45.828 11.7323 45.7434 11.7198H41.2179C41.1568 11.7252 41.0988 11.7492 41.052 11.7887C41.0052 11.8283 40.9718 11.8813 40.9564 11.9405L38.7188 18.52C38.7008 18.5959 38.7008 18.6749 38.7188 18.7507C38.7255 18.8243 38.7579 18.8931 38.8102 18.9453C38.8626 18.9976 38.9316 19.0298 39.0054 19.0366H40.8508L38.7188 25.8468C38.6982 25.8952 38.6875 25.9472 38.6875 25.9997C38.6875 26.0523 38.6982 26.1043 38.7188 26.1527C38.7405 26.2088 38.7783 26.2573 38.8275 26.2921C38.8767 26.3268 38.9351 26.3464 38.9953 26.3483H41.5347V31.6139C41.5273 31.6925 41.5459 31.7713 41.5876 31.8383C41.6294 31.9053 41.6921 31.9569 41.766 31.985C41.8327 31.9936 41.9003 31.9781 41.9566 31.9414C42.0128 31.9046 42.054 31.8489 42.0727 31.7844L44.9339 24.4627H44.8836C44.8956 24.435 44.9018 24.4051 44.9018 24.3749C44.9018 24.3447 44.8956 24.3149 44.8836 24.2872C44.8333 24.1518 44.6121 24.0464 44.6121 24.0464H43.4253L46.5983 17.2763V17.2814Z" fill="#FA4F4F"/>
</g>
<defs>
<clipPath id="clip0">
<rect width="177" height="32" fill="white"/>
</clipPath>
</defs>
</svg>
