<svg width="168" height="49" viewBox="0 0 168 49" fill="none" xmlns="http://www.w3.org/2000/svg">
<path d="M78.2987 17.4138C72.0162 17.4138 68.4134 21.6602 68.4134 29.0645C68.4134 36.3746 71.5985 40.0812 77.881 40.0812C84.1428 40.0812 87.7342 35.9042 87.7342 28.6205C87.7342 21.2886 84.4711 17.4138 78.2987 17.4138ZM78.3307 36.4138C74.8646 36.4138 73.319 34.0399 73.319 28.7155C73.319 23.578 74.8012 21.0805 77.8489 21.0805C81.2677 21.0805 82.8606 23.5773 82.8606 28.9371C82.8599 33.9683 81.3784 36.4138 78.3307 36.4138Z" fill="#E05E36"/>
<path d="M108.826 23.1136C106.708 23.1136 104.95 23.9911 103.797 25.6021C103.014 23.9497 101.674 23.1136 99.805 23.1136C97.5507 23.1136 95.6943 24.1426 94.5748 25.9737C94.0594 24.304 93.185 23.425 93.1407 23.382L92.9628 23.2064L89.3386 24.6394L89.6967 25.0397C89.7112 25.0563 91.1721 26.7487 91.1721 31.5341V39.8912H95.5966V31.6608C95.5966 28.5466 97.1811 26.6861 98.7137 26.6861C99.4033 26.6861 100.194 26.9703 100.194 29.1912V39.8912H104.586V31.0908C104.586 28.2549 106.449 26.6861 107.735 26.6861C108.425 26.6861 109.215 26.9703 109.215 29.1912V39.8912H113.607V28.9379C113.606 25.0186 112.043 23.1136 108.826 23.1136Z" fill="#E05E36"/>
<path d="M128.515 35.6826C128.489 35.6931 125.868 36.7621 124.102 36.7621C122.28 36.7621 121.303 35.8839 120.976 33.9276C126.309 33.7407 130.135 31.2289 130.135 27.8607C130.135 24.7631 128.041 22.9871 124.392 22.9871C119.459 22.9871 116.272 26.5286 116.272 32.0091C116.272 37.3101 118.802 40.1129 123.589 40.1129C126.888 40.1129 129.686 38.6738 129.804 38.6128L130.114 38.4515L128.866 35.5394L128.515 35.6826ZM124.102 26.2113C125.094 26.2113 125.711 26.843 125.711 27.8607C125.711 29.2191 124.201 30.6476 120.84 30.8813C120.961 28.6613 121.649 26.2113 124.102 26.2113Z" fill="#E05E36"/>
<path d="M136.107 34.7041C134.419 34.7041 133.285 35.8349 133.285 37.519C133.285 39.1209 134.406 40.2388 136.011 40.2388C137.679 40.2388 138.801 39.1201 138.801 37.4556C138.801 35.7844 137.743 34.7041 136.107 34.7041Z" fill="#42A77E"/>
<path d="M150.564 36.0452L150.17 36.1809C150.158 36.1854 148.934 36.603 147.792 36.603C147.018 36.603 146.73 36.3535 146.73 35.6818V26.6854H150.168L150.75 23.3662H146.73V18.9027L142.996 19.7252L142.365 23.3662H139.416V26.6854H142.306V36.0934C142.306 38.6233 143.901 40.0172 146.798 40.0172C148.094 40.0172 151.289 39.5769 151.289 38.912L150.564 36.0452Z" fill="#42A77E"/>
<path d="M163.03 23.3655L161.023 31.0517C160.642 32.5956 160.382 33.9125 160.157 35.1059L160.145 35.1692H159.921L159.91 35.1044C159.677 33.7211 159.383 32.3958 159.013 31.0524L156.909 23.3655H151.777L157.439 39.8913H162.211L168 23.3655H163.03Z" fill="#42A77E"/>
<path d="M53.4141 12.0864C52.3725 11.0642 51.0949 10.5373 49.6127 10.5373H31.2709L39.2608 2.69726C39.5724 2.39195 39.7335 2.01202 39.7335 1.58006C39.7335 1.14811 39.5716 0.768923 39.2601 0.463615C38.9493 0.158308 38.5621 0 38.1223 0C37.6824 0 37.2952 0.158308 36.9837 0.463615L27.3832 9.88443L22.0783 4.67912C21.7667 4.37382 21.3803 4.21551 20.9397 4.21551C20.4991 4.21551 20.1127 4.37382 19.8011 4.67912C19.4895 4.98443 19.3284 5.36437 19.3284 5.79632C19.3284 6.22828 19.4895 6.60746 19.8011 6.91352L23.4956 10.5388H5.36913C3.88691 10.5388 2.62004 11.0552 1.57844 12.0879C0.536836 13.1192 0 14.3525 0 15.8066V41.6236C0 43.0778 0.526145 44.3209 1.56775 45.3536C2.60935 46.3864 3.88691 46.8922 5.36913 46.8922H7.1064C7.1064 47.472 7.31029 47.9672 7.72953 48.3781C8.148 48.7889 8.65276 49 9.25451 49C9.8448 49 10.3496 48.7995 10.7795 48.3781C11.198 47.9672 11.4026 47.472 11.4026 46.8922H43.5158C43.5158 47.472 43.7197 47.9672 44.1496 48.3781C44.5673 48.7889 45.0721 49 45.6632 49C46.2542 49 46.7582 48.7995 47.1775 48.3781C47.6074 47.9672 47.8113 47.472 47.8113 46.8922H49.6135C51.0957 46.8922 52.3625 46.3759 53.4148 45.3536C54.4664 44.3322 54.9818 43.0778 54.9818 41.6236V15.8066C54.9818 14.3525 54.4557 13.1086 53.4141 12.0864Z" fill="#E05E36"/>
<path d="M42.4391 13.441C42.0954 13.3317 41.7304 13.2556 41.3219 13.2013C40.9141 13.1576 40.6346 13.1252 40.4842 13.1138C37.8534 12.9178 34.4278 12.7867 30.2285 12.7L24.6884 12.6344C23.1099 12.6344 21.2734 12.6563 19.1688 12.7C14.9589 12.7761 11.5446 12.9178 8.91316 13.1138C8.56952 13.1463 8.29003 13.1681 8.06476 13.2013C7.66767 13.2556 7.29196 13.3317 6.95901 13.441C5.98156 13.735 5.12247 14.2687 4.39243 15.0535C3.82352 15.6309 3.36152 16.5567 2.98581 17.8427C2.8033 18.4858 2.67425 19.0632 2.59941 19.5969L2.37337 21.9067C2.22294 23.7589 2.1481 25.4581 2.1481 26.9944V30.4591C2.1481 32.006 2.22294 33.6946 2.37337 35.5362C2.44821 36.462 2.52381 37.2362 2.59865 37.8566L2.68494 38.3684C2.77123 38.7936 2.87814 39.1962 2.9965 39.5995C3.37221 40.8848 3.83421 41.8113 4.40312 42.3887C5.12247 43.1516 6.03501 43.6853 7.15221 43.9793C7.75396 44.1316 8.49468 44.2515 9.37516 44.3389C10.8788 44.4806 13.8852 44.6005 18.3952 44.6985C20.6502 44.7528 22.7548 44.7859 24.7097 44.8078L30.24 44.7422C34.4499 44.6661 37.8748 44.5243 40.5063 44.3283C40.6568 44.3065 40.9362 44.2741 41.344 44.2304C41.7411 44.1761 42.1176 44.0999 42.4612 44.0012C43.4387 43.7072 44.2978 43.1735 45.0278 42.3887C45.586 41.8113 46.0587 40.8855 46.4344 39.5995C46.5421 39.1962 46.649 38.7823 46.7353 38.3684L46.8208 37.8566C46.8957 37.2354 46.9713 36.462 47.0461 35.5362C47.1965 33.6954 47.2714 31.9954 47.2714 30.4591V26.9944C47.2714 25.4581 47.1965 23.7589 47.0461 21.9067L46.8208 19.5969C46.746 19.0738 46.6169 18.4858 46.4344 17.8427C46.0587 16.5574 45.586 15.6309 45.0278 15.0535C44.2756 14.2687 43.4165 13.735 42.4391 13.441Z" fill="white"/>
<path d="M32.8707 33.5627H30.4546L28.7578 38.9889L27.0289 33.5627H24.5486L27.4588 41.1072H30.0254L32.8707 33.5627Z" fill="#42A77F"/>
<path d="M16.5694 33.5628V35.4278H18.997V41.0967H21.3696V35.4173H23.7972V33.5522H16.5694V33.5628Z" fill="#42A77F"/>
<path d="M18.0623 19.8948C17.7293 19.0309 17.2032 18.3667 16.4838 17.9031C15.7752 17.4395 14.8405 17.1968 13.7027 17.1968C12.532 17.2073 11.5767 17.4704 10.8245 17.9763C10.0724 18.4821 9.51414 19.1779 9.14912 20.084C8.7841 20.9796 8.61228 22.0123 8.61228 23.2034C8.60159 25.0051 8.9773 26.396 9.75086 27.376C10.5244 28.356 11.7699 28.8618 13.4774 28.8723C14.6267 28.8618 15.582 28.6191 16.3342 28.1245C17.0864 27.63 17.6446 26.944 18.0096 26.059C18.3746 25.174 18.5571 24.1412 18.5571 22.9607C18.5564 21.7711 18.3952 20.7489 18.0623 19.8948ZM16.1081 25.3006C15.9363 25.9225 15.6568 26.4178 15.2704 26.7865C14.884 27.1445 14.3579 27.3345 13.7027 27.3451C12.9184 27.3345 12.3174 27.134 11.899 26.7337C11.4805 26.3439 11.1903 25.817 11.0399 25.174C10.8788 24.5204 10.8039 23.8148 10.8146 23.0346C10.8146 22.2023 10.8894 21.4749 11.0506 20.8431C11.2224 20.2001 11.5019 19.6943 11.8883 19.3256C12.2747 18.957 12.8008 18.767 13.456 18.7565C14.2403 18.767 14.8413 18.9879 15.2597 19.3995C15.6782 19.7998 15.9684 20.3373 16.1188 21.0014C16.28 21.6656 16.3441 22.3817 16.3334 23.1514C16.3441 23.9625 16.2693 24.6795 16.1081 25.3006Z" fill="#E05E36"/>
<path d="M21.4666 20.5167C21.3589 20.3795 21.3055 20.3162 21.2948 20.3162L19.7484 20.9275C19.7591 20.917 19.8339 21.0331 19.9737 21.2645C20.1027 21.4861 20.2425 21.8653 20.3815 22.3923C20.5105 22.9192 20.5854 23.6248 20.6067 24.5211V28.7675H22.5609V24.5739C22.5609 23.9836 22.6579 23.4778 22.8404 23.0564C23.0229 22.6245 23.2482 22.298 23.5383 22.0764C23.8285 21.8442 24.1179 21.7289 24.4402 21.7289C24.8052 21.7394 25.0633 21.8766 25.2245 22.1397C25.3749 22.4134 25.4497 22.7933 25.439 23.2675V28.7683H27.3825V24.2791C27.3825 23.7628 27.4902 23.3097 27.6834 22.9305C27.8766 22.5513 28.1133 22.2558 28.4134 22.0455C28.6929 21.8344 28.9823 21.7402 29.2832 21.7402C29.6482 21.7507 29.9063 21.8879 30.0674 22.151C30.2179 22.4247 30.2927 22.8046 30.282 23.2788V28.7691H32.2255V23.1318C32.2362 22.2573 32.0643 21.551 31.7207 21.0346C31.3664 20.5182 30.7539 20.2446 29.8735 20.234C29.3366 20.2235 28.8212 20.3501 28.3378 20.6026C27.8544 20.8454 27.4573 21.2457 27.1351 21.8043C26.9953 21.3407 26.7487 20.972 26.4157 20.6765C26.0828 20.3923 25.6208 20.2446 25.0412 20.234C24.4509 20.2235 23.9026 20.3712 23.3871 20.6765C22.8717 20.9818 22.4639 21.4665 22.1737 22.1412C22.0989 21.7409 21.9912 21.404 21.8622 21.1296C21.6919 20.8537 21.5743 20.6539 21.4666 20.5167Z" fill="#E05E36"/>
<path d="M39.8404 27.0608C39.5716 27.1558 39.2608 27.2508 38.8844 27.3345C38.5194 27.4295 38.1543 27.4822 37.8107 27.4928C37.3594 27.4822 37.0051 27.3978 36.7477 27.2297C36.4789 27.0608 36.275 26.8294 36.146 26.5444C36.0169 26.2497 35.9421 25.9331 35.8993 25.575C36.9088 25.5644 37.7893 25.4167 38.5194 25.1325C39.2601 24.8588 39.8191 24.5 40.2162 24.047C40.6132 23.5939 40.8171 23.0881 40.8171 22.54C40.8171 22.087 40.7202 21.6761 40.5376 21.318C40.3444 20.96 40.0329 20.6644 39.6144 20.4541C39.1845 20.2747 38.637 20.1699 37.9604 20.1699C37.1761 20.1699 36.4675 20.3493 35.8558 20.6969C35.2327 21.0444 34.7386 21.5713 34.3736 22.2566C34.0192 22.9313 33.8367 23.7741 33.826 24.7857C33.826 25.618 33.9551 26.3349 34.2018 26.9462C34.4484 27.5576 34.8463 28.0423 35.3938 28.3793C35.9413 28.7163 36.65 28.8957 37.5304 28.8957C38.1207 28.8851 38.6583 28.8218 39.141 28.6952C39.6236 28.5685 40.0107 28.4426 40.3009 28.316C40.5911 28.1999 40.7415 28.126 40.7629 28.1155L40.2475 26.9033C40.2375 26.9131 40.0978 26.9658 39.8404 27.0608ZM36.0391 23.0247C36.1574 22.5822 36.3613 22.2242 36.6515 21.9392C36.9203 21.6444 37.3067 21.4861 37.8008 21.4861C38.123 21.4967 38.3804 21.5917 38.5743 21.7809C38.7675 21.9709 38.8645 22.234 38.8752 22.5709C38.8859 22.8446 38.7782 23.1084 38.5743 23.3715C38.3704 23.6452 38.0482 23.8668 37.6076 24.0568C37.1563 24.2467 36.5767 24.3621 35.8573 24.3937C35.8566 23.9203 35.9207 23.4672 36.0391 23.0247Z" fill="#E05E36"/>
<path d="M48.8605 23.9731C48.8605 24.5528 49.0644 25.0586 49.4943 25.4589C49.9128 25.8698 50.4176 26.0809 51.0086 26.0809C51.5997 26.0809 52.1144 25.8803 52.5229 25.4589C52.9414 25.0481 53.1567 24.5528 53.1567 23.9731C53.1567 23.3934 52.9528 22.8876 52.5229 22.4873C52.1044 22.0764 51.5997 21.8654 51.0086 21.8654C50.4176 21.8654 49.9029 22.0659 49.4943 22.4873C49.0652 22.8981 48.8605 23.3934 48.8605 23.9731Z" fill="white"/>
<path d="M49.4943 34.9431C49.9128 35.3539 50.4176 35.565 51.0086 35.565C51.5997 35.565 52.1144 35.3645 52.5229 34.9431C52.9414 34.5322 53.1567 34.0369 53.1567 33.4572C53.1567 32.8775 52.9528 32.3717 52.5229 31.9714C52.1044 31.5606 51.5997 31.3495 51.0086 31.3495C50.4176 31.3495 49.9029 31.55 49.4943 31.9714C49.0759 32.3823 48.8605 32.8775 48.8605 33.4572C48.8605 34.0369 49.0652 34.5428 49.4943 34.9431Z" fill="white"/>
</svg>
