<svg width="126" height="56" viewBox="0 0 126 56" fill="none" xmlns="http://www.w3.org/2000/svg">
<path d="M12.9789 6.26439C8.90526 6.26439 7.38947 8.1627 7.38947 10.061C7.38947 16.4203 25.2 13.4779 25.2 25.5322C25.2 31.4169 21.0316 35.1186 12.9789 35.1186C7.2 35.1186 2.55789 32.2712 0.663158 29.2339C0.378947 28.8542 0.28421 28.3796 0.28421 27.9051C0.28421 26.4813 1.42105 25.3424 2.8421 25.3424C3.88421 25.3424 4.54737 25.9118 5.02105 26.3864C7.10526 28.3796 9.66316 30.0881 13.0737 30.0881C17.5263 30.0881 19.7053 28.6644 19.7053 25.6271C19.7053 18.6034 1.89474 21.8305 1.89474 10.1559C1.89474 5.41015 5.4 1.3288 13.1684 1.3288C18.0947 1.3288 22.2632 3.13219 24.2526 5.88473C24.5368 6.3593 24.7263 6.83388 24.7263 7.40337C24.7263 8.8271 23.5895 9.96608 22.0737 9.96608C21.4105 9.96608 20.7474 9.58642 19.9895 8.92202C18.2842 7.40337 15.7263 6.26439 12.9789 6.26439Z" fill="#FA4F4F"/>
<path d="M33.2526 14.7119C34.2 13.2881 36.1895 11.8644 39.5053 11.8644C46.1368 11.8644 47.7474 16.0407 47.7474 20.2169V32.2712C47.7474 33.6949 46.6105 34.739 45.0947 34.739C43.5789 34.739 42.4421 33.6949 42.4421 32.2712V21.1661C42.4421 18.4136 41.3053 16.5152 38.1789 16.5152C34.4842 16.5152 33.2526 18.6034 33.2526 21.4508V32.2712C33.2526 33.6949 32.1158 34.739 30.6 34.739C29.0842 34.739 27.9474 33.6949 27.9474 32.2712V2.65762C27.9474 1.23389 29.0842 0.0949097 30.6 0.0949097C32.021 0.0949097 33.2526 1.23389 33.2526 2.65762V14.7119Z" fill="#FA4F4F"/>
<path d="M54.9474 18.3186C54.4737 18.6983 54.0947 18.7932 53.5263 18.7932C52.2947 18.7932 51.2526 17.7491 51.2526 16.5152C51.2526 15.9457 51.4421 15.3763 51.9158 14.9017C53.2421 13.383 55.7052 11.7695 59.9684 11.7695C66.0316 11.7695 69.6316 14.7118 69.6316 19.8373V32.1763C69.6316 33.6 68.4947 34.739 67.0737 34.739C65.6526 34.739 64.5158 33.6 64.5158 32.1763C63.1895 34.2644 61.0105 34.9288 58.1684 34.9288C53.4316 34.9288 50.2105 31.9864 50.2105 27.6203C50.2105 23.1593 53.9052 20.7864 58.0737 20.7864H64.421V19.9322C64.421 17.7491 62.8105 16.3254 59.9684 16.3254C57.6947 16.5152 56.1789 17.4644 54.9474 18.3186ZM64.3263 26.3864V25.0576H58.6421C56.4631 25.0576 55.3263 26.1017 55.3263 27.8101C55.3263 29.6135 56.6526 30.7525 59.4 30.7525C61.8631 30.6576 64.3263 29.044 64.3263 26.3864Z" fill="#FA4F4F"/>
<path d="M101.368 2.65762V29.0441C101.368 29.6136 101.937 29.8983 102.316 29.8983C103.642 29.8983 104.779 30.9424 104.779 32.2712C104.779 33.6 103.737 34.6441 102.316 34.6441C98.5263 34.6441 96.1579 32.5559 96.1579 28.4746V2.65762C96.1579 1.23389 97.2947 0.0949097 98.8105 0.0949097C100.326 0.0949097 101.368 1.23389 101.368 2.65762Z" fill="#FA4F4F"/>
<path d="M116.053 11.8644C124.295 11.8644 125.811 18.1288 125.811 21.4508C125.811 23.2542 125.811 25.3423 122.874 25.3423H110.842C110.842 28.8542 113.305 30.3729 116.526 30.3729C118.705 30.3729 120.221 29.6135 121.358 28.8542C121.926 28.4745 122.305 28.2847 122.968 28.2847C124.2 28.2847 125.242 29.3288 125.242 30.5627C125.242 31.322 124.863 31.9864 124.39 32.3661C123.537 33.1254 120.979 35.0237 116.526 35.0237C109.705 35.0237 105.537 31.4169 105.537 23.3491C105.537 15.9457 109.421 11.8644 116.053 11.8644ZM110.937 20.9762H120.6C120.6 18.6034 119.274 16.3254 116.053 16.3254C113.211 16.3254 111.126 17.844 110.937 20.9762Z" fill="#FA4F4F"/>
<path d="M91.7053 38.9153C89.3369 35.3085 85.9263 33.1254 82.8948 32.9356C84.6 34.2644 85.8316 36.0678 86.0211 37.8712C85.2632 37.6814 84.4105 37.5865 83.5579 37.5865C77.6842 37.5865 72.9474 41.6678 72.9474 46.6983C72.9474 51.7288 77.6842 55.8102 83.5579 55.8102C87.8211 55.8102 91.5158 53.6271 93.1263 50.4949C94.7369 47.6475 94.3579 42.9966 91.7053 38.9153ZM83.4632 51.6339C82.7053 51.6339 81.9474 51.539 81.2842 51.2543C81.379 52.2034 81.8527 53.0576 82.7053 53.817C81.0948 53.6271 79.3895 52.2983 78.3474 50.3051C77.1158 47.9322 77.1158 45.3695 78.2526 43.9458C79.2948 42.4271 81.2842 41.3831 83.4632 41.3831C86.779 41.3831 89.5263 43.661 89.5263 46.5085C89.5263 49.3559 86.779 51.6339 83.4632 51.6339Z" fill="#FA4F4F"/>
<path d="M91.2316 17.5593C91.0421 17.2746 90.8526 16.9898 90.6632 16.7051C91.5158 15.4712 91.9895 13.9526 91.9895 12.339C91.9895 11.5797 91.8947 10.8204 91.7053 10.1559C90.6632 11.9593 88.8632 13.2881 86.8737 13.7627C84.221 12.7187 81.0947 12.8136 78.4421 14.3322C77.9684 14.617 77.4947 14.9017 77.1158 15.2814C73.6105 18.1288 72.5684 23.0644 74.8421 26.9559C77.4 31.3221 83.1789 32.7458 87.7263 30.1831C92.1789 27.6204 93.7895 21.9254 91.2316 17.5593ZM85.9263 27.3356C82.8947 29.0441 79.1053 28.0949 77.4 25.2475C75.6947 22.4 76.8316 18.6983 79.7684 16.9898C82.8 15.2814 86.5895 16.2305 88.2947 19.078C90 21.9254 88.9579 25.6271 85.9263 27.3356Z" fill="#FA4F4F"/>
<path d="M81 47.078C81.4186 47.078 81.7579 46.738 81.7579 46.3186C81.7579 45.8993 81.4186 45.5593 81 45.5593C80.5814 45.5593 80.2421 45.8993 80.2421 46.3186C80.2421 46.738 80.5814 47.078 81 47.078Z" fill="#FA4F4F"/>
<path d="M83.4632 47.078C83.8817 47.078 84.221 46.738 84.221 46.3186C84.221 45.8993 83.8817 45.5593 83.4632 45.5593C83.0446 45.5593 82.7053 45.8993 82.7053 46.3186C82.7053 46.738 83.0446 47.078 83.4632 47.078Z" fill="#FA4F4F"/>
<path d="M86.0211 47.078C86.4397 47.078 86.779 46.738 86.779 46.3186C86.779 45.8993 86.4397 45.5593 86.0211 45.5593C85.6025 45.5593 85.2632 45.8993 85.2632 46.3186C85.2632 46.738 85.6025 47.078 86.0211 47.078Z" fill="#FA4F4F"/>
<path d="M80.9052 20.122C80.7158 20.0271 80.621 19.7423 80.621 19.6474C80.621 19.3627 80.9052 19.0779 81.2842 19.0779C81.3789 19.0779 81.5684 19.0779 81.6631 19.1729L85.0737 21.7356C85.1684 21.8305 85.3579 22.0203 85.3579 22.2101C85.3579 22.4949 85.2631 22.5898 85.0737 22.6847L81.6631 25.2474C81.5684 25.3423 81.4737 25.3423 81.2842 25.3423C80.9052 25.3423 80.621 25.0576 80.621 24.7729C80.621 24.583 80.7158 24.3932 80.9052 24.2983L83.7474 22.2101L80.9052 20.122Z" fill="#FA4F4F"/>
</svg>
