<svg width="162" height="36" viewBox="0 0 162 36" fill="none" xmlns="http://www.w3.org/2000/svg">
<path fill-rule="evenodd" clip-rule="evenodd" d="M0.140015 17.9369C0.140015 27.8369 8.13702 35.8609 18.004 35.8609C20.994 35.8609 23.812 35.1209 26.288 33.8169C28.621 35.6419 32.903 36.0349 35.284 35.5629C35.994 35.4229 36.08 34.4689 35.416 34.1809C34.5518 33.8183 33.7715 33.2815 33.124 32.6039C32.358 31.7899 31.848 30.6379 31.524 29.6469C34.3322 26.3924 35.8743 22.2354 35.868 17.9369C35.868 8.03992 27.87 0.0139161 18.004 0.0139161C8.13702 0.0129161 0.140015 8.03792 0.140015 17.9369Z" fill="#41B7EF"/>
<path fill-rule="evenodd" clip-rule="evenodd" d="M26.39 26.0849H10.22V10.0679H26.39" fill="#010201"/>
<path fill-rule="evenodd" clip-rule="evenodd" d="M5.26401 17.9368C5.26401 24.9968 10.968 30.7188 18.004 30.7188C25.04 30.7188 30.744 24.9948 30.744 17.9358C30.744 10.8758 25.04 5.15381 18.004 5.15381C10.968 5.15381 5.26401 10.8768 5.26401 17.9358V17.9368ZM15.82 13.9198C15.8206 13.5656 15.7177 13.2189 15.5241 12.9222C15.3305 12.6256 15.0545 12.3919 14.73 12.2498C15.7237 11.6698 16.8535 11.3641 18.004 11.3638C21.624 11.3638 24.554 14.3058 24.554 17.9368C24.554 21.5668 21.624 24.5098 18.004 24.5098C14.384 24.5098 11.452 21.5668 11.452 17.9368C11.452 16.7388 11.777 15.6188 12.335 14.6528C12.615 15.2958 13.255 15.7448 14 15.7448C15.005 15.7448 15.82 14.9278 15.82 13.9198Z" fill="white"/>
<path fill-rule="evenodd" clip-rule="evenodd" d="M45.547 6.70996H46.852C47.31 6.70996 47.682 7.07997 47.682 7.53797V10.844H50.428C50.885 10.844 51.256 11.214 51.256 11.674V12.466C51.256 12.924 50.886 13.294 50.428 13.294H47.68V24.3C47.68 25.984 48.396 26.75 49.962 26.75C50.072 26.75 50.214 26.745 50.365 26.738C50.4774 26.7317 50.5899 26.7484 50.6955 26.7871C50.8012 26.8258 50.8979 26.8856 50.9797 26.9629C51.0615 27.0402 51.1267 27.1334 51.1713 27.2367C51.2159 27.3401 51.2389 27.4514 51.239 27.564V28.444C51.2385 28.6516 51.1602 28.8515 51.0195 29.0043C50.8788 29.157 50.6859 29.2515 50.479 29.269C50.119 29.299 49.703 29.319 49.331 29.319C46.011 29.319 44.718 27.939 44.718 24.419V13.294H42.991C42.7712 13.294 42.5604 13.2068 42.4048 13.0516C42.2492 12.8963 42.1615 12.6857 42.161 12.466V11.673C42.161 11.215 42.534 10.843 42.991 10.843H44.717V7.53996C44.717 7.08296 45.087 6.71296 45.544 6.71296L45.547 6.70996ZM54.713 28.355V11.672C54.713 11.215 55.083 10.845 55.541 10.845H56.848C57.305 10.845 57.676 11.215 57.676 11.672V28.355C57.676 28.812 57.306 29.183 56.848 29.183H55.54C55.4313 29.183 55.3237 29.1615 55.2233 29.1199C55.1229 29.0783 55.0317 29.0173 54.9549 28.9404C54.8781 28.8635 54.8172 28.7722 54.7757 28.6718C54.7342 28.5713 54.7129 28.4637 54.713 28.355ZM54.383 6.50497C54.3089 6.22713 54.2996 5.936 54.3558 5.65399C54.4119 5.37199 54.5321 5.10663 54.7069 4.87836C54.8818 4.65009 55.1067 4.465 55.3643 4.33733C55.622 4.20966 55.9055 4.14282 56.193 4.14197C57.233 4.14197 58.066 4.97596 58.066 6.01396C58.0649 6.30145 57.9978 6.58484 57.87 6.84232C57.7421 7.09981 57.5569 7.32452 57.3285 7.49917C57.1002 7.67381 56.8348 7.79373 56.5528 7.8497C56.2708 7.90566 55.9798 7.89617 55.702 7.82197C55.3859 7.73773 55.0976 7.57163 54.8662 7.3404C54.6348 7.10917 54.4685 6.821 54.384 6.50497H54.383ZM61.863 28.355V11.672C61.863 11.215 62.233 10.845 62.693 10.845H63.828C64.285 10.845 64.656 11.215 64.656 11.672V13.822H64.724C65.881 11.746 67.874 10.675 70.717 10.675C74.752 10.675 77.255 13.261 77.255 17.428V28.355C77.255 28.812 76.885 29.183 76.425 29.183H75.121C74.9014 29.183 74.6908 29.0957 74.5355 28.9405C74.3802 28.7852 74.293 28.5746 74.293 28.355V17.94C74.293 14.944 72.727 13.31 69.833 13.31C66.819 13.31 64.827 15.387 64.827 18.534V28.354C64.827 28.812 64.457 29.184 63.999 29.184H62.693C62.4729 29.184 62.2618 29.0965 62.1061 28.9409C61.9505 28.7852 61.863 28.5741 61.863 28.354V28.355ZM82.213 35.81C82.0069 35.7919 81.8151 35.6971 81.6757 35.5443C81.5362 35.3915 81.4592 35.1918 81.46 34.985V34.135C81.46 33.658 81.862 33.289 82.338 33.309C82.452 33.313 82.563 33.316 82.668 33.316C84.372 33.316 85.291 32.499 86.04 30.286L86.398 29.199L80.018 11.959C79.818 11.419 80.218 10.844 80.794 10.844H82.158C82.514 10.844 82.831 11.071 82.944 11.409L87.896 26.169H87.964L92.917 11.409C92.9721 11.2444 93.0776 11.1013 93.2184 10.9999C93.3593 10.8985 93.5285 10.844 93.702 10.844H95.032C95.609 10.844 96.01 11.418 95.81 11.958L89.037 30.304C87.47 34.557 86.007 35.832 82.754 35.832C82.597 35.832 82.407 35.822 82.214 35.808L82.213 35.81ZM111.038 16.816C110.866 16.8165 110.697 16.7626 110.557 16.6621C110.417 16.5615 110.313 16.4194 110.258 16.256C109.701 14.572 108.128 13.311 105.638 13.311C102.438 13.311 100.258 15.966 100.258 20.015C100.258 24.183 102.47 26.717 105.671 26.717C108.011 26.717 109.638 25.717 110.286 23.849C110.344 23.6911 110.449 23.5549 110.587 23.4593C110.725 23.3637 110.89 23.3132 111.058 23.315H112.323C112.868 23.315 113.281 23.837 113.127 24.358C112.237 27.358 109.422 29.354 105.655 29.354C100.615 29.354 97.245 25.782 97.245 20.014C97.245 14.384 100.598 10.676 105.621 10.676C109.678 10.676 112.324 13.006 113.113 15.792C113.26 16.31 112.843 16.818 112.307 16.818H111.039L111.038 16.816ZM116.363 28.356V4.38996C116.363 3.93396 116.733 3.56396 117.193 3.56396H118.498C118.955 3.56396 119.326 3.93396 119.326 4.39096V13.823H119.394C120.534 11.747 122.578 10.676 125.387 10.676C129.405 10.676 132.112 13.396 132.112 17.48V28.355C132.112 28.812 131.742 29.183 131.284 29.183H129.978C129.758 29.183 129.548 29.0957 129.393 28.9405C129.237 28.7852 129.15 28.5746 129.15 28.355V18.005C129.15 15.08 127.413 13.311 124.502 13.311C121.402 13.311 119.326 15.421 119.326 18.636V28.356C119.326 28.813 118.956 29.184 118.498 29.184H117.192C117.083 29.1841 116.975 29.1628 116.875 29.1212C116.774 29.0797 116.683 29.0188 116.606 28.9419C116.528 28.865 116.467 28.7737 116.425 28.6731C116.384 28.5726 116.362 28.4648 116.362 28.356H116.363ZM147.231 22.208V20.728L142.431 21.034C139.673 21.204 138.243 22.208 138.243 23.977C138.243 25.677 139.723 26.784 142.04 26.784C145.035 26.784 147.23 24.844 147.23 22.208H147.231ZM135.211 23.96C135.211 20.814 137.631 18.96 142.091 18.687L147.231 18.38V16.85C147.231 14.57 145.734 13.312 143.027 13.312C141.117 13.312 139.645 14.188 139.105 15.622C139.045 15.7746 138.941 15.9054 138.805 15.9971C138.669 16.0887 138.509 16.1368 138.345 16.135H137.058C136.538 16.135 136.123 15.658 136.243 15.155C136.865 12.553 139.631 10.675 143.061 10.675C147.403 10.675 150.195 12.988 150.195 16.595V28.355C150.195 28.812 149.825 29.183 149.367 29.183H148.214C147.994 29.183 147.784 29.0957 147.629 28.9405C147.473 28.7852 147.386 28.5746 147.386 28.355V26.002H147.316C146.279 28.042 143.98 29.352 141.409 29.352C137.681 29.352 135.212 27.21 135.212 23.96H135.211ZM155.927 6.70996H157.232C157.692 6.70996 158.062 7.07997 158.062 7.53797V10.844H160.809C161.266 10.844 161.637 11.214 161.637 11.674V12.466C161.637 12.924 161.267 13.294 160.809 13.294H158.062V24.3C158.062 25.984 158.777 26.75 160.342 26.75C160.452 26.75 160.595 26.745 160.746 26.738C160.858 26.7317 160.971 26.7484 161.077 26.7871C161.182 26.8258 161.279 26.8856 161.361 26.9629C161.443 27.0402 161.508 27.1334 161.552 27.2367C161.597 27.3401 161.62 27.4514 161.62 27.564V28.444C161.619 28.6516 161.541 28.8515 161.4 29.0043C161.26 29.157 161.067 29.2515 160.86 29.269C160.5 29.299 160.085 29.319 159.713 29.319C156.395 29.319 155.101 27.939 155.101 24.419V13.294H153.375C153.155 13.294 152.944 13.2068 152.789 13.0516C152.633 12.8963 152.546 12.6857 152.545 12.466V11.673C152.545 11.215 152.918 10.843 153.375 10.843H155.101V7.53996C155.101 7.08296 155.471 6.71296 155.929 6.71296L155.927 6.70996Z" fill="black"/>
</svg>
