<?xml version="1.0" encoding="UTF-8"?>
<svg width="1920px" height="736px" viewBox="0 0 1920 736" version="1.1" xmlns="http://www.w3.org/2000/svg" xmlns:xlink="http://www.w3.org/1999/xlink">
    <title>bg/home_bg02</title>
    <g id="bg/home_bg02" stroke="none" stroke-width="1" fill="none" fill-rule="evenodd">
        <g>
            <rect id="Mask" fill="#2154D1" x="0" y="0" width="1920" height="736"></rect>
            <path d="M1054.00378,736 C1034.76626,682.356868 993.100674,650.637917 903.810265,650.637917 C710.990681,650.637917 694.037651,758.908916 543.732507,694.838384 C400.562151,633.809195 458.557154,440.915314 245.312934,404.423334 C234.686067,402.604784 223.38559,401.17465 211.353038,400.168609 C110.16612,391.708378 40.4423899,365.968518 5.68434189e-13,324 C5.68434189e-13,333.333333 5.68434189e-13,470.666667 5.68434189e-13,736 C671,735 1022.33459,735 1054.00378,736 Z" id="Path-4" fill="#204FC1" opacity="0.5"></path>
            <path d="M1920,325.5 C1835.45129,236.562138 1855.07439,76.4013172 1630.92719,57.644415 C1543.60759,50.3374071 1478.31598,31.0373576 1434.9969,-0.5 C1434.9969,19.1666667 1434.9969,127.833333 1434.9969,325.5 C1758.3323,326.166667 1920,326.166667 1920,325.5 Z" id="Path-4" fill="#265FE9" transform="translate(1677.498452, 162.750000) rotate(-180.000000) translate(-1677.498452, -162.750000) "></path>
        </g>
    </g>
</svg>