<svg width="1920" height="316" viewBox="0 0 1920 316" fill="none" xmlns="http://www.w3.org/2000/svg">
<mask id="mask0" mask-type="alpha" maskUnits="userSpaceOnUse" x="0" y="0" width="1920" height="316">
<rect width="1920" height="316" fill="#377DFF"/>
</mask>
<g mask="url(#mask0)">
<path d="M37.4709 32.625C60.4398 107.783 119.513 167.942 189.41 199.652C256.091 229.911 340.401 244.853 403.58 198.287C445.182 167.626 468.754 118.488 506.839 84.1052C525.774 67.0074 546.504 61.4614 569.028 51.2315C623.937 26.3176 669.875 -21.7431 673.665 -85.1342C679.981 -191.126 596.03 -264.446 502.36 -288.483C378.573 -320.251 286.051 -320.251 201.024 -285.94C156.866 -268.124 111.933 -245.566 80.0925 -208.655C31.9441 -152.836 18.6508 -73.5538 29.5897 -1.87231C31.4129 9.90937 34.0543 21.4324 37.4709 32.625Z" fill="#2361F9"/>
<path opacity="0.7" d="M1634.09 63.7334C1596.34 85.3197 1569.72 121.625 1537.44 150.77C1497.57 186.748 1448.18 212.07 1395.69 223.434C1352.5 232.791 1307.25 232.912 1265.55 247.545C1184.29 276.068 1128.52 360.718 1127.03 446.803C1125.56 532.872 1174.62 616.259 1246.62 663.496C1271.07 679.531 1297.99 691.811 1326.14 699.716C1379.11 714.608 1435.24 713.951 1489.97 708.26C1584.48 698.419 1683.56 644.781 1743.14 569.126C1769.72 535.38 1792.14 498.417 1810 459.378C1839.35 395.277 1856.42 325.484 1859.35 255.018C1861.86 194.462 1859.3 127.368 1811.3 83.2614C1763.4 39.2586 1690.42 31.5096 1634.09 63.7334Z" fill="#2361F9"/>
</g>
</svg>
