<svg width="104" height="104" viewBox="0 0 104 104" fill="none" xmlns="http://www.w3.org/2000/svg">
<path opacity="0.1" d="M58 12.5C32.871 12.5 12.5 32.871 12.5 58C12.5 83.129 32.871 103.5 58 103.5C83.129 103.5 103.5 83.129 103.5 58C103.5 32.871 83.129 12.5 58 12.5Z" fill="#FF2E6C"/>
<path opacity="0.1" d="M46 0.5C20.871 0.5 0.5 20.871 0.5 46C0.5 71.129 20.871 91.5 46 91.5C71.129 91.5 91.5 71.129 91.5 46C91.5 20.871 71.129 0.5 46 0.5Z" fill="#FF2E6C"/>
<path d="M57.1136 61C52.8182 57.3182 53.2273 55.6818 47.7046 55.6818C42.1818 55.6818 38.7045 56.9091 40.1364 64.6818C41.5682 72.4545 45.6591 68.9773 45.25 74.7045C44.8409 80.4318 46.2727 81.8636 47.0909 83.2955C47.9091 84.7273 50.7727 88.8182 51.7955 83.0909C52.8182 77.3636 54.6591 74.0909 56.9091 71.2273C59.1591 68.3636 61.4091 64.6818 57.1136 61ZM41.9773 47.5C42.1818 44.6364 46.8864 41.5682 50.1591 40.1364C53.4318 38.7045 56.2955 38.2955 55.8864 35.8409C55.4773 33.3864 54.6591 31.5455 49.75 31.5455C44.8409 31.5455 46.8864 38.2955 42.7955 34.2045C38.7045 30.1136 43.6136 31.3409 45.6591 30.3182C47.7045 29.2955 49.75 25.6136 46.2727 25.4091C42.7955 25.2045 43.4091 27.0455 40.5455 26.0227C37.6818 25 36.4545 29.7045 34.6136 28.8864C33.3864 28.4773 30.3182 26.0227 28.0682 23.7727C23.7727 27.25 20.5 31.75 18.25 37.0682C18.8636 44.0227 22.5455 47.5 22.5455 47.5C22.5455 47.5 24.3864 52 36.0455 57.5227C36.0455 57.5227 38.2955 57.7273 35.6364 55.0682C32.9773 52.4091 30.3182 49.3409 33.3864 47.7046C36.4545 46.0682 37.4773 46.0682 38.2955 49.3409C39.1136 52.6136 41.7727 50.5682 41.9773 47.5ZM88.6136 48.5227C88.6136 48.1136 88.6136 47.9091 88.4091 47.5C88.4091 46.6818 88.2046 45.8636 88 45.25C88 44.8409 87.7955 44.4318 87.7955 44.0227C87.5909 43.2045 87.3864 42.5909 87.1818 41.7727C87.1818 41.3636 86.9773 41.1591 86.9773 40.75C86.5682 39.7273 86.3636 38.7045 85.9546 37.8864C85.75 37.4773 85.5455 37.0682 85.3409 36.6591C85.1364 36.0455 84.7273 35.6364 84.5227 35.0227C84.3182 34.6136 83.9091 34 83.7046 33.5909C83.5 33.1818 83.2955 32.7727 82.8864 32.3636C82.4773 31.9545 82.2727 31.3409 81.8636 30.9318C81.6591 30.7273 81.4545 30.3182 81.25 30.1136C79.8182 28.2727 78.1818 26.4318 76.3409 24.7955C76.1364 24.7955 76.1364 24.5909 75.9318 24.5909C75.3182 23.9773 74.7045 23.5682 73.8864 22.9545C73.8864 22.9545 73.8864 22.9545 73.6818 22.9545C70.8182 20.7045 67.5455 18.8636 64.0682 17.6364C63.0455 19.2727 62.0227 21.3182 60.7955 22.1364C58.9545 23.1591 59.1591 27.25 62.6364 26.8409C62.6364 26.8409 61.6136 27.8636 62.6364 31.5455C63.6591 35.2273 65.2955 36.0455 70.4091 34C72.6591 33.1818 74.2955 33.5909 74.0909 35.8409C73.4773 40.5455 70 40.3409 72.6591 47.9091C74.2955 52.6136 78.3864 54.25 80.0227 57.9318C80.8409 59.9773 84.1136 61.6136 86.7727 63.0455C86.9773 62.0227 87.3864 61 87.5909 60.1818C87.5909 59.7727 87.7955 59.3636 87.7955 58.9545C88 58.1364 88 57.5227 88.2045 56.7045C88.2045 56.2955 88.2046 56.0909 88.4091 55.6818C88.4091 54.6591 88.6136 53.4318 88.6136 52.4091C88.8182 50.7727 88.8182 49.75 88.6136 48.5227ZM74.7045 60.5909C73.2727 61.4091 73.2727 63.4545 74.5 64.4773C75.7273 65.5 78.1818 66.9318 79 64.4773C79.8182 62.0227 76.1364 59.7727 74.7045 60.5909ZM52 7C27.0455 7 7 27.0455 7 52C7 76.9546 27.0455 97 52 97C76.9546 97 97 76.9546 97 52C97 27.0455 76.9546 7 52 7ZM52 92.9091C29.5 92.9091 11.0909 74.5 11.0909 52C11.0909 29.5 29.5 11.0909 52 11.0909C74.5 11.0909 92.9091 29.5 92.9091 52C92.9091 74.5 74.5 92.9091 52 92.9091Z" fill="#FF2E6C"/>
</svg>
