<svg width="104" height="104" viewBox="0 0 104 104" fill="none" xmlns="http://www.w3.org/2000/svg">
<path opacity="0.1" d="M16 60V99.9999C16 101.061 16.4214 102.078 17.1716 102.828C17.9217 103.579 18.9391 104 20 104H60C68.7023 104 77.2093 101.419 84.445 96.5846C91.6808 91.7498 97.3204 84.878 100.651 76.838C103.981 68.7981 104.852 59.9512 103.154 51.416C101.457 42.8809 97.2661 35.0408 91.1126 28.8873C84.9591 22.7338 77.1191 18.5432 68.5839 16.8455C60.0488 15.1477 51.2019 16.0191 43.1619 19.3493C35.122 22.6796 28.2501 28.3192 23.4153 35.5549C18.5806 42.7907 16 51.2976 16 60Z" fill="#FF2E6C"/>
<path opacity="0.1" d="M0 44V83.9999C0 85.0608 0.421429 86.0782 1.17157 86.8284C1.92172 87.5785 2.93913 87.9999 4 87.9999H44C52.7023 87.9999 61.2093 85.4194 68.445 80.5846C75.6808 75.7498 81.3204 68.878 84.6506 60.838C87.9809 52.7981 88.8522 43.9512 87.1545 35.416C85.4567 26.8809 81.2661 19.0408 75.1126 12.8873C68.9591 6.7338 61.1191 2.54321 52.5839 0.845466C44.0488 -0.852281 35.2019 0.0190644 27.1619 3.34932C19.122 6.67957 12.2501 12.3192 7.41533 19.5549C2.58055 26.7907 0 35.2976 0 44Z" fill="#FF2E6C"/>
<path d="M52 16C42.4522 16 33.2954 19.7929 26.5441 26.5442C19.7928 33.2955 16 42.4522 16 52V87.9999H52C56.7275 87.9999 61.4088 87.0688 65.7766 85.2596C70.1443 83.4504 74.1129 80.7987 77.4558 77.4558C80.7987 74.1129 83.4504 70.1443 85.2596 65.7766C87.0688 61.4088 87.9999 56.7276 87.9999 52C87.9999 47.2724 87.0688 42.5911 85.2596 38.2234C83.4504 33.8557 80.7987 29.8871 77.4558 26.5442C74.1129 23.2012 70.1443 20.5495 65.7766 18.7403C61.4088 16.9312 56.7275 16 52 16ZM12 91.9999H8V52C8 43.2976 10.5806 34.7907 15.4153 27.5549C20.2501 20.3192 27.122 14.6796 35.1619 11.3493C43.2018 8.01906 52.0488 7.14772 60.5839 8.84547C69.1191 10.5432 76.9591 14.7338 83.1126 20.8873C89.2661 27.0408 93.4567 34.8809 95.1545 43.416C96.8522 51.9512 95.9809 60.7981 92.6506 68.838C89.3204 76.878 83.6808 83.7498 76.445 88.5846C69.2093 93.4194 60.7023 95.9999 52 95.9999H12V91.9999ZM12 91.9999V95.9999C10.9391 95.9999 9.92172 95.5785 9.17157 94.8284C8.42143 94.0782 8 93.0608 8 91.9999H12Z" fill="#FF2E6C"/>
<path d="M30 48.0342C30 46.9733 30.4214 45.9559 31.1716 45.2058C31.9217 44.4556 32.9391 44.0342 34 44.0342H70C70.5253 44.0341 71.0456 44.1375 71.5309 44.3384C72.0163 44.5394 72.4574 44.8341 72.8289 45.2055C73.2004 45.5769 73.4951 46.0179 73.6962 46.5033C73.8972 46.9886 74.0007 47.5088 74.0007 48.0342C74.0007 48.5595 73.8972 49.0797 73.6962 49.5651C73.4951 50.0504 73.2004 50.4914 72.8289 50.8629C72.4574 51.2343 72.0163 51.5289 71.5309 51.7299C71.0456 51.9309 70.5253 52.0343 70 52.0342H34C32.9391 52.0342 31.9217 51.6127 31.1716 50.8626C30.4214 50.1125 30 49.095 30 48.0342ZM30 64.0342C30 62.9733 30.4214 61.9559 31.1716 61.2057C31.9217 60.4556 32.9391 60.0342 34 60.0342H54C55.0609 60.0342 56.0783 60.4556 56.8284 61.2057C57.5786 61.9559 58 62.9733 58 64.0342C58 65.095 57.5786 66.1124 56.8284 66.8626C56.0783 67.6127 55.0609 68.0342 54 68.0342H34C32.9391 68.0342 31.9217 67.6127 31.1716 66.8626C30.4214 66.1124 30 65.095 30 64.0342Z" fill="#FF2E6C"/>
</svg>
