<svg width="104" height="104" viewBox="0 0 104 104" fill="none" xmlns="http://www.w3.org/2000/svg">
<path opacity="0.1" d="M58 12.5C32.871 12.5 12.5 32.871 12.5 58C12.5 83.129 32.871 103.5 58 103.5C83.129 103.5 103.5 83.129 103.5 58C103.5 32.871 83.129 12.5 58 12.5Z" fill="#FF2E6C"/>
<path opacity="0.1" d="M46 0.5C20.871 0.5 0.5 20.871 0.5 46C0.5 71.129 20.871 91.5 46 91.5C71.129 91.5 91.5 71.129 91.5 46C91.5 20.871 71.129 0.5 46 0.5Z" fill="#FF2E6C"/>
<path d="M52 7C27.1471 7 7 27.1471 7 52C7 76.8529 27.1471 97 52 97C76.8529 97 97 76.8529 97 52C97 27.1471 76.8529 7 52 7ZM52 90.5714C30.6989 90.5714 13.4286 73.3011 13.4286 52C13.4286 30.6989 30.6989 13.4286 52 13.4286C73.3011 13.4286 90.5714 30.6989 90.5714 52C90.5714 73.3011 73.3011 90.5714 52 90.5714Z" fill="#FF2E6C"/>
<path d="M26.2222 39.4C26.2222 41.0974 26.9012 42.7252 28.1098 43.9255C29.3183 45.1257 30.9575 45.8 32.6667 45.8C34.3758 45.8 36.015 45.1257 37.2236 43.9255C38.4321 42.7252 39.1111 41.0974 39.1111 39.4C39.1111 37.7026 38.4321 36.0748 37.2236 34.8745C36.015 33.6743 34.3758 33 32.6667 33C30.9575 33 29.3183 33.6743 28.1098 34.8745C26.9012 36.0748 26.2222 37.7026 26.2222 39.4ZM64.8889 39.4C64.8889 41.0974 65.5679 42.7252 66.7764 43.9255C67.985 45.1257 69.6242 45.8 71.3333 45.8C73.0425 45.8 74.6817 45.1257 75.8902 43.9255C77.0988 42.7252 77.7778 41.0974 77.7778 39.4C77.7778 37.7026 77.0988 36.0748 75.8902 34.8745C74.6817 33.6743 73.0425 33 71.3333 33C69.6242 33 67.985 33.6743 66.7764 34.8745C65.5679 36.0748 64.8889 37.7026 64.8889 39.4ZM23 52.2C23 68.1072 35.9823 81 52 81C68.0177 81 81 68.1072 81 52.2H23Z" fill="#FF2E6C"/>
</svg>
