<svg width="600" height="632" viewBox="0 0 600 632" fill="none" xmlns="http://www.w3.org/2000/svg">
<g filter="url(#filter0_d)">
<rect x="30" y="16" width="540" height="572" rx="16" fill="#00EA66"/>
</g>
<g filter="url(#filter1_d)">
<rect x="30" y="16" width="516" height="572" rx="16" fill="#00EA66"/>
</g>
<path d="M450.506 444.656C439.366 456.105 429.397 462.836 421.765 467.912C347.333 517.463 262.248 503.181 235.942 498.299C193.5 490.423 157.673 484.867 126.891 457.139C56.9473 394.141 60.3481 262.703 113.795 181.292C120.132 171.638 173.498 92.7654 258.766 81.6553C260.852 81.384 262.408 81.229 263.772 81.0848C276.963 79.6894 358.703 72.3437 425.355 128.018C434.897 135.988 450.251 150.364 464.488 172.288C516.55 252.453 516.715 376.613 450.506 444.656Z" fill="white"/>
<path d="M322.526 503.929L160.147 504C151.673 504.005 143.545 500.639 137.548 494.641C131.552 488.644 128.18 480.506 128.173 472.018L128 168.098C127.995 159.61 131.355 151.468 137.343 145.462C143.33 139.455 151.455 136.077 159.928 136.071L322.307 136C330.78 135.995 338.909 139.361 344.905 145.359C350.901 151.356 354.272 159.494 354.278 167.982L354.452 471.902C354.457 480.389 351.097 488.531 345.11 494.538C339.123 500.544 330.999 503.922 322.526 503.929Z" fill="#2C2858"/>
<path d="M314.503 494.936L167.151 495C151.137 495 138.148 481.768 138.137 465.423L137.976 175.677C137.976 159.333 150.941 146.073 166.953 146.062L314.305 146C330.317 145.989 343.307 159.232 343.319 175.577L343.478 465.323C343.489 481.667 330.517 494.936 314.503 494.936Z" fill="#193570"/>
<path d="M282.084 389.949L313.39 370.179L319.893 388.098L290.687 406.474L293.873 411.876L343.473 380.681V373.256L325.412 384.632L318.905 366.706L343.478 351.195L343.46 315.131L340.338 309.962L343.453 305.573V294.583L336.47 304.413L309.727 291.088L332.584 258.894L343.421 264.939V257.664L336.286 253.682L343.412 243.641V230.459L331.503 223.811L343.407 222.554V216.173L321.815 218.391L276.64 193.177L336.238 163.37L343.371 176.431V175.576C343.385 170.418 342.06 165.345 339.528 160.858C336.996 156.371 333.344 152.624 328.932 149.987L330.104 152.134L306.739 163.818L288.871 146H279.811L300.603 166.884L266.019 184.174L226.866 154.914L231.871 146.025H217.694L205.658 163.457L190.396 155.444L196.687 146.034H189.026L180.441 158.873L169.292 146.043H166.96C160.328 146.043 154.815 148.766 154.815 148.766L166.232 161.966L138.13 172.565C138.026 173.587 137.976 179.423 137.976 179.423L170.626 167.122L170.592 167.028L172.828 169.616L150.267 209.486L137.978 181.394L137.996 212.865L142.519 223.166L138.007 231.14V252.308L155.554 279.145L152.387 283.18L138.039 288.193V294.981L156.221 288.58L187.483 248.76L199.888 254.205L146.874 371.941L138.062 328.306L138.08 361.08L140.797 374.667L138.089 375.43V388.564L150.376 385.066L238.429 416L266.267 399.215L264.635 405.308H278.037L282.084 389.949ZM328.288 314.324L341.917 337.149L314.414 354.329L303.847 325.224L322.896 311.635L328.288 314.324ZM316.457 308.421L299.674 320.391L284.63 312.701L301.36 300.895L316.457 308.421ZM245.102 332.901L232.058 315.275L224.509 289.108L272.273 313.533L245.102 332.901ZM247.455 357.655L225.487 373.325L235.776 341.952L247.455 357.655ZM294.669 297.56L278.109 309.368L222.088 280.731L216.127 258.398L294.669 297.56ZM216.272 222.142L216.766 223.123L244.019 209.491L272.253 225.235L247.53 260.074L226.322 249.498L216.272 222.142ZM213.997 298.924L220.277 320.995L220.914 321.946L228.286 331.856L196.081 322.568L213.997 298.924ZM278.767 316.843L293.848 324.552L257.898 350.191L248.843 337.956L278.767 316.843ZM303.961 288.214L253.293 262.947L277.848 228.356L326.994 255.762L303.961 288.214ZM322.106 225.846L340.814 236.287L330.691 250.55L312.35 240.315L322.106 225.846ZM269.759 196.617L316.432 222.679L306.901 237.274L250.929 206.036L269.759 196.617ZM223.25 160.163L238.165 171.308L231.111 180.861L216.095 170.592L223.25 160.163ZM212.479 175.832L232.381 189.441L243.248 175.096L259.668 187.363L212.213 211.089L203.865 188.362L212.479 175.832ZM187.97 159.072L202.04 168.692L196.252 177.076L184.773 163.862L187.97 159.072ZM177.265 174.721L188.735 187.98L163.502 224.497L155.263 220.899L153.459 216.767L177.265 174.721ZM159.716 273.855L139.04 242.242L145.718 230.439L181.463 246.124L159.716 273.855ZM175.445 229.716L195.012 201.256L211.319 245.406L175.445 229.716ZM206.079 271.095L211.817 291.266L175.549 339.11L206.079 271.095ZM159.55 374.767L163.952 364.955L191.97 327.979L230.017 339.046L212.215 393.342L159.55 374.767ZM236.841 402.027L218.22 395.461L222.138 383.514L251.245 362.747L267.079 384.033L236.841 402.027ZM277.861 377.163L261.677 355.305L298.455 329.065L308.88 357.779L277.861 377.163Z" fill="#0A40CE"/>
<path d="M163.881 224L188.853 187.319L177.497 174L153.938 216.236L155.724 220.385L163.881 224Z" fill="#13DA57"/>
<path d="M343.455 176.056L336.313 163L276.64 192.796L321.858 218L343.478 215.783L343.455 176.056Z" fill="#13DA57"/>
<path d="M225.764 373L236.043 342L247.711 357.517L225.764 373Z" fill="#13DA57"/>
<path d="M232.249 195C227.09 195 222.142 197.065 218.494 200.742C214.845 204.419 212.796 209.405 212.795 214.605C212.795 225.436 232.249 259 232.249 259C232.249 259 251.701 225.436 251.701 214.605C251.7 209.406 249.651 204.419 246.003 200.743C242.355 197.066 237.408 195.001 232.249 195ZM232.249 224.641C230.391 224.641 228.575 224.086 227.03 223.046C225.485 222.007 224.281 220.528 223.57 218.798C222.858 217.069 222.672 215.165 223.034 213.329C223.396 211.492 224.291 209.805 225.604 208.481C226.918 207.157 228.591 206.255 230.413 205.89C232.236 205.524 234.124 205.712 235.841 206.428C237.557 207.144 239.024 208.358 240.056 209.915C241.088 211.471 241.639 213.302 241.639 215.174C241.64 216.417 241.397 217.648 240.925 218.797C240.453 219.945 239.762 220.989 238.89 221.868C238.018 222.747 236.982 223.444 235.843 223.92C234.704 224.396 233.482 224.641 232.249 224.641Z" fill="#00EA66"/>
<path d="M228.369 258C228.176 258 227.985 257.964 227.809 257.897L223.595 256.288C223.259 256.159 222.996 255.921 222.864 255.625C222.731 255.33 222.74 255.001 222.889 254.711C223.038 254.421 223.314 254.194 223.657 254.08C224 253.966 224.381 253.974 224.717 254.102L228.929 255.711C229.219 255.822 229.457 256.015 229.601 256.258C229.746 256.502 229.789 256.781 229.724 257.049C229.658 257.316 229.488 257.556 229.241 257.729C228.994 257.901 228.686 257.994 228.369 257.994V258Z" fill="#00EA66"/>
<path d="M219.382 253.989C219.189 253.989 218.997 253.949 218.82 253.873L213.627 251.617C213.46 251.545 213.308 251.441 213.181 251.311C213.055 251.181 212.955 251.028 212.889 250.861C212.823 250.693 212.791 250.515 212.795 250.335C212.8 250.156 212.84 249.979 212.914 249.815C212.988 249.65 213.095 249.502 213.227 249.378C213.36 249.254 213.516 249.157 213.688 249.092C213.859 249.027 214.041 248.996 214.225 249C214.408 249.005 214.589 249.044 214.757 249.117L219.949 251.39C220.241 251.517 220.479 251.739 220.624 252.017C220.769 252.295 220.812 252.614 220.745 252.92C220.679 253.225 220.507 253.499 220.259 253.696C220.011 253.892 219.702 254 219.382 254V253.989Z" fill="#00EA66"/>
<path d="M206.542 252C206.245 252 205.956 251.907 205.718 251.735C205.48 251.562 205.305 251.32 205.218 251.043L203.879 246.747C203.8 246.5 203.796 246.236 203.867 245.987C203.938 245.738 204.081 245.514 204.279 245.342C204.477 245.17 204.722 245.057 204.984 245.016C205.246 244.976 205.515 245.01 205.758 245.114L209.973 246.934C210.14 247.005 210.29 247.108 210.416 247.236C210.542 247.365 210.64 247.516 210.706 247.681C210.772 247.847 210.803 248.023 210.799 248.2C210.795 248.378 210.755 248.552 210.681 248.714C210.608 248.877 210.502 249.023 210.37 249.146C210.239 249.268 210.083 249.364 209.914 249.428C209.744 249.492 209.563 249.523 209.381 249.519C209.199 249.515 209.019 249.476 208.853 249.404L207.4 248.777L207.861 250.257C207.924 250.459 207.938 250.672 207.901 250.879C207.864 251.087 207.778 251.283 207.649 251.452C207.521 251.622 207.353 251.759 207.16 251.854C206.967 251.948 206.754 251.998 206.537 251.998L206.542 252Z" fill="#00EA66"/>
<path d="M267.293 374C267.075 374 266.86 373.949 266.666 373.849C266.472 373.75 266.305 373.606 266.178 373.429L261.162 366.431C261.057 366.285 260.982 366.12 260.941 365.945C260.9 365.77 260.894 365.589 260.923 365.412C260.953 365.235 261.017 365.065 261.112 364.913C261.207 364.76 261.331 364.628 261.477 364.523C261.624 364.419 261.789 364.344 261.964 364.303C262.14 364.262 262.321 364.257 262.499 364.286C262.676 364.315 262.846 364.379 262.999 364.474C263.152 364.569 263.284 364.692 263.389 364.838L268.406 371.836C268.551 372.04 268.638 372.281 268.656 372.53C268.674 372.78 268.622 373.03 268.508 373.253C268.393 373.476 268.219 373.662 268.004 373.793C267.79 373.924 267.544 373.993 267.293 373.993V374ZM257.283 360.006C257.065 360.006 256.851 359.954 256.657 359.854C256.463 359.754 256.297 359.61 256.17 359.433L251.154 352.437C251.049 352.291 250.974 352.126 250.933 351.951C250.892 351.776 250.886 351.595 250.916 351.418C250.945 351.241 251.009 351.071 251.104 350.919C251.199 350.766 251.323 350.634 251.47 350.53C251.616 350.425 251.781 350.35 251.957 350.31C252.132 350.269 252.314 350.263 252.491 350.292C252.669 350.321 252.839 350.385 252.991 350.48C253.144 350.575 253.277 350.699 253.382 350.845L258.384 357.84C258.489 357.986 258.563 358.151 258.604 358.326C258.644 358.501 258.65 358.682 258.62 358.859C258.59 359.035 258.526 359.205 258.431 359.357C258.336 359.509 258.211 359.641 258.065 359.745C257.838 359.911 257.565 360.003 257.283 360.006ZM247.275 346.013C247.057 346.013 246.842 345.961 246.648 345.861C246.454 345.761 246.287 345.617 246.16 345.439L241.155 338.441C241.051 338.295 240.976 338.13 240.935 337.955C240.894 337.78 240.888 337.599 240.917 337.422C240.947 337.245 241.011 337.075 241.106 336.923C241.201 336.77 241.325 336.638 241.471 336.534C241.617 336.429 241.783 336.354 241.958 336.313C242.133 336.273 242.315 336.267 242.492 336.296C242.67 336.325 242.84 336.389 242.993 336.484C243.146 336.579 243.278 336.703 243.383 336.849L248.399 343.847C248.546 344.051 248.633 344.291 248.651 344.541C248.669 344.791 248.618 345.042 248.503 345.265C248.388 345.488 248.214 345.675 247.999 345.806C247.785 345.937 247.538 346.006 247.287 346.006L247.275 346.013ZM237.265 332.017C237.047 332.017 236.832 331.965 236.638 331.866C236.444 331.767 236.277 331.622 236.15 331.446L231.148 324.457C230.936 324.162 230.85 323.796 230.909 323.438C230.968 323.081 231.167 322.761 231.462 322.55C231.757 322.339 232.125 322.253 232.483 322.312C232.841 322.371 233.161 322.57 233.373 322.864L238.378 329.862C238.524 330.066 238.61 330.306 238.628 330.556C238.646 330.806 238.595 331.056 238.48 331.279C238.365 331.501 238.191 331.688 237.977 331.819C237.763 331.949 237.516 332.019 237.265 332.019V332.017ZM227.258 318.023C227.039 318.023 226.824 317.971 226.63 317.871C226.436 317.771 226.269 317.627 226.143 317.45L225.071 315.95C224.984 315.83 224.918 315.696 224.875 315.554L222.907 309.093C222.852 308.921 222.832 308.739 222.847 308.559C222.863 308.379 222.914 308.204 222.999 308.044C223.083 307.883 223.198 307.741 223.338 307.626C223.478 307.511 223.639 307.424 223.812 307.372C223.986 307.319 224.168 307.301 224.348 307.32C224.529 307.338 224.704 307.392 224.863 307.478C225.022 307.564 225.163 307.681 225.277 307.822C225.39 307.963 225.474 308.126 225.525 308.299L227.426 314.547L228.37 315.864C228.517 316.068 228.604 316.308 228.622 316.558C228.64 316.809 228.589 317.059 228.474 317.282C228.359 317.505 228.185 317.692 227.97 317.823C227.756 317.954 227.509 318.023 227.258 318.023ZM221.71 301.836C221.417 301.836 221.131 301.742 220.896 301.568C220.66 301.394 220.487 301.149 220.401 300.869L217.893 292.643C217.787 292.296 217.824 291.922 217.995 291.602C218.166 291.283 218.458 291.044 218.805 290.939C219.152 290.833 219.528 290.87 219.848 291.041C220.168 291.211 220.407 291.502 220.513 291.849L223.021 300.075C223.083 300.279 223.096 300.495 223.06 300.704C223.023 300.914 222.938 301.113 222.811 301.284C222.683 301.455 222.518 301.594 222.327 301.69C222.136 301.786 221.926 301.836 221.712 301.836H221.71ZM216.694 285.387C216.4 285.387 216.114 285.293 215.879 285.119C215.643 284.944 215.47 284.699 215.385 284.418L212.877 276.194C212.821 276.022 212.801 275.84 212.817 275.66C212.833 275.48 212.884 275.304 212.968 275.144C213.052 274.984 213.168 274.842 213.307 274.727C213.447 274.611 213.608 274.525 213.782 274.472C213.955 274.42 214.138 274.402 214.318 274.42C214.498 274.439 214.673 274.492 214.833 274.579C214.992 274.665 215.132 274.782 215.246 274.923C215.36 275.064 215.444 275.226 215.494 275.4L218.002 283.624C218.055 283.796 218.073 283.976 218.055 284.155C218.038 284.333 217.985 284.507 217.9 284.665C217.816 284.823 217.701 284.963 217.562 285.077C217.423 285.191 217.262 285.276 217.09 285.328C216.964 285.366 216.833 285.386 216.7 285.387H216.694ZM211.677 268.937C211.384 268.937 211.099 268.843 210.863 268.669C210.627 268.495 210.454 268.25 210.368 267.97L207.86 259.743C207.761 259.399 207.801 259.029 207.972 258.714C208.144 258.398 208.433 258.163 208.777 258.059C209.121 257.955 209.492 257.99 209.81 258.156C210.129 258.323 210.368 258.608 210.478 258.949L212.986 267.176C213.091 267.522 213.054 267.896 212.883 268.215C212.712 268.534 212.421 268.772 212.074 268.878C211.95 268.919 211.82 268.942 211.689 268.946L211.677 268.937Z" fill="#00EA66"/>
<path d="M270.93 388C270.66 388.001 270.397 387.9 270.18 387.712C269.962 387.524 269.8 387.259 269.718 386.956C269.636 386.652 269.637 386.325 269.722 386.022C269.807 385.72 269.972 385.457 270.191 385.272L272.603 383.238L270.883 380.382C270.687 380.058 270.607 379.654 270.662 379.26C270.717 378.866 270.902 378.514 271.176 378.282C271.45 378.049 271.791 377.955 272.124 378.02C272.456 378.085 272.754 378.304 272.95 378.629L275.407 382.707C275.503 382.868 275.573 383.049 275.61 383.242C275.648 383.434 275.653 383.633 275.625 383.828C275.598 384.023 275.538 384.209 275.45 384.376C275.361 384.544 275.246 384.689 275.11 384.804L271.668 387.719C271.453 387.903 271.195 388.001 270.93 388Z" fill="#00EA66"/>
<path d="M256.028 398C255.745 398.001 255.47 397.91 255.241 397.741C255.013 397.572 254.843 397.334 254.757 397.06C254.671 396.787 254.672 396.492 254.761 396.22C254.851 395.948 255.023 395.711 255.253 395.545L262.558 390.253C262.846 390.044 263.204 389.959 263.553 390.018C263.902 390.077 264.214 390.274 264.42 390.567C264.626 390.859 264.709 391.223 264.651 391.577C264.593 391.932 264.399 392.249 264.111 392.458L256.807 397.75C256.579 397.914 256.307 398.002 256.028 398Z" fill="#00EA66"/>
<path d="M244.987 406C244.718 405.999 244.456 405.913 244.24 405.754C244.023 405.595 243.862 405.371 243.78 405.115C243.698 404.858 243.7 404.582 243.784 404.326C243.869 404.07 244.032 403.848 244.25 403.691L247.694 401.239C247.83 401.141 247.983 401.071 248.146 401.033C248.308 400.995 248.477 400.99 248.641 401.017C248.806 401.044 248.964 401.104 249.105 401.192C249.247 401.281 249.37 401.396 249.467 401.532C249.565 401.669 249.634 401.823 249.672 401.986C249.71 402.149 249.715 402.318 249.688 402.483C249.661 402.648 249.602 402.806 249.514 402.948C249.425 403.091 249.31 403.214 249.174 403.312L245.729 405.775C245.511 405.926 245.251 406.004 244.987 406Z" fill="#00EA66"/>
<path d="M343.478 403V472.873C343.478 478.72 341.173 484.329 337.07 488.465C332.967 492.601 327.401 494.926 321.597 494.929L159.923 495C157.048 495.002 154.2 494.434 151.543 493.327C148.886 492.22 146.472 490.597 144.438 488.55C142.403 486.503 140.789 484.073 139.688 481.397C138.586 478.722 138.018 475.854 138.017 472.957L137.976 403.007L343.478 403Z" fill="#0A40CE"/>
<path d="M230.364 418H163.303C161.436 418 159.923 420.074 159.923 422.632V428.368C159.923 430.926 161.436 433 163.303 433H230.364C232.231 433 233.744 430.926 233.744 428.368V422.632C233.744 420.074 232.231 418 230.364 418Z" fill="#00EA66"/>
<path d="M313.616 444H165.843C162.573 444 159.923 446.461 159.923 449.497V454.503C159.923 457.539 162.573 460 165.843 460H313.616C316.886 460 319.536 457.539 319.536 454.503V449.497C319.536 446.461 316.886 444 313.616 444Z" fill="#00EA66"/>
<path d="M313.616 467H165.843C162.573 467 159.923 469.461 159.923 472.497V477.503C159.923 480.539 162.573 483 165.843 483H313.616C316.886 483 319.536 480.539 319.536 477.503V472.497C319.536 469.461 316.886 467 313.616 467Z" fill="#00EA66"/>
<path d="M224.766 289L232.334 315.291L245.411 333L272.65 313.534L224.766 289Z" fill="#13DA57"/>
<path d="M397.915 245.202H397.906L390.118 245.23L388.354 263.69L397.446 268.508L407.141 263.745L405.575 245.23L397.915 245.202Z" fill="#EA9896"/>
<path d="M412.67 232.137C414.419 218.769 407.356 206.814 396.893 205.435C386.43 204.057 376.53 213.776 374.781 227.145C373.031 240.513 380.095 252.468 390.558 253.847C401.021 255.226 410.92 245.506 412.67 232.137Z" fill="url(#paint0_linear)"/>
<path opacity="0.2" d="M387.828 232.327C385.9 234.84 383.471 237.913 383.471 237.913C383.471 237.913 384.176 240.834 387.889 241.234C386.378 240.428 384.93 239.215 385.768 237.173C386.605 235.13 387.828 232.327 387.828 232.327Z" fill="#193570"/>
<path d="M417.727 221.273C418.865 208.519 407.176 204.332 407.176 204.332C407.176 204.332 409.794 203.418 409.159 199.553C407.279 200.706 405.078 201.219 402.885 201.015C388.354 199.571 379.21 201.97 380.653 207.683C381.167 209.716 371.741 210.76 375.941 224.254C376.838 222.655 377.646 216.679 380.471 215.363C383.296 214.047 381.625 218.708 388.042 217.981C394.519 217.25 398.742 214.554 403.452 217.12C407.226 219.448 411.943 234.975 411.727 236.037C412.221 233.591 417.217 226.879 417.727 221.273Z" fill="#201D40"/>
<path d="M375.351 234.287C375.351 234.287 376.589 241.561 378.171 243.505C378.515 240.373 385.36 242.344 388.336 242.605C393.722 243.08 399.19 238.283 401.004 245.383C407.863 245.783 410.36 230.628 410.36 230.628C414.581 245.771 407.025 256.816 390.396 258.356C379.437 259.37 373.368 245.333 375.351 234.287Z" fill="#201D40"/>
<path d="M395.597 231.535C395.963 231.559 396.327 231.474 396.644 231.291C396.961 231.108 397.217 230.834 397.379 230.505C397.542 230.176 397.603 229.806 397.556 229.442C397.509 229.078 397.355 228.736 397.114 228.459C396.873 228.183 396.556 227.984 396.203 227.888C395.849 227.793 395.476 227.804 395.129 227.922C394.782 228.039 394.478 228.257 394.255 228.548C394.031 228.839 393.899 229.19 393.874 229.556C393.842 230.048 394.005 230.532 394.328 230.903C394.651 231.274 395.108 231.501 395.597 231.535Z" fill="black"/>
<path d="M380.304 230.968C380.669 230.992 381.033 230.908 381.35 230.725C381.667 230.541 381.923 230.268 382.086 229.939C382.248 229.61 382.309 229.239 382.262 228.875C382.215 228.511 382.061 228.169 381.82 227.893C381.579 227.616 381.262 227.417 380.909 227.322C380.556 227.226 380.182 227.238 379.835 227.355C379.488 227.473 379.184 227.691 378.961 227.981C378.737 228.272 378.605 228.623 378.58 228.99C378.548 229.481 378.711 229.966 379.034 230.337C379.357 230.708 379.814 230.935 380.304 230.968Z" fill="black"/>
<path d="M377.228 227.089C377.388 227.101 377.547 227.07 377.691 227.001C377.835 226.931 377.958 226.824 378.048 226.692C378.574 225.926 379.186 225.485 379.839 225.385C380.978 225.209 382.059 226.043 382.068 226.052C382.258 226.205 382.501 226.276 382.744 226.249C382.986 226.222 383.208 226.1 383.36 225.909C383.513 225.718 383.583 225.475 383.556 225.231C383.53 224.988 383.408 224.766 383.218 224.613C383.149 224.558 381.533 223.272 379.575 223.557C378.38 223.733 377.354 224.437 376.525 225.648C376.455 225.747 376.406 225.858 376.379 225.977C376.353 226.095 376.35 226.217 376.372 226.336C376.393 226.456 376.437 226.569 376.503 226.671C376.568 226.773 376.653 226.861 376.753 226.929C376.894 227.025 377.058 227.081 377.228 227.089Z" fill="#201D40"/>
<path d="M399.774 228.569C399.948 228.584 400.122 228.549 400.277 228.467C400.431 228.385 400.558 228.261 400.644 228.109C400.73 227.957 400.77 227.783 400.761 227.608C400.751 227.433 400.692 227.265 400.589 227.123C399.485 225.524 398.206 224.622 396.788 224.414C395.646 224.265 394.491 224.563 393.562 225.246C393.371 225.397 393.248 225.619 393.219 225.861C393.191 226.104 393.26 226.348 393.411 226.54C393.562 226.731 393.782 226.855 394.024 226.884C394.266 226.912 394.509 226.843 394.7 226.692C395.237 226.316 395.894 226.153 396.544 226.235C397.432 226.374 398.283 227.025 399.078 228.17C399.156 228.285 399.259 228.381 399.38 228.451C399.501 228.52 399.636 228.561 399.774 228.569Z" fill="#201D40"/>
<path d="M410.535 230.689C408.243 232.878 407.831 236.172 409.625 238.061C411.419 239.95 414.715 239.697 417.01 237.508C419.304 235.32 419.714 232.026 417.92 230.137C416.126 228.247 412.83 228.501 410.535 230.689Z" fill="url(#paint1_linear)"/>
<path opacity="0.2" d="M412.607 237.163C412.507 237.126 412.417 237.065 412.345 236.985C411.264 235.806 411.032 234.383 411.724 233.179C412.07 232.578 412.594 232.099 413.223 231.81C413.853 231.521 414.556 231.435 415.236 231.564C415.416 231.605 415.572 231.715 415.67 231.87C415.768 232.026 415.801 232.215 415.761 232.395C415.721 232.575 415.611 232.731 415.456 232.83C415.301 232.929 415.113 232.962 414.934 232.921C414.542 232.859 414.141 232.916 413.782 233.086C413.423 233.256 413.124 233.531 412.923 233.874C412.539 234.543 412.696 235.315 413.363 236.044C413.48 236.156 413.554 236.306 413.571 236.467C413.589 236.629 413.548 236.791 413.458 236.925C413.367 237.059 413.232 237.157 413.076 237.201C412.92 237.244 412.754 237.231 412.607 237.163Z" fill="#193570"/>
<path d="M394.329 244.691C394.406 244.213 394.299 243.759 393.819 243.82C392.109 244.045 390.387 244.174 388.663 244.206C386.938 244.203 385.215 244.102 383.502 243.902C383.022 243.848 382.908 244.307 383.006 244.782C383.411 246.749 385.633 248.94 388.581 248.917C391.529 248.894 394.051 246.475 394.329 244.691Z" fill="white"/>
<path d="M383.703 486.705C376.817 496.24 359.905 490.389 360.465 503.285C386.189 503.118 396.87 503.285 396.87 503.285C396.836 500.315 396.328 493.293 395.732 490.54L383.703 486.705Z" fill="black"/>
<path d="M422.181 486.954C415.295 496.489 398.383 490.638 398.943 503.534C424.667 503.369 435.348 503.534 435.348 503.534C435.314 500.564 434.804 493.542 434.21 490.789L422.181 486.954Z" fill="black"/>
<path d="M371.8 341.141C371.8 341.141 367.622 402.252 369.318 415.842C371.014 429.432 377.022 446.846 376.341 491.785C384.725 493.891 396.87 491.785 396.87 491.785C396.87 491.785 398.671 440.973 389.813 418.275C393.417 396.23 404.981 345.735 404.981 345.735L371.8 341.141Z" fill="#1E147E"/>
<path d="M387.678 342.811C387.678 342.811 396.101 411.41 400.226 424.431C404.351 437.452 407.943 446.976 415.416 491.246C424.03 491.68 436.474 491.41 436.474 491.41C436.474 491.41 435.349 436.564 421.929 423.792C421.474 401.436 424.099 343.252 424.099 343.252L387.678 342.811Z" fill="#1E147E"/>
<path d="M426.534 264.947C426.534 264.947 411.89 259.802 407.007 262.162C391.834 269.493 388.354 262.162 388.354 262.162C383.505 262.582 368.87 264.947 368.87 264.947C368.87 281.349 367.779 297.808 368.075 310.219C368.284 321.029 366.233 350.446 366.233 350.446C366.233 350.446 382.378 354.692 397.649 354.802C412.919 354.704 428.465 350.617 428.465 350.617C428.465 350.617 427.648 320.823 426.969 309.751C427.192 297.34 426.534 281.305 426.534 264.947Z" fill="#4F57F6"/>
<path d="M342.832 289.326C348.876 274.854 366.812 265.65 368.861 264.947L373.022 283.526C367.775 286.648 362.8 290.209 358.15 294.171C359.211 299.343 359.033 304.417 362.02 310.959C362.02 310.959 359.429 307.371 356.231 309.493C353.123 311.549 347.407 307.343 347.407 307.343C347.407 307.343 338.224 300.387 342.832 289.326Z" fill="#4F57F6"/>
<path d="M346.207 325.896C346.105 325.927 346 325.949 345.893 325.96H345.549C345.232 325.927 344.931 325.801 344.683 325.598C344.436 325.395 344.254 325.124 344.158 324.818L328.046 272.687C328.015 272.583 327.993 272.477 327.982 272.37C327.977 272.301 327.977 272.232 327.982 272.164C327.98 272.123 327.98 272.082 327.982 272.041C327.982 272.004 327.998 271.97 328.002 271.933C328.051 271.633 328.181 271.352 328.379 271.122C328.578 270.892 328.836 270.722 329.125 270.631C329.224 270.6 329.326 270.578 329.43 270.565C329.546 270.553 329.664 270.553 329.78 270.565H370.342L386.598 325.962H346.18L346.207 325.896Z" fill="#00EA66"/>
<path d="M369.972 270.628C370.386 270.499 370.835 270.54 371.219 270.742C371.603 270.945 371.891 271.293 372.02 271.708L388.033 323.711L388.069 323.832C388.134 324.038 388.157 324.254 388.138 324.469C388.118 324.683 388.057 324.892 387.958 325.083C387.858 325.274 387.722 325.443 387.557 325.582C387.392 325.72 387.202 325.824 386.997 325.888C386.792 325.952 386.576 325.975 386.362 325.955C386.148 325.935 385.939 325.873 385.749 325.773C385.559 325.672 385.39 325.535 385.253 325.369C385.115 325.203 385.012 325.011 384.948 324.805L368.895 272.686C368.831 272.48 368.808 272.263 368.827 272.048C368.846 271.833 368.908 271.624 369.008 271.433C369.108 271.242 369.244 271.072 369.41 270.934C369.575 270.796 369.766 270.692 369.972 270.628Z" fill="#13DA57"/>
<path d="M339.325 303.702C339.176 303.606 339.012 303.534 338.84 303.489L338.893 303.414C339.903 301.888 339.835 300.06 338.742 299.334C338.565 299.217 338.367 299.134 338.16 299.089C338.444 297.947 338.189 296.878 337.411 296.348C337.099 296.146 336.734 296.044 336.364 296.056C336.721 294.943 336.436 293.771 335.565 293.198C334.472 292.472 332.887 292.94 332.027 294.244C331.166 295.549 331.344 297.193 332.444 297.92C332.717 298.1 333.029 298.211 333.354 298.247C332.626 299.667 332.774 301.216 333.762 301.879C333.938 301.996 334.135 302.08 334.342 302.125C334.06 303.268 334.313 304.337 335.093 304.867C335.382 305.054 335.717 305.155 336.061 305.159C335.699 306.132 335.929 307.179 336.696 307.688C337.607 308.303 338.956 307.916 339.683 306.806C340.409 305.696 340.249 304.314 339.325 303.702Z" fill="url(#paint2_linear)"/>
<path d="M389.193 300.405L385.496 298.256C385.496 298.256 384.472 293.001 378.535 292.867L380.194 298.256C380.194 298.256 377.271 300.54 370.34 296.636C363.565 295.108 366.47 300.063 364.214 300.421C360.899 300.947 366.629 307.482 373.395 308.483C382.15 309.776 383.183 307.978 383.183 307.978L388.137 309.714L389.193 300.405Z" fill="url(#paint3_linear)"/>
<path d="M427.01 306.528C414.651 305.662 389.97 299.037 389.97 299.037C386.596 304.229 387.527 311.128 387.527 311.128C406.722 328.013 435.606 333.472 444.47 329.404C452.561 325.692 446.813 276.252 426.486 264.931L427.01 306.528Z" fill="#4F57F6"/>
<defs>
<filter id="filter0_d" x="0" y="0" width="600" height="632" filterUnits="userSpaceOnUse" color-interpolation-filters="sRGB">
<feFlood flood-opacity="0" result="BackgroundImageFix"/>
<feColorMatrix in="SourceAlpha" type="matrix" values="0 0 0 0 0 0 0 0 0 0 0 0 0 0 0 0 0 0 127 0"/>
<feOffset dy="14"/>
<feGaussianBlur stdDeviation="15"/>
<feColorMatrix type="matrix" values="0 0 0 0 0.0242535 0 0 0 0 0.529167 0 0 0 0 0.286808 0 0 0 0.16 0"/>
<feBlend mode="normal" in2="BackgroundImageFix" result="effect1_dropShadow"/>
<feBlend mode="normal" in="SourceGraphic" in2="effect1_dropShadow" result="shape"/>
</filter>
<filter id="filter1_d" x="0" y="0" width="576" height="632" filterUnits="userSpaceOnUse" color-interpolation-filters="sRGB">
<feFlood flood-opacity="0" result="BackgroundImageFix"/>
<feColorMatrix in="SourceAlpha" type="matrix" values="0 0 0 0 0 0 0 0 0 0 0 0 0 0 0 0 0 0 127 0"/>
<feOffset dy="14"/>
<feGaussianBlur stdDeviation="15"/>
<feColorMatrix type="matrix" values="0 0 0 0 0.0242535 0 0 0 0 0.529167 0 0 0 0 0.286808 0 0 0 0.14 0"/>
<feBlend mode="normal" in2="BackgroundImageFix" result="effect1_dropShadow"/>
<feBlend mode="normal" in="SourceGraphic" in2="effect1_dropShadow" result="shape"/>
</filter>
<linearGradient id="paint0_linear" x1="144700" y1="-181198" x2="135997" y2="-185387" gradientUnits="userSpaceOnUse">
<stop stop-color="#FF928E"/>
<stop offset="1" stop-color="#FEB3B1"/>
</linearGradient>
<linearGradient id="paint1_linear" x1="43273.7" y1="32954.2" x2="44264.6" y2="30585.9" gradientUnits="userSpaceOnUse">
<stop stop-color="#FF928E"/>
<stop offset="1" stop-color="#FEB3B1"/>
</linearGradient>
<linearGradient id="paint2_linear" x1="35562" y1="47609.7" x2="37482.9" y2="44999.8" gradientUnits="userSpaceOnUse">
<stop stop-color="#FF928E"/>
<stop offset="1" stop-color="#FEB3B1"/>
</linearGradient>
<linearGradient id="paint3_linear" x1="105987" y1="53002.8" x2="107127" y2="48832.4" gradientUnits="userSpaceOnUse">
<stop stop-color="#FF928E"/>
<stop offset="1" stop-color="#FEB3B1"/>
</linearGradient>
</defs>
</svg>
