<svg width="428" height="428" viewBox="0 0 428 428" fill="none" xmlns="http://www.w3.org/2000/svg">
<path d="M376.506 368.39C365.366 379.891 355.397 386.652 347.765 391.75C273.333 441.524 188.248 427.178 161.942 422.274C119.5 414.363 83.6725 408.781 52.8913 380.93C-17.0527 317.65 -13.6519 185.623 39.7951 103.848C46.1317 94.1507 99.4978 14.925 184.766 3.76527C186.852 3.49273 188.408 3.337 189.772 3.19217C202.963 1.79058 284.703 -5.58801 351.355 50.3354C360.897 58.3416 376.251 72.7811 390.488 94.8032C442.55 175.328 442.715 300.043 376.506 368.39Z" fill="white"/>
<path d="M338.938 268.013C338.938 268.013 329.487 255.416 339.525 248.42C339.525 248.42 346.775 244.605 352.45 245.309C352.45 245.309 343.534 258.413 346.06 259.927C348.587 261.44 354.95 244.603 354.95 244.603C354.95 244.603 370.945 244.052 375.906 246.845C375.906 246.845 361.62 257.178 364.441 258.022C367.262 258.866 382.625 248.811 382.625 248.811C382.625 248.811 397.265 252.274 395.912 261.302C394.559 270.33 389.287 272.812 387.062 272.419C384.836 272.026 372.038 266.183 371.639 268.011C371.24 269.84 378.754 276.37 384.263 276.998C384.263 276.998 373.111 287.909 366.386 284.14C359.66 280.37 359.396 275.034 355.197 272.777C350.998 270.521 347.309 270.295 348.967 272.432C350.626 274.569 358.326 277.027 360.524 281.579C362.723 286.131 364.756 289.235 357.658 287.699C350.56 286.164 339.22 280.152 339.083 274.077L338.938 268.013Z" fill="#0A40CE"/>
<path d="M388.625 261.094C388.625 261.094 348.531 257.013 338.937 268.013C338.937 268.013 336.608 273.803 330.234 278.807L329.133 281.327C329.133 281.327 336.554 274.381 339.075 274.091C339.075 274.101 336.061 259.527 388.625 261.094Z" fill="#82B378"/>
<path d="M330.234 278.808C330.234 278.808 321.21 284.681 319.897 296.101L321.455 296.34C321.455 296.34 324.946 284.659 330.214 280.337C335.481 276.016 330.234 278.808 330.234 278.808Z" fill="#82B378"/>
<path d="M292.572 237.896C292.572 237.896 271.618 226.095 281.398 210.073C281.398 210.073 289.22 200.241 297.602 197.721C297.602 197.721 293.133 221.603 297.602 222.163C302.071 222.723 300.673 195.193 300.673 195.193C300.673 195.193 322.745 184.516 331.407 185.358C331.407 185.358 317.717 208.678 322.194 208.116C326.672 207.554 342.032 183.954 342.032 183.954C342.032 183.954 364.663 179.74 368.295 193.218C371.927 206.697 366.06 213.448 362.706 214.29C359.353 215.132 337.842 214.852 338.398 217.662C338.955 220.472 353.487 224.967 361.588 222.438C361.588 222.438 352.648 244.634 340.911 243.51C329.173 242.386 325.543 235.081 318.28 234.519C311.016 233.957 305.707 235.923 309.339 237.892C312.971 239.86 325.265 238.536 331.131 243.551C336.996 248.566 341.748 251.659 330.852 253.905C319.956 256.151 300.399 254.749 296.486 246.32L292.572 237.896Z" fill="#0A40CE"/>
<path d="M357.948 197.437C357.948 197.437 299.276 216.542 292.572 237.896C292.572 237.896 292.85 247.449 286.982 258.405V262.62C286.982 262.62 293.124 248.291 296.482 246.324C296.482 246.324 283.35 227.779 357.948 197.437Z" fill="#82B378"/>
<path d="M286.983 258.405C286.983 258.405 277.936 272.222 283.093 289.042L285.421 288.412C285.421 288.412 283.169 269.883 287.896 260.569C292.623 251.255 286.983 258.405 286.983 258.405Z" fill="#82B378"/>
<path d="M182.071 243.942C182.071 243.942 206.467 233.564 197.663 214.823C197.663 214.823 190.277 203.088 181.396 199.302C181.396 199.302 183.416 226.017 178.449 226.089C173.483 226.161 178.333 196.156 178.333 196.156C178.333 196.156 155.432 181.766 145.838 181.634C145.838 181.634 158.03 208.857 153.208 207.698C148.387 206.539 134.373 178.801 134.373 178.801C134.373 178.801 110.082 171.425 104.482 185.762C98.8831 200.099 104.493 208.202 108.065 209.534C111.638 210.866 135.247 213.18 134.297 216.19C133.347 219.2 116.883 222.356 108.309 218.599C108.309 218.599 115.431 244.01 128.426 244.21C141.42 244.41 146.276 236.838 154.31 237.115C162.343 237.393 167.918 240.187 163.701 241.9C159.483 243.613 146.172 240.665 139.133 245.447C132.094 250.23 126.522 253.036 138.191 256.828C149.861 260.62 171.462 261.462 176.765 252.711L182.071 243.942Z" fill="#0A40CE"/>
<path d="M115.302 191.639C115.302 191.639 177.296 219.725 182.07 243.932C182.07 243.932 180.613 254.365 185.723 267.089L185.213 271.706C185.213 271.706 180.205 255.255 176.768 252.692C176.768 252.702 193.392 233.982 115.302 191.639Z" fill="#82B378"/>
<path d="M185.723 267.101C185.723 267.101 193.972 283.345 186.293 301.149L183.817 300.176C183.817 300.176 188.526 280.15 184.462 269.362C180.398 258.574 185.723 267.101 185.723 267.101Z" fill="#82B378"/>
<path d="M132.054 304.159C127.754 297.908 127.265 292.086 127.265 292.086C127.265 292.086 139.188 283.476 132.158 274.424C132.158 274.424 126.739 268.989 121.475 268.042C121.475 268.042 125.815 282.247 123.14 282.888C120.464 283.528 119.436 266.716 119.436 266.716C119.436 266.716 105.31 261.75 100.101 262.86C100.101 262.86 110.002 276.081 107.25 276.046C104.499 276.011 93.556 262.736 93.556 262.736C93.556 262.736 79.5258 261.734 78.236 270.175C76.9462 278.616 80.9712 282.307 83.0656 282.589C85.16 282.871 98.2156 281.22 98.058 282.964C97.9003 284.708 89.3917 288.438 84.298 287.46C84.298 287.46 91.2384 300.327 98.2893 298.837C105.34 297.346 107.05 292.661 111.423 291.819C115.796 290.977 119.155 291.806 117.082 293.26C115.008 294.713 107.459 294.746 104.231 298.201C101.002 301.655 98.3344 303.854 105.107 304.47C111.879 305.085 123.66 302.887 125.461 297.499C125.541 297.262 125.615 297.04 125.686 296.823C125.641 297.057 125.565 297.284 125.461 297.499C126.763 298.075 128.976 301.283 130.541 303.759C130.772 304.186 131.128 304.77 131.646 305.559C131.851 305.919 132.033 306.214 132.152 306.419C135.143 312.023 135.043 322.301 135.043 322.301L136.5 322.521C138.496 311.937 132.054 304.159 132.054 304.159Z" fill="#0A40CE"/>
<path d="M99.7602 10.3594C99.5754 9.33547 97.2103 -1.66035 80.5941 0.214681C80.5941 0.214681 88.8814 -0.000545469 90.7939 3.44951C90.7939 3.44951 84.6134 -0.248371 80.3072 1.87449C76.0009 3.99735 74.4933 12.479 74.8503 15.1399C75.2073 17.8008 78.9238 25.9923 81.8914 26.3184C83.069 26.3881 84.2483 26.2151 85.3593 25.8097C84.728 27.238 84.1778 28.7024 83.7114 30.1956C79.0768 45.0393 87.8073 57.5873 93.1845 55.2525C96.6333 53.759 98.5362 59.8667 98.5362 59.8667L129.266 25.8553C129.266 25.8553 112.634 0.667944 99.7602 10.3594Z" fill="#001B5A"/>
<path d="M140.666 414.974L133.118 417.791C133.118 417.791 100.336 372.16 96.2897 332.006C95.5687 324.837 95.8101 317.894 97.368 311.478C97.368 311.478 97.0461 309.643 96.4861 306.396C96.2286 304.88 95.9067 303.055 95.543 300.965C94.4776 294.826 93.0098 286.449 91.3361 276.899C87.4736 254.93 82.4814 226.823 78.5996 206.178L80.6306 205.532L102.637 198.425L107.185 183.928L123.568 179.599C123.568 179.599 127.228 186.784 130.502 220.733C131.103 225.188 131.654 230.102 132.066 235.423C133.573 255.247 133.051 275.174 130.508 294.891C129.755 300.793 128.796 306.877 127.63 313.145C126.768 317.732 126.636 323.987 126.987 331.166C128.66 363.964 140.666 414.974 140.666 414.974Z" fill="#001B5A"/>
<path d="M112.8 192.75C112.8 192.75 105.078 222.64 103.955 230.817C102.832 238.994 99.9115 259.071 97.2158 273.959C93.8462 292.57 91.3189 299.76 91.3189 299.76C91.3189 299.76 89.4465 313.978 85.8433 322.6C83.7937 327.505 81.2943 329.114 79.9465 334.866C79.4129 337.143 75.593 345.99 72.8595 357.283C68.6875 374.519 64.8065 397.453 61.4135 411.423L50.4622 408.039C50.4622 408.039 45.5761 369.459 47.3032 351.785C49.0304 334.111 59.3075 317.525 59.3075 317.525C59.3075 317.525 56.4114 280.146 55.0955 256.195C53.7796 232.244 53.4107 189.79 53.4107 189.79L112.8 192.75Z" fill="#001B5A"/>
<path d="M137.867 132.721C138.131 133.007 138.414 133.276 138.714 133.525C150.469 144.423 166.306 154.056 174.773 156.182C180.343 157.598 192.628 155.7 202.831 153.613C209.626 152.282 215.546 150.805 217.987 150.23C218.764 150.048 219.2 149.911 219.2 149.911L218.135 143.069C218.135 143.069 212.02 142.588 204.422 141.736C193.834 140.497 180.426 138.599 176.99 136.579C169.02 131.869 155.035 112.113 143.815 99.6931C143.228 99.0166 142.644 98.3656 142.066 97.7274C141.646 97.2583 141.223 96.802 140.802 96.352C140.712 96.2306 140.604 96.1231 140.481 96.0329C139.965 95.5383 139.519 95.0756 139.105 94.6767C139.086 94.6288 139.015 94.5905 138.941 94.5491C136.949 92.5578 133.452 90.139 133.452 90.139C131.491 89.0285 129.874 88.8147 128.739 89.7624C127.581 90.9922 126.604 92.378 125.835 93.8789C125.53 94.4406 125.229 95.0628 124.943 95.7361C124.73 96.0973 124.571 96.4875 124.471 96.8945C123.348 99.8471 122.83 102.994 122.951 106.149C123.068 109.278 123.691 112.368 124.795 115.301C126.74 120.786 131.7 126.903 137.867 132.721Z" fill="#F4C0A2"/>
<path d="M128 104.097C124.03 106.727 119.083 108.847 112.915 110.108C89.7887 114.835 81.5303 94.8701 78.5996 81.2531C81.0383 79.9744 83.7123 79.2236 86.4521 79.0485C88.1172 78.8993 89.8686 78.815 91.3163 78.7858C93.953 76.8406 98.0279 68.7579 99.2296 56.0454L100.3 56.3696L118.268 61.9137C118.268 61.9137 117.277 67.7301 116.718 73.2385C116.283 77.5473 116.12 81.6681 116.897 82.7088C118.303 83.059 119.134 83.2859 119.134 83.2859C122.739 89.9192 125.708 96.8883 128 104.097Z" fill="#F4C0A2"/>
<path d="M136.37 118.385C136.264 118.884 136.133 119.351 135.988 119.87C131.914 133.543 128.609 188.204 128.609 188.204C130.768 195.036 91.1856 196.437 69.3553 193.278C61.4176 192.135 55.8285 190.38 55.4467 188.078C51.5388 179.244 61.0967 162.743 66.6185 154.355C69.0474 150.651 70.2695 146.282 70.1157 141.85C69.9521 137.517 69.5831 133.308 69.1307 129.368C68.2869 121.933 67.1575 115.442 66.5639 110.848C67.7094 109.702 68.8291 108.639 69.8719 107.628C71.4568 106.07 72.8493 104.628 73.8279 103.227C74.9027 101.701 75.4995 100.21 75.3679 98.6486C75.2585 97.4473 75.0547 96.2566 74.7583 95.0876C74.6204 94.5274 74.4664 93.9736 74.2995 93.4166C72.5284 87.589 69.2654 82.547 69.2654 82.547C75.1754 79.0794 86.559 78.9731 86.559 78.9731C86.559 78.9731 86.6392 79.5978 86.7804 80.6184C87.3355 84.7138 88.8948 95.2196 90.4894 97.0194C92.4818 99.2732 123.96 105.754 125.057 102.171C126.135 98.6293 119.635 83.7737 119.391 83.2102C119.39 83.2039 119.39 83.1973 119.391 83.1909C129.472 85.596 133.852 88.3134 134.051 88.4744C128.564 93.2653 139.229 105.275 136.37 118.385Z" fill="#0A40CE"/>
<path d="M117.866 61.4811C117.866 61.4811 116.882 67.1907 116.333 72.6042C106.242 71.2922 101.826 61.427 100.133 56.0454L117.866 61.4811Z" fill="#ED985F"/>
<path d="M120.724 67.5083C120.724 67.5083 96.1521 65.4824 97.6669 50.3884C99.1816 35.2943 97.0209 24.8648 112.779 25.5028C128.537 26.1409 130.995 32.2028 131.731 37.3777C132.468 42.5526 127.152 67.6455 120.724 67.5083Z" fill="#F4C0A2"/>
<path d="M132.428 28.3438C129.142 23.2943 126.213 24.0283 124.492 25.2669C111.992 16.4197 102.39 26.6038 102.39 26.6038C99.6869 37.5613 91.2666 43.1285 91.2666 43.1285C91.2666 43.1285 95.4098 46.3856 105.838 44.744C109.025 44.2426 112.018 42.2569 114.644 39.7469C111.521 43.9737 107.852 47.7429 103.738 50.9501C116.448 46.4282 123.02 29.5562 123.686 27.7703C125.028 29.2875 127.654 32.5511 128.259 35.5461C129.082 39.6191 128.833 47.8012 131.163 47.7618C131.163 47.7684 137.358 35.9131 132.428 28.3438Z" fill="#001B5A"/>
<path d="M240.568 142.373C238.128 144.712 235.659 150.557 228.148 150.438C223.663 150.452 219.184 150.749 214.736 151.325C213.714 151.506 213.133 151.577 213.133 151.577L212.867 143.012C212.985 143.017 213.104 143.007 213.22 142.983C215.035 142.708 224.249 141.283 227.897 138.847C231.995 136.085 241.568 138.647 241.568 138.647C241.568 138.647 243.034 140.079 240.568 142.373Z" fill="#F4C0A2"/>
<path d="M82.4004 426.708H44.608C44.608 426.708 43.7024 420.853 45.6737 416.413C47.5681 412.149 50.5281 410.213 49.8337 405.054C52.2337 407.569 56.1474 410.382 61.613 409.637C62.2818 410.74 65.933 416.644 68.1699 418.277C70.6275 420.079 81.6388 419.438 82.4004 426.708Z" fill="#233862"/>
<path d="M163.467 426.708H125.866C125.866 426.708 124.459 420.833 126.929 416.838C129.113 413.299 128.276 411.284 126.659 408.359C128.655 409.205 130.818 409.604 132.991 409.529C134.863 409.423 136.844 408.593 138.582 407.602C140.199 409.407 147.131 417.1 149.296 418.625C151.754 420.353 162.709 419.738 163.467 426.708Z" fill="#233862"/>
<path d="M115.333 58.5165C115.333 58.5165 115.655 61.1324 120.29 61.1408C120.29 61.1408 124.182 61.1408 124.2 58.2992C124.191 58.2992 120.524 55.9549 115.333 58.5165Z" fill="white"/>
<path d="M74.5629 154.692C73.0619 164.189 66.1836 183.248 69.3817 192.337C61.4298 191.198 55.8308 189.45 55.4483 187.156C51.5334 178.352 61.1084 161.908 66.64 153.55C69.0744 149.859 70.2997 145.505 70.1467 141.089C69.9827 136.77 69.6131 132.577 69.1599 128.649C69.1599 128.649 76.1604 144.605 74.5629 154.692Z" fill="#0A40CE"/>
<path d="M128 90.6631C128.265 99.1716 134.404 122.53 135.86 119.456C137.526 115.939 143.972 102.572 147 102.08C146.842 101.462 134.45 87.732 133.907 87.8905C133.907 87.8808 130.54 88.9096 128 90.6631Z" fill="#0A40CE"/>
<path d="M69.5 211.033L63 215.051C63 215.051 61.6138 213.274 59.1537 210.086C58.4125 209.121 58.0151 208.549 58.0151 208.549C56.0565 205.976 53.7793 202.817 51.2908 199.395L51.2498 199.353C47.0739 193.377 42.4911 186.578 38.9839 180.431C36.5459 176.076 34.6472 172.04 33.7199 168.868C33.6231 168.553 33.5493 168.23 33.4991 167.903C31.6856 159.863 35.0099 143.89 40.3054 128.307C41.034 126.155 41.8036 124.035 42.5385 121.961C45.355 114.318 48.5311 107.139 51.6851 101.334C53.5491 97.8441 55.4099 94.8014 57.1982 92.5306C57.7688 91.7522 58.3816 91.007 59.0339 90.2985C59.3745 89.9061 59.7183 89.5233 60.0526 89.1631C63.7649 89.4847 71.5521 90.9803 77.3334 97.7894C77.2356 98.1465 77.1315 98.5035 77.018 98.8701C74.6809 106.557 71.0695 115.991 67.3289 125.245C65.2946 130.323 63.2287 135.363 61.3899 140.104C60.2324 142.938 59.1821 145.64 58.2359 148.145C56.4571 152.925 55.1387 156.9 54.612 159.686C54.2587 161.493 54.7634 164.896 55.7222 169.077C57.3623 176.363 60.4847 186.176 63.3864 194.509C64.5754 197.986 65.7424 201.222 66.7202 203.904C68.3224 208.247 69.5 211.033 69.5 211.033Z" fill="#F4C0A2"/>
<path d="M72.416 122.281C66.1524 112.705 48.2002 108.585 48.2002 108.585C58.3301 76.029 84.9336 79.047 84.9336 79.047C84.9336 79.047 75.2518 112.916 72.416 122.281Z" fill="#0A40CE"/>
<path d="M63 215.051C63 215.051 65.1418 218.094 65.338 219.853C65.5341 221.613 67.1846 227.454 69.3255 229.31C71.4663 231.166 76.3433 234.872 77.0197 234.314C77.6961 233.757 79.6713 229.388 77.845 226.298C77.0231 224.902 75.9036 221.013 74.4257 220.072C72.6365 218.928 69.5 211.033 69.5 211.033L63 215.051Z" fill="#F4C0A2"/>
<path d="M69.5 211.033C69.5 211.033 74.7252 214.036 75.4012 216.11C76.0772 218.185 78.8647 222.367 78.5796 222.852C78.2944 223.337 73.9338 220.538 72.4599 217.962C70.9861 215.386 69.5 211.033 69.5 211.033Z" fill="#F4C0A2"/>
<path d="M214.133 142.346C214.133 142.346 219.79 140.392 220.434 139.044C221.078 137.695 222.942 137.108 225.192 136.17C227.442 135.231 228.794 133.531 229.116 133.766C229.438 134.002 229.501 135.173 228.599 136.053C227.697 136.934 223.905 143.086 222.449 143.792C220.994 144.498 214.133 142.346 214.133 142.346Z" fill="#F4C0A2"/>
<path d="M109.054 274.058L225.873 203.73C229.035 201.827 232.651 200.821 236.336 200.821C240.021 200.821 243.637 201.827 246.798 203.73L363.618 274.058V388.681L109.054 375.847V274.058Z" fill="#193570"/>
<path d="M341.739 164.827H131V347.966H341.739V164.827Z" fill="#00EA66"/>
<path d="M363.618 273.743V426.995H109.054V273.743L236.335 350.37L363.618 273.743Z" fill="#0A40CE"/>
<path d="M109.054 426.995L225.65 342.936C228.765 340.69 232.501 339.482 236.335 339.482C240.168 339.482 243.904 340.69 247.019 342.936L363.618 426.995H109.054Z" fill="#193570"/>
<path d="M283.832 201.065H188.167C187.498 201.063 186.857 200.794 186.383 200.316C185.91 199.839 185.643 199.191 185.641 198.516C185.643 197.84 185.91 197.193 186.383 196.715C186.857 196.237 187.498 195.968 188.167 195.966H283.832C284.502 195.968 285.143 196.237 285.616 196.715C286.09 197.193 286.356 197.84 286.358 198.516C286.356 199.191 286.09 199.839 285.616 200.316C285.143 200.794 284.502 201.063 283.832 201.065Z" fill="white"/>
<path d="M308.474 211.293H163.526C162.857 211.291 162.215 211.021 161.742 210.544C161.269 210.066 161.002 209.419 161 208.743C161.002 208.068 161.269 207.42 161.742 206.943C162.216 206.466 162.857 206.197 163.526 206.196H308.474C309.143 206.197 309.784 206.466 310.258 206.943C310.731 207.42 310.998 208.068 311 208.743C310.998 209.419 310.731 210.066 310.258 210.544C309.785 211.021 309.143 211.291 308.474 211.293Z" fill="white"/>
<path d="M289.677 243.02H184.803C184.318 243.019 183.854 242.824 183.512 242.478C183.169 242.132 182.976 241.664 182.975 241.175C182.976 240.686 183.169 240.218 183.512 239.872C183.854 239.526 184.318 239.332 184.803 239.33H289.677C290.161 239.332 290.625 239.527 290.967 239.873C291.31 240.218 291.503 240.686 291.505 241.175C291.503 241.664 291.31 242.132 290.967 242.477C290.625 242.823 290.161 243.018 289.677 243.02Z" fill="white"/>
<path d="M195.333 252.653H165.764C165.28 252.651 164.816 252.456 164.474 252.11C164.132 251.765 163.938 251.297 163.936 250.808C163.938 250.319 164.132 249.851 164.474 249.506C164.816 249.16 165.28 248.965 165.764 248.963H195.333C195.817 248.965 196.281 249.16 196.623 249.506C196.965 249.851 197.158 250.319 197.16 250.808C197.158 251.297 196.965 251.765 196.623 252.11C196.281 252.456 195.817 252.651 195.333 252.653Z" fill="white"/>
<path d="M239.93 252.653H204.203C203.719 252.651 203.256 252.456 202.914 252.11C202.572 251.765 202.379 251.297 202.378 250.808C202.379 250.32 202.572 249.852 202.914 249.506C203.256 249.16 203.719 248.965 204.203 248.963H239.93C240.414 248.965 240.878 249.16 241.221 249.506C241.563 249.851 241.756 250.319 241.758 250.808C241.756 251.297 241.563 251.765 241.221 252.11C240.878 252.456 240.414 252.651 239.93 252.653Z" fill="white"/>
<path d="M308.716 252.653H246.951C246.466 252.651 246.003 252.456 245.66 252.11C245.318 251.765 245.125 251.297 245.123 250.808C245.125 250.319 245.318 249.851 245.66 249.506C246.003 249.16 246.466 248.965 246.951 248.963H308.711C309.195 248.965 309.659 249.16 310.001 249.506C310.343 249.851 310.537 250.319 310.539 250.808C310.537 251.296 310.344 251.763 310.003 252.109C309.662 252.454 309.199 252.65 308.716 252.653Z" fill="white"/>
<path d="M240.165 263.853H182.715C182.231 263.852 181.767 263.657 181.425 263.311C181.083 262.965 180.891 262.497 180.89 262.008C180.889 261.518 181.08 261.047 181.422 260.699C181.765 260.352 182.23 260.155 182.715 260.153H240.16C240.644 260.155 241.108 260.35 241.45 260.696C241.792 261.041 241.986 261.509 241.988 261.998C241.989 262.488 241.798 262.958 241.456 263.306C241.115 263.653 240.65 263.85 240.165 263.853Z" fill="white"/>
<path d="M291.757 263.853H246.512C246.028 263.852 245.564 263.657 245.222 263.311C244.88 262.965 244.688 262.497 244.687 262.008C244.688 261.52 244.881 261.052 245.223 260.706C245.565 260.36 246.028 260.165 246.512 260.163H291.757C292.241 260.165 292.705 260.36 293.047 260.706C293.39 261.051 293.583 261.519 293.585 262.008C293.584 262.497 293.391 262.965 293.048 263.311C292.706 263.657 292.242 263.852 291.757 263.853Z" fill="white"/>
<path d="M256.303 286.629C252.855 289.467 249.157 291.981 245.255 294.139C245.584 293.11 245.86 292.016 245.809 291.051C245.74 289.724 244.69 289.142 243.639 288.592C243.384 288.455 243.13 288.311 242.895 288.167C243.113 287.977 243.265 287.722 243.328 287.438C243.39 287.155 243.361 286.858 243.244 286.593C242.801 285.589 241.557 285.751 241.136 286.68C241.061 286.843 241.012 287.016 240.991 287.195C240.834 287.116 240.695 287.004 240.583 286.868C241.223 285.661 241.827 284.434 242.383 283.178C242.431 283.037 242.432 282.884 242.386 282.742C242.34 282.599 242.249 282.476 242.128 282.391C241.682 282.065 241.13 281.926 240.585 282.002C240.04 282.077 239.546 282.362 239.204 282.798C238.325 283.845 238.546 285.437 238.967 286.626C238.998 286.711 239.031 286.793 239.064 286.883C238.248 288.367 237.364 289.812 236.41 291.219L236.143 290.949C235.866 290.675 235.617 290.373 235.401 290.048C235.842 288.893 236.117 287.68 236.219 286.446C236.265 285.888 235.709 285.612 235.25 285.785C234.641 286.023 234.13 286.465 233.802 287.036C233.474 287.607 233.348 288.274 233.446 288.926C233.507 289.386 233.648 289.831 233.864 290.241C233.577 290.875 233.235 291.483 232.844 292.058C232.791 292.132 232.754 292.218 232.736 292.309C232.719 292.4 232.721 292.493 232.743 292.583C232.764 292.673 232.805 292.757 232.862 292.829C232.92 292.902 232.992 292.96 233.074 293.002C232.656 294.409 232.09 295.853 231.126 296.861C230.338 297.69 228.87 298.32 227.912 297.335C227.305 296.712 227.229 295.67 227.147 294.847C226.915 292.797 226.821 290.734 226.864 288.672C226.872 287.698 227.029 286.732 227.331 285.808C227.535 285.239 227.817 284.377 228.095 285.358C228.228 285.836 228.044 286.582 227.996 287.071C227.909 287.943 229.25 288.044 229.337 287.174C229.439 286.145 229.892 284.004 228.745 283.364C227.795 282.831 226.92 283.595 226.479 284.393C224.896 287.262 225.526 291.206 225.766 294.324C225.954 296.812 226.877 299.866 230.025 299.074C232.987 298.33 234.075 294.561 234.756 291.967C234.797 291.824 234.79 291.671 234.736 291.533L234.771 291.468L235.143 291.841C235.317 291.996 235.485 292.163 235.653 292.333C235.342 292.769 235.024 293.197 234.7 293.619C234.618 293.745 234.58 293.893 234.589 294.043C234.599 294.192 234.657 294.334 234.753 294.448C235.75 295.657 237.542 294.759 237.506 293.272C237.499 292.949 237.422 292.631 237.282 292.341C238.218 290.982 239.092 289.584 239.902 288.147C240.111 288.365 240.362 288.536 240.641 288.649C240.919 288.761 241.219 288.813 241.519 288.8H241.654C241.999 289.156 242.394 289.459 242.826 289.698C243.209 289.917 243.65 290.051 243.994 290.334C244.631 290.848 244.442 291.463 244.302 292.212C244.091 293.202 243.83 294.18 243.52 295.142C242.166 295.914 240.83 296.926 240.374 298.487C239.959 299.923 240.328 301.433 241.547 302.324C241.632 302.382 241.73 302.419 241.833 302.434C241.935 302.448 242.04 302.439 242.138 302.406C242.236 302.374 242.326 302.319 242.4 302.246C242.474 302.174 242.531 302.085 242.566 301.987C243.331 300.09 244.019 298.163 244.605 296.205C244.623 296.143 244.644 296.079 244.664 296.017C245.86 295.33 247.111 294.731 248.291 294.021C251.428 292.141 254.411 290.012 257.213 287.655C257.858 287.089 256.968 286.068 256.303 286.629ZM239.956 284.828C239.956 284.282 240.229 283.284 240.848 283.299C240.568 283.912 240.28 284.519 239.976 285.118C239.966 285.013 239.959 284.915 239.956 284.82V284.828ZM241.664 300.523C241.098 299.452 241.919 298.132 242.834 297.26C242.472 298.343 242.079 299.432 241.664 300.51V300.523Z" fill="white"/>
</svg>
