<svg width="600" height="632" viewBox="0 0 600 632" fill="none" xmlns="http://www.w3.org/2000/svg">
<g filter="url(#filter0_d)">
<rect x="30" y="16" width="540" height="572" rx="16" fill="#00EA66"/>
</g>
<g filter="url(#filter1_d)">
<rect x="30" y="16" width="516" height="572" rx="16" fill="#00EA66"/>
</g>
<path d="M450.506 456.39C439.366 467.891 429.397 474.651 421.765 479.75C347.333 529.524 262.248 515.178 235.942 510.274C193.5 502.362 157.673 496.781 126.891 468.93C56.9473 405.65 60.3481 273.623 113.795 191.848C120.132 182.15 173.498 102.925 258.766 91.765C260.852 91.4925 262.408 91.3368 263.772 91.1919C276.963 89.7903 358.703 82.4117 425.355 138.335C434.897 146.341 450.251 160.781 464.488 182.803C516.55 263.327 516.715 388.042 450.506 456.39Z" fill="white"/>
<path d="M412.938 356.013C412.938 356.013 403.487 343.416 413.525 336.42C413.525 336.42 420.775 332.605 426.45 333.309C426.45 333.309 417.534 346.413 420.06 347.927C422.587 349.44 428.95 332.603 428.95 332.603C428.95 332.603 444.945 332.052 449.906 334.845C449.906 334.845 435.62 345.178 438.441 346.022C441.262 346.866 456.625 336.811 456.625 336.811C456.625 336.811 471.265 340.274 469.912 349.302C468.559 358.33 463.287 360.812 461.062 360.419C458.836 360.026 446.038 354.183 445.639 356.011C445.24 357.84 452.754 364.37 458.263 364.998C458.263 364.998 447.111 375.909 440.386 372.14C433.66 368.37 433.396 363.034 429.197 360.777C424.998 358.521 421.309 358.295 422.967 360.432C424.626 362.569 432.326 365.027 434.524 369.579C436.723 374.131 438.756 377.235 431.658 375.699C424.56 374.164 413.22 368.152 413.083 362.077L412.938 356.013Z" fill="#0A40CE"/>
<path d="M462.625 349.094C462.625 349.094 422.531 345.013 412.937 356.013C412.937 356.013 410.608 361.803 404.234 366.807L403.133 369.327C403.133 369.327 410.554 362.381 413.075 362.091C413.075 362.101 410.061 347.527 462.625 349.094Z" fill="#82B378"/>
<path d="M404.234 366.808C404.234 366.808 395.21 372.681 393.897 384.101L395.455 384.34C395.455 384.34 398.946 372.659 404.214 368.337C409.481 364.016 404.234 366.808 404.234 366.808Z" fill="#82B378"/>
<path d="M366.572 325.896C366.572 325.896 345.618 314.095 355.398 298.074C355.398 298.074 363.22 288.241 371.602 285.721C371.602 285.721 367.133 309.603 371.602 310.163C376.071 310.723 374.673 283.193 374.673 283.193C374.673 283.193 396.745 272.516 405.407 273.358C405.407 273.358 391.717 296.678 396.194 296.116C400.672 295.554 416.032 271.954 416.032 271.954C416.032 271.954 438.663 267.74 442.295 281.219C445.927 294.697 440.06 301.448 436.706 302.29C433.353 303.132 411.842 302.852 412.398 305.662C412.955 308.473 427.487 312.967 435.588 310.439C435.588 310.439 426.648 332.634 414.911 331.51C403.173 330.386 399.543 323.082 392.28 322.52C385.016 321.957 379.707 323.924 383.339 325.892C386.971 327.86 399.265 326.536 405.131 331.551C410.996 336.566 415.748 339.659 404.852 341.905C393.956 344.151 374.399 342.749 370.486 334.32L366.572 325.896Z" fill="#0A40CE"/>
<path d="M431.948 285.437C431.948 285.437 373.276 304.542 366.572 325.896C366.572 325.896 366.85 335.449 360.982 346.405V350.62C360.982 350.62 367.124 336.291 370.482 334.324C370.482 334.324 357.35 315.779 431.948 285.437Z" fill="#82B378"/>
<path d="M360.983 346.405C360.983 346.405 351.936 360.222 357.093 377.042L359.421 376.412C359.421 376.412 357.169 357.883 361.896 348.569C366.623 339.255 360.983 346.405 360.983 346.405Z" fill="#82B378"/>
<path d="M256.071 331.942C256.071 331.942 280.467 321.564 271.663 302.823C271.663 302.823 264.277 291.088 255.396 287.302C255.396 287.302 257.416 314.017 252.449 314.089C247.483 314.161 252.333 284.156 252.333 284.156C252.333 284.156 229.432 269.766 219.838 269.634C219.838 269.634 232.03 296.857 227.208 295.698C222.387 294.539 208.373 266.801 208.373 266.801C208.373 266.801 184.082 259.425 178.482 273.762C172.883 288.099 178.493 296.202 182.065 297.534C185.638 298.866 209.247 301.18 208.297 304.19C207.347 307.2 190.883 310.356 182.309 306.599C182.309 306.599 189.431 332.01 202.426 332.21C215.42 332.41 220.276 324.838 228.31 325.115C236.343 325.393 241.918 328.187 237.701 329.9C233.483 331.613 220.172 328.665 213.133 333.447C206.094 338.23 200.522 341.036 212.191 344.828C223.861 348.62 245.462 349.462 250.765 340.711L256.071 331.942Z" fill="#0A40CE"/>
<path d="M189.302 279.639C189.302 279.639 251.296 307.725 256.07 331.932C256.07 331.932 254.613 342.366 259.723 355.089L259.213 359.707C259.213 359.707 254.205 343.255 250.768 340.692C250.768 340.702 267.392 321.982 189.302 279.639Z" fill="#82B378"/>
<path d="M259.723 355.101C259.723 355.101 267.972 371.345 260.293 389.149L257.817 388.175C257.817 388.175 262.526 368.15 258.462 357.362C254.398 346.574 259.723 355.101 259.723 355.101Z" fill="#82B378"/>
<path d="M206.054 392.159C201.754 385.909 201.265 380.086 201.265 380.086C201.265 380.086 213.188 371.477 206.158 362.424C206.158 362.424 200.739 356.989 195.475 356.042C195.475 356.042 199.815 370.248 197.14 370.888C194.464 371.528 193.436 354.716 193.436 354.716C193.436 354.716 179.31 349.75 174.101 350.86C174.101 350.86 184.002 364.082 181.25 364.047C178.499 364.012 167.556 350.737 167.556 350.737C167.556 350.737 153.526 349.734 152.236 358.175C150.946 366.616 154.971 370.307 157.066 370.589C159.16 370.871 172.216 369.22 172.058 370.964C171.9 372.708 163.392 376.438 158.298 375.46C158.298 375.46 165.238 388.328 172.289 386.837C179.34 385.347 181.05 380.661 185.423 379.819C189.796 378.977 193.155 379.806 191.082 381.26C189.008 382.713 181.459 382.746 178.231 386.201C175.002 389.656 172.334 391.854 179.107 392.47C185.879 393.086 197.66 390.887 199.461 385.499C199.541 385.262 199.615 385.04 199.686 384.824C199.641 385.058 199.565 385.285 199.461 385.499C200.763 386.075 202.976 389.283 204.541 391.76C204.772 392.186 205.128 392.771 205.646 393.559C205.851 393.919 206.033 394.214 206.152 394.42C209.143 400.024 209.043 410.301 209.043 410.301L210.5 410.521C212.496 399.937 206.054 392.159 206.054 392.159Z" fill="#0A40CE"/>
<path d="M173.76 98.3594C173.575 97.3355 171.21 86.3397 154.594 88.2147C154.594 88.2147 162.881 87.9995 164.794 91.4495C164.794 91.4495 158.613 87.7516 154.307 89.8745C150.001 91.9973 148.493 100.479 148.85 103.14C149.207 105.801 152.924 113.992 155.891 114.318C157.069 114.388 158.248 114.215 159.359 113.81C158.728 115.238 158.178 116.702 157.711 118.196C153.077 133.039 161.807 145.587 167.185 143.253C170.633 141.759 172.536 147.867 172.536 147.867L203.266 113.855C203.266 113.855 186.634 88.6679 173.76 98.3594Z" fill="#001B5A"/>
<path d="M214.666 502.974L207.118 505.792C207.118 505.792 174.336 460.161 170.29 420.006C169.569 412.837 169.81 405.894 171.368 399.478C171.368 399.478 171.046 397.643 170.486 394.396C170.229 392.881 169.907 391.055 169.543 388.965C168.478 382.827 167.01 374.449 165.336 364.899C161.474 342.93 156.481 314.823 152.6 294.179L154.631 293.532L176.637 286.425L181.185 271.929L197.568 267.599C197.568 267.599 201.228 274.785 204.502 308.733C205.103 313.188 205.654 318.102 206.066 323.423C207.573 343.247 207.051 363.174 204.508 382.891C203.755 388.793 202.796 394.877 201.63 401.145C200.768 405.733 200.636 411.987 200.987 419.166C202.66 451.964 214.666 502.974 214.666 502.974Z" fill="#001B5A"/>
<path d="M186.8 280.75C186.8 280.75 179.078 310.64 177.955 318.817C176.832 326.994 173.911 347.071 171.216 361.959C167.846 380.57 165.319 387.76 165.319 387.76C165.319 387.76 163.446 401.977 159.843 410.6C157.794 415.505 155.294 417.114 153.946 422.866C153.413 425.143 149.593 433.99 146.86 445.283C142.688 462.519 138.806 485.453 135.414 499.423L124.462 496.039C124.462 496.039 119.576 457.459 121.303 439.785C123.03 422.111 133.308 405.525 133.308 405.525C133.308 405.525 130.411 368.145 129.095 344.195C127.78 320.244 127.411 277.789 127.411 277.789L186.8 280.75Z" fill="#001B5A"/>
<path d="M211.867 220.721C212.131 221.007 212.414 221.276 212.714 221.525C224.469 232.423 240.306 242.056 248.773 244.182C254.343 245.598 266.628 243.7 276.831 241.613C283.626 240.282 289.546 238.805 291.987 238.23C292.764 238.048 293.2 237.911 293.2 237.911L292.135 231.069C292.135 231.069 286.02 230.588 278.422 229.736C267.834 228.497 254.426 226.599 250.99 224.579C243.02 219.869 229.035 200.113 217.815 187.693C217.228 187.017 216.644 186.366 216.066 185.727C215.646 185.258 215.223 184.802 214.802 184.352C214.712 184.231 214.604 184.123 214.481 184.033C213.965 183.538 213.519 183.076 213.105 182.677C213.086 182.629 213.015 182.591 212.941 182.549C210.949 180.558 207.452 178.139 207.452 178.139C205.491 177.028 203.874 176.815 202.739 177.762C201.581 178.992 200.604 180.378 199.835 181.879C199.53 182.441 199.229 183.063 198.943 183.736C198.73 184.097 198.571 184.488 198.471 184.894C197.348 187.847 196.83 190.994 196.951 194.149C197.068 197.278 197.691 200.368 198.795 203.301C200.74 208.786 205.7 214.903 211.867 220.721Z" fill="#F4C0A2"/>
<path d="M202 192.097C198.03 194.726 193.083 196.847 186.915 198.108C163.789 202.835 155.53 182.87 152.6 169.253C155.038 167.974 157.712 167.223 160.452 167.048C162.117 166.899 163.869 166.815 165.316 166.786C167.953 164.84 172.028 156.758 173.23 144.045L174.3 144.369L192.268 149.913C192.268 149.913 191.277 155.73 190.718 161.238C190.283 165.547 190.12 169.668 190.897 170.709C192.303 171.059 193.134 171.286 193.134 171.286C196.739 177.919 199.708 184.888 202 192.097Z" fill="#F4C0A2"/>
<path d="M210.37 206.385C210.264 206.884 210.133 207.351 209.988 207.87C205.914 221.543 202.609 276.204 202.609 276.204C204.768 283.036 165.186 284.437 143.355 281.278C135.418 280.135 129.828 278.38 129.447 276.078C125.539 267.244 135.097 250.743 140.618 242.355C143.047 238.651 144.269 234.282 144.116 229.85C143.952 225.517 143.583 221.308 143.131 217.368C142.287 209.933 141.158 203.442 140.564 198.848C141.709 197.702 142.829 196.639 143.872 195.628C145.457 194.07 146.849 192.628 147.828 191.227C148.903 189.701 149.499 188.21 149.368 186.649C149.259 185.447 149.055 184.257 148.758 183.088C148.62 182.527 148.466 181.974 148.3 181.417C146.528 175.589 143.265 170.547 143.265 170.547C149.175 167.079 160.559 166.973 160.559 166.973C160.559 166.973 160.639 167.598 160.78 168.618C161.335 172.714 162.895 183.22 164.489 185.019C166.482 187.273 197.96 193.754 199.057 190.171C200.135 186.629 193.635 171.774 193.391 171.21C193.39 171.204 193.39 171.197 193.391 171.191C203.472 173.596 207.852 176.313 208.051 176.474C202.564 181.265 213.229 193.275 210.37 206.385Z" fill="#0A40CE"/>
<path d="M191.866 149.481C191.866 149.481 190.882 155.19 190.333 160.604C180.242 159.292 175.826 149.427 174.133 144.045L191.866 149.481Z" fill="#ED985F"/>
<path d="M194.724 155.509C194.724 155.509 170.152 153.483 171.667 138.389C173.182 123.295 171.021 112.865 186.779 113.503C202.537 114.141 204.995 120.203 205.731 125.378C206.468 130.553 201.152 155.646 194.724 155.509Z" fill="#F4C0A2"/>
<path d="M206.428 116.344C203.142 111.295 200.213 112.029 198.492 113.267C185.992 104.42 176.39 114.604 176.39 114.604C173.687 125.562 165.267 131.129 165.267 131.129C165.267 131.129 169.41 134.386 179.838 132.744C183.025 132.243 186.018 130.257 188.644 127.747C185.521 131.974 181.852 135.743 177.738 138.95C190.448 134.428 197.02 117.556 197.686 115.771C199.028 117.288 201.654 120.551 202.259 123.546C203.082 127.619 202.833 135.801 205.163 135.762C205.163 135.769 211.358 123.913 206.428 116.344Z" fill="#001B5A"/>
<path d="M314.568 230.373C312.128 232.712 309.659 238.557 302.148 238.438C297.663 238.452 293.184 238.749 288.736 239.325C287.714 239.506 287.133 239.577 287.133 239.577L286.867 231.012C286.985 231.017 287.104 231.007 287.22 230.983C289.035 230.708 298.249 229.283 301.897 226.847C305.995 224.085 315.568 226.647 315.568 226.647C315.568 226.647 317.034 228.079 314.568 230.373Z" fill="#F4C0A2"/>
<path d="M156.4 514.708H118.608C118.608 514.708 117.702 508.853 119.674 504.413C121.568 500.148 124.528 498.213 123.834 493.054C126.234 495.568 130.147 498.382 135.613 497.637C136.282 498.74 139.933 504.644 142.17 506.277C144.627 508.079 155.639 507.438 156.4 514.708Z" fill="#233862"/>
<path d="M237.467 514.708H199.866C199.866 514.708 198.459 508.833 200.929 504.838C203.113 501.299 202.276 499.284 200.659 496.359C202.655 497.205 204.818 497.604 206.991 497.529C208.863 497.423 210.844 496.593 212.582 495.602C214.199 497.407 221.131 505.1 223.296 506.625C225.754 508.353 236.709 507.738 237.467 514.708Z" fill="#233862"/>
<path d="M189.333 146.517C189.333 146.517 189.655 149.133 194.29 149.141C194.29 149.141 198.182 149.141 198.2 146.299C198.191 146.299 194.524 143.955 189.333 146.517Z" fill="white"/>
<path d="M148.563 242.692C147.062 252.189 140.184 271.248 143.382 280.337C135.43 279.198 129.831 277.45 129.448 275.156C125.533 266.352 135.108 249.908 140.64 241.55C143.074 237.859 144.3 233.505 144.147 229.089C143.983 224.77 143.613 220.577 143.16 216.649C143.16 216.649 150.16 232.605 148.563 242.692Z" fill="#0A40CE"/>
<path d="M202 178.663C202.265 187.172 208.404 210.53 209.86 207.456C211.526 203.939 217.972 190.572 221 190.08C220.842 189.462 208.45 175.732 207.907 175.891C207.907 175.881 204.54 176.91 202 178.663Z" fill="#0A40CE"/>
<path d="M143.5 299.033L137 303.051C137 303.051 135.614 301.274 133.154 298.086C132.413 297.121 132.015 296.549 132.015 296.549C130.057 293.976 127.779 290.817 125.291 287.395L125.25 287.353C121.074 281.377 116.491 274.578 112.984 268.431C110.546 264.076 108.647 260.04 107.72 256.868C107.623 256.553 107.549 256.23 107.499 255.903C105.686 247.863 109.01 231.89 114.305 216.307C115.034 214.155 115.804 212.035 116.538 209.961C119.355 202.318 122.531 195.139 125.685 189.334C127.549 185.844 129.41 182.801 131.198 180.531C131.769 179.752 132.382 179.007 133.034 178.298C133.375 177.906 133.718 177.523 134.053 177.163C137.765 177.485 145.552 178.98 151.333 185.789C151.236 186.146 151.132 186.503 151.018 186.87C148.681 194.557 145.07 203.991 141.329 213.245C139.295 218.323 137.229 223.363 135.39 228.104C134.232 230.938 133.182 233.64 132.236 236.145C130.457 240.925 129.139 244.9 128.612 247.686C128.259 249.493 128.763 252.896 129.722 257.077C131.362 264.363 134.485 274.176 137.386 282.509C138.575 285.986 139.742 289.222 140.72 291.904C142.322 296.247 143.5 299.033 143.5 299.033Z" fill="#F4C0A2"/>
<path d="M146.416 210.281C140.152 200.705 122.2 196.585 122.2 196.585C132.33 164.029 158.934 167.047 158.934 167.047C158.934 167.047 149.252 200.916 146.416 210.281Z" fill="#0A40CE"/>
<path d="M137 303.051C137 303.051 139.142 306.094 139.338 307.853C139.534 309.613 141.185 315.454 143.325 317.31C145.466 319.166 150.343 322.872 151.02 322.314C151.696 321.757 153.671 317.388 151.845 314.298C151.023 312.902 149.904 309.013 148.426 308.072C146.637 306.928 143.5 299.033 143.5 299.033L137 303.051Z" fill="#F4C0A2"/>
<path d="M143.5 299.033C143.5 299.033 148.725 302.036 149.401 304.11C150.077 306.185 152.865 310.367 152.58 310.852C152.294 311.337 147.934 308.538 146.46 305.962C144.986 303.386 143.5 299.033 143.5 299.033Z" fill="#F4C0A2"/>
<path d="M288.133 230.346C288.133 230.346 293.79 228.392 294.434 227.044C295.078 225.695 296.942 225.108 299.192 224.17C301.442 223.231 302.794 221.531 303.116 221.767C303.438 222.002 303.501 223.173 302.599 224.054C301.697 224.934 297.905 231.086 296.449 231.792C294.994 232.499 288.133 230.346 288.133 230.346Z" fill="#F4C0A2"/>
<path d="M183.054 362.058L299.873 291.73C303.035 289.827 306.651 288.821 310.336 288.821C314.021 288.821 317.637 289.827 320.798 291.73L437.618 362.058V476.681L183.054 463.847V362.058Z" fill="#193570"/>
<path d="M415.739 252.827H205V435.966H415.739V252.827Z" fill="#00EA66"/>
<path d="M437.618 361.743V514.995H183.054V361.743L310.335 438.37L437.618 361.743Z" fill="#0A40CE"/>
<path d="M183.054 514.995L299.65 430.936C302.765 428.69 306.501 427.482 310.335 427.482C314.168 427.482 317.904 428.69 321.019 430.936L437.618 514.995H183.054Z" fill="#193570"/>
<path d="M357.832 289.065H262.167C261.498 289.063 260.857 288.794 260.383 288.316C259.91 287.839 259.643 287.191 259.641 286.516C259.643 285.84 259.91 285.193 260.383 284.715C260.857 284.237 261.498 283.968 262.167 283.966H357.832C358.502 283.968 359.143 284.237 359.616 284.715C360.09 285.193 360.356 285.84 360.358 286.516C360.356 287.191 360.09 287.839 359.616 288.316C359.143 288.794 358.502 289.063 357.832 289.065Z" fill="white"/>
<path d="M382.474 299.293H237.526C236.857 299.291 236.215 299.021 235.742 298.544C235.269 298.066 235.002 297.419 235 296.743C235.002 296.068 235.269 295.42 235.742 294.943C236.216 294.466 236.857 294.197 237.526 294.196H382.474C383.143 294.197 383.784 294.466 384.258 294.943C384.731 295.42 384.998 296.068 385 296.743C384.998 297.419 384.731 298.066 384.258 298.544C383.785 299.021 383.143 299.291 382.474 299.293Z" fill="white"/>
<path d="M363.677 331.02H258.803C258.318 331.019 257.854 330.824 257.512 330.478C257.169 330.132 256.976 329.664 256.975 329.175C256.976 328.686 257.169 328.218 257.512 327.872C257.854 327.526 258.318 327.332 258.803 327.33H363.677C364.161 327.332 364.625 327.527 364.967 327.873C365.31 328.218 365.503 328.686 365.505 329.175C365.503 329.664 365.31 330.132 364.967 330.477C364.625 330.823 364.161 331.018 363.677 331.02Z" fill="white"/>
<path d="M269.333 340.653H239.764C239.28 340.651 238.816 340.456 238.474 340.11C238.132 339.765 237.938 339.297 237.936 338.808C237.938 338.319 238.132 337.851 238.474 337.506C238.816 337.16 239.28 336.965 239.764 336.963H269.333C269.817 336.965 270.281 337.16 270.623 337.506C270.965 337.851 271.158 338.319 271.16 338.808C271.158 339.297 270.965 339.765 270.623 340.11C270.281 340.456 269.817 340.651 269.333 340.653Z" fill="white"/>
<path d="M313.93 340.653H278.203C277.719 340.651 277.256 340.456 276.914 340.11C276.572 339.765 276.379 339.297 276.378 338.808C276.379 338.32 276.572 337.852 276.914 337.506C277.256 337.16 277.719 336.965 278.203 336.963H313.93C314.414 336.965 314.878 337.16 315.221 337.506C315.563 337.851 315.756 338.319 315.758 338.808C315.756 339.297 315.563 339.765 315.221 340.11C314.878 340.456 314.414 340.651 313.93 340.653Z" fill="white"/>
<path d="M382.716 340.653H320.951C320.466 340.651 320.003 340.456 319.66 340.11C319.318 339.765 319.125 339.297 319.123 338.808C319.125 338.319 319.318 337.851 319.66 337.506C320.003 337.16 320.466 336.965 320.951 336.963H382.711C383.195 336.965 383.659 337.16 384.001 337.506C384.343 337.851 384.537 338.319 384.539 338.808C384.537 339.296 384.344 339.763 384.003 340.109C383.662 340.454 383.199 340.65 382.716 340.653Z" fill="white"/>
<path d="M314.165 351.853H256.715C256.231 351.852 255.767 351.657 255.425 351.311C255.083 350.965 254.891 350.497 254.89 350.008C254.889 349.518 255.08 349.047 255.422 348.699C255.765 348.352 256.23 348.155 256.715 348.153H314.16C314.644 348.155 315.108 348.35 315.45 348.696C315.792 349.041 315.986 349.509 315.988 349.998C315.989 350.488 315.798 350.958 315.456 351.306C315.115 351.653 314.65 351.85 314.165 351.853Z" fill="white"/>
<path d="M365.757 351.853H320.512C320.028 351.852 319.564 351.657 319.222 351.311C318.88 350.965 318.688 350.497 318.687 350.008C318.688 349.52 318.881 349.052 319.223 348.706C319.565 348.36 320.028 348.165 320.512 348.163H365.757C366.241 348.165 366.705 348.36 367.047 348.706C367.39 349.051 367.583 349.519 367.585 350.008C367.584 350.497 367.391 350.965 367.048 351.311C366.706 351.657 366.242 351.852 365.757 351.853Z" fill="white"/>
<path d="M330.303 374.629C326.855 377.467 323.157 379.981 319.255 382.139C319.584 381.11 319.86 380.016 319.809 379.051C319.74 377.724 318.69 377.142 317.639 376.592C317.384 376.455 317.13 376.311 316.895 376.167C317.113 375.977 317.265 375.722 317.328 375.438C317.39 375.155 317.361 374.858 317.244 374.593C316.801 373.589 315.557 373.751 315.136 374.68C315.061 374.843 315.012 375.016 314.991 375.195C314.834 375.116 314.695 375.004 314.583 374.868C315.223 373.661 315.827 372.434 316.383 371.178C316.431 371.037 316.432 370.884 316.386 370.742C316.34 370.599 316.249 370.476 316.128 370.391C315.682 370.065 315.13 369.926 314.585 370.002C314.04 370.077 313.546 370.362 313.204 370.798C312.325 371.845 312.546 373.437 312.967 374.626C312.998 374.711 313.031 374.793 313.064 374.883C312.248 376.367 311.364 377.812 310.41 379.219L310.143 378.949C309.866 378.675 309.617 378.373 309.401 378.048C309.842 376.893 310.117 375.68 310.219 374.446C310.265 373.888 309.709 373.612 309.25 373.785C308.641 374.023 308.13 374.465 307.802 375.036C307.474 375.607 307.348 376.274 307.446 376.926C307.507 377.386 307.648 377.831 307.864 378.241C307.577 378.875 307.235 379.483 306.844 380.058C306.791 380.132 306.754 380.218 306.736 380.309C306.719 380.4 306.721 380.493 306.743 380.583C306.764 380.673 306.805 380.757 306.862 380.829C306.92 380.902 306.992 380.96 307.074 381.002C306.656 382.409 306.09 383.853 305.126 384.861C304.338 385.69 302.87 386.32 301.912 385.335C301.305 384.712 301.229 383.67 301.147 382.847C300.915 380.797 300.821 378.734 300.864 376.672C300.872 375.698 301.029 374.732 301.331 373.808C301.535 373.239 301.817 372.377 302.095 373.358C302.228 373.836 302.044 374.582 301.996 375.071C301.909 375.943 303.25 376.044 303.337 375.174C303.439 374.145 303.892 372.004 302.745 371.364C301.795 370.831 300.92 371.595 300.479 372.393C298.896 375.262 299.526 379.206 299.766 382.324C299.954 384.812 300.877 387.866 304.025 387.074C306.987 386.33 308.075 382.561 308.756 379.967C308.797 379.824 308.79 379.671 308.736 379.533L308.771 379.468L309.143 379.841C309.317 379.996 309.485 380.163 309.653 380.333C309.342 380.769 309.024 381.197 308.7 381.619C308.618 381.745 308.58 381.893 308.589 382.043C308.599 382.192 308.657 382.334 308.753 382.448C309.75 383.657 311.542 382.759 311.506 381.272C311.499 380.949 311.422 380.631 311.282 380.341C312.218 378.982 313.092 377.584 313.902 376.147C314.111 376.365 314.362 376.536 314.641 376.649C314.919 376.761 315.219 376.813 315.519 376.8H315.654C315.999 377.156 316.394 377.459 316.826 377.698C317.209 377.917 317.65 378.051 317.994 378.334C318.631 378.848 318.442 379.463 318.302 380.212C318.091 381.202 317.83 382.18 317.52 383.142C316.166 383.914 314.83 384.926 314.374 386.487C313.959 387.923 314.328 389.433 315.547 390.324C315.632 390.382 315.73 390.419 315.833 390.434C315.935 390.448 316.04 390.439 316.138 390.406C316.236 390.374 316.326 390.319 316.4 390.246C316.474 390.174 316.531 390.085 316.566 389.987C317.331 388.09 318.019 386.163 318.605 384.205C318.623 384.143 318.644 384.079 318.664 384.017C319.86 383.33 321.111 382.731 322.291 382.021C325.428 380.141 328.411 378.012 331.213 375.655C331.858 375.089 330.968 374.068 330.303 374.629ZM313.956 372.828C313.956 372.282 314.229 371.284 314.848 371.299C314.568 371.912 314.28 372.519 313.976 373.118C313.966 373.013 313.959 372.915 313.956 372.82V372.828ZM315.664 388.523C315.098 387.452 315.919 386.132 316.834 385.26C316.472 386.343 316.079 387.432 315.664 388.51V388.523Z" fill="white"/>
<defs>
<filter id="filter0_d" x="0" y="0" width="600" height="632" filterUnits="userSpaceOnUse" color-interpolation-filters="sRGB">
<feFlood flood-opacity="0" result="BackgroundImageFix"/>
<feColorMatrix in="SourceAlpha" type="matrix" values="0 0 0 0 0 0 0 0 0 0 0 0 0 0 0 0 0 0 127 0"/>
<feOffset dy="14"/>
<feGaussianBlur stdDeviation="15"/>
<feColorMatrix type="matrix" values="0 0 0 0 0.0242535 0 0 0 0 0.529167 0 0 0 0 0.286808 0 0 0 0.16 0"/>
<feBlend mode="normal" in2="BackgroundImageFix" result="effect1_dropShadow"/>
<feBlend mode="normal" in="SourceGraphic" in2="effect1_dropShadow" result="shape"/>
</filter>
<filter id="filter1_d" x="0" y="0" width="576" height="632" filterUnits="userSpaceOnUse" color-interpolation-filters="sRGB">
<feFlood flood-opacity="0" result="BackgroundImageFix"/>
<feColorMatrix in="SourceAlpha" type="matrix" values="0 0 0 0 0 0 0 0 0 0 0 0 0 0 0 0 0 0 127 0"/>
<feOffset dy="14"/>
<feGaussianBlur stdDeviation="15"/>
<feColorMatrix type="matrix" values="0 0 0 0 0.0242535 0 0 0 0 0.529167 0 0 0 0 0.286808 0 0 0 0.14 0"/>
<feBlend mode="normal" in2="BackgroundImageFix" result="effect1_dropShadow"/>
<feBlend mode="normal" in="SourceGraphic" in2="effect1_dropShadow" result="shape"/>
</filter>
</defs>
</svg>
