<svg width="462" height="462" viewBox="0 0 462 462" fill="none" xmlns="http://www.w3.org/2000/svg">
<path d="M406.415 397.337C394.39 409.813 383.629 417.146 375.391 422.677C295.046 476.67 203.202 461.108 174.807 455.788C128.993 447.206 90.3194 441.152 57.0929 410.94C-18.4073 342.295 -14.7364 199.077 42.9564 110.37C49.7964 99.8508 107.402 13.9094 199.444 1.80367C201.695 1.50804 203.375 1.33911 204.847 1.182C219.086 -0.338401 307.32 -8.34245 379.267 52.3215C389.566 61.0063 406.14 76.6698 421.508 100.559C477.706 187.909 477.883 323.196 406.415 397.337Z" fill="white"/>
<path d="M106.722 457.69H300.306C316.232 457.69 329.254 446.061 329.664 431.472C331.488 366.673 335.909 140.042 334.917 78.3588C334.746 67.7563 325.489 59.1684 313.924 58.8625C268.952 57.6726 160.808 55.7417 110.603 62.8902C100.037 64.3951 92.1246 72.5737 91.782 82.3744C89.8876 136.667 83.8695 376.911 85.3805 438.567C85.6386 449.201 95.1133 457.69 106.722 457.69Z" fill="url(#paint0_linear)"/>
<path d="M107.529 446.559H300.719C310.486 446.559 318.444 439.711 318.59 431.2L323.461 87.2333C323.612 78.7869 315.816 71.8651 306.133 71.8316L114.669 71.255C107.747 71.2337 102.073 76.045 101.905 82.0842L93.7543 434.241C93.5626 440.994 99.792 446.559 107.529 446.559Z" fill="#0A40CE"/>
<path d="M117.418 438.588H291.106C299.886 438.588 307.041 432.133 307.172 424.092L311.549 99.4681C311.679 91.4964 304.675 84.9626 295.971 84.9322L123.838 84.389C117.614 84.3677 112.517 88.9097 112.366 94.6096L105.03 426.963C104.861 433.337 110.457 438.588 117.418 438.588Z" fill="#EFFAFE"/>
<path d="M211.798 266.838C243.316 266.838 268.867 241.082 268.867 209.31C268.867 177.538 243.316 151.781 211.798 151.781C180.28 151.781 154.729 177.538 154.729 209.31C154.729 241.082 180.28 266.838 211.798 266.838Z" fill="#00EA66"/>
<path d="M211.438 262.064C240.178 262.064 263.477 238.577 263.477 209.605C263.477 180.633 240.178 157.146 211.438 157.146C182.697 157.146 159.398 180.633 159.398 209.605C159.398 238.577 182.697 262.064 211.438 262.064Z" fill="white"/>
<path d="M227.371 189.782C227.371 198.665 220.227 208.254 211.417 208.254C202.606 208.254 195.462 198.668 195.462 189.782C195.462 180.895 202.605 174.597 211.417 174.597C220.229 174.597 227.371 180.9 227.371 189.782Z" fill="#00EA66"/>
<path d="M191.616 242.452H230.559C232.558 242.452 234.504 241.813 236.118 240.625C237.732 239.437 238.93 237.764 239.539 235.845L241.636 229.241C243.169 224.407 240.674 219.173 235.945 217.429C220.096 211.588 203.705 212.337 186.916 217.968C182.212 219.546 179.602 224.617 180.899 229.441L182.514 235.437C183.056 237.452 184.241 239.231 185.887 240.499C187.532 241.766 189.545 242.453 191.616 242.452Z" fill="#00EA66"/>
<path opacity="0.3" d="M290.879 304.801H124.121C122.95 304.801 122 305.819 122 307.076V317.647C122 318.903 122.95 319.922 124.121 319.922H290.879C292.05 319.922 293 318.903 293 317.647V307.076C293 305.819 292.05 304.801 290.879 304.801Z" fill="#0A40CE"/>
<path opacity="0.3" d="M290.879 334.035H124.121C122.95 334.035 122 335.053 122 336.31V346.881C122 348.138 122.95 349.156 124.121 349.156H290.879C292.05 349.156 293 348.138 293 346.881V336.31C293 335.053 292.05 334.035 290.879 334.035Z" fill="#0A40CE"/>
<path opacity="0.3" d="M290.879 366.293H124.121C122.95 366.293 122 367.311 122 368.568V379.139C122 380.395 122.95 381.414 124.121 381.414H290.879C292.05 381.414 293 380.395 293 379.139V368.568C293 367.311 292.05 366.293 290.879 366.293Z" fill="#0A40CE"/>
<path opacity="0.3" d="M290.879 395.527H124.121C122.95 395.527 122 396.545 122 397.802V408.373C122 409.63 122.95 410.648 124.121 410.648H290.879C292.05 410.648 293 409.63 293 408.373V397.802C293 396.545 292.05 395.527 290.879 395.527Z" fill="#0A40CE"/>
<path d="M159.488 257.753L44.1383 345.956C42.9937 346.831 42.0411 347.935 41.3401 349.199C40.6391 350.462 40.2051 351.859 40.0652 353.3C39.9252 354.741 40.0825 356.195 40.5271 357.572C40.9717 358.949 41.6939 360.218 42.6485 361.3L43.3111 362.052C44.16 363.013 45.1891 363.796 46.3393 364.355C47.4895 364.914 48.738 365.238 50.013 365.309C51.2879 365.38 52.5642 365.196 53.7683 364.767C54.9724 364.339 56.0805 363.674 57.0289 362.812L165.181 264.631L159.488 257.753Z" fill="url(#paint1_linear)"/>
<path d="M188.752 139.772C149.322 152.062 127.063 193.669 139.035 232.7C151.006 271.73 192.678 293.412 232.109 281.119C271.54 268.826 293.8 227.222 281.827 188.19C269.854 149.158 228.183 127.481 188.752 139.772ZM228.925 270.737C195.287 281.222 159.737 262.729 149.528 229.431C139.32 196.134 158.303 160.64 191.943 150.156C225.584 139.672 261.131 158.163 271.34 191.461C281.548 224.76 262.564 260.252 228.925 270.737Z" fill="url(#paint2_linear)"/>
<path d="M51.8575 362.166H51.8303C47.4213 362.014 44.6303 360.376 43.5284 357.283C42.4266 354.19 43.4952 350.625 46.1926 348.458L59.9164 337.458C59.944 337.436 59.9758 337.42 60.0097 337.41C60.0437 337.4 60.0792 337.397 60.1144 337.401C60.1495 337.405 60.1834 337.416 60.2144 337.433C60.2453 337.45 60.2725 337.474 60.2945 337.502C60.3165 337.529 60.3328 337.561 60.3426 337.596C60.3523 337.63 60.3553 337.666 60.3513 337.701C60.3473 337.736 60.3364 337.771 60.3193 337.802C60.3022 337.833 60.2791 337.861 60.2515 337.883L46.5277 348.882C44.0115 350.898 43.0092 354.199 44.0356 357.099C45.05 359.961 47.6764 361.484 51.8409 361.621C51.8762 361.62 51.9113 361.627 51.9441 361.64C51.977 361.653 52.007 361.672 52.0324 361.697C52.0579 361.721 52.0783 361.751 52.0924 361.783C52.1065 361.816 52.1142 361.851 52.1149 361.887C52.1156 361.922 52.1093 361.958 52.0964 361.991C52.0836 362.024 52.0644 362.054 52.0399 362.08C52.0155 362.105 51.9862 362.126 51.9539 362.14C51.9216 362.154 51.8868 362.162 51.8515 362.163L51.8575 362.166Z" fill="#BDD0FB"/>
<path d="M64.3371 334.562C64.2799 334.566 64.2229 334.552 64.1745 334.521C64.1261 334.49 64.0887 334.444 64.068 334.39C64.0472 334.336 64.0442 334.277 64.0592 334.221C64.0742 334.165 64.1065 334.116 64.1515 334.08L65.9311 332.654C65.9585 332.631 65.99 332.614 66.024 332.604C66.0579 332.594 66.0935 332.591 66.1286 332.595C66.1638 332.599 66.1978 332.61 66.2287 332.628C66.2595 332.645 66.2866 332.668 66.3084 332.696C66.3527 332.753 66.373 332.825 66.3648 332.897C66.3566 332.968 66.3206 333.034 66.2646 333.078L64.4866 334.504C64.4438 334.539 64.3916 334.559 64.3371 334.562Z" fill="white"/>
<path d="M65.1031 373.504L52.5386 376.671L55.6797 400.419C55.6797 400.419 50.9672 405.169 49.3974 411.502C47.8276 417.835 46.3786 444.426 46.3786 444.426L43.3974 446.243L43.0352 447.765L51.7084 459.521L50.2699 450.163C50.042 448.678 50.4374 445.666 50.3121 445.598C55.0246 432.932 65.1046 397.252 65.1046 397.252L65.1031 373.504Z" fill="#F4C0A2"/>
<path d="M68.774 447.923C68.6382 447.923 68.5053 447.931 68.368 447.923C68.9718 440.288 71.7506 406.688 74.5265 394.086C77.6676 379.837 69.8155 351.339 69.8155 351.339L55.6797 365.588L63.5287 392.503C58.1476 400.641 64.4072 448.294 64.2729 448.275V448.38L62.2246 451.221L62.4737 452.76L74.9914 460.206L70.0661 452.141C69.2975 450.864 68.8537 449.415 68.774 447.923Z" fill="#F4C0A2"/>
<path d="M52.8743 288.143C52.8743 288.143 25.3529 326.639 52.8743 346.377L55.6788 343.858C55.6788 343.858 42.0155 327.619 55.6788 307.741L52.8743 288.143Z" fill="#4F57F6"/>
<path d="M75.8252 461.374H71.8312C71.4625 461.375 71.0985 461.291 70.7674 461.127C70.4362 460.964 70.1469 460.725 69.9218 460.431C68.6765 458.8 66.0969 455.617 64.8621 455.535C63.2017 455.422 63.4146 461.374 63.4146 461.374H62.4832L61.3013 453.978C61.1563 453.07 61.2985 452.14 61.7076 451.319C62.1167 450.498 62.7721 449.827 63.5806 449.402C63.5806 449.402 63.9595 452.233 66.0184 453.485C68.0772 454.737 74.3958 459.22 74.3958 459.22C74.936 459.156 75.4824 459.171 76.0184 459.264C77.2818 459.492 77.1052 461.374 75.8252 461.374Z" fill="url(#paint3_linear)"/>
<path d="M52.0186 460.918L48.3356 459.357C47.9956 459.213 47.6929 458.993 47.4509 458.712C47.2088 458.432 47.0338 458.1 46.9394 457.741C46.4186 455.75 45.2654 451.806 44.1605 451.249C42.6722 450.498 40.5786 456.067 40.5786 456.067L39.7197 455.703L41.4782 448.425C41.693 447.531 42.1815 446.728 42.8746 446.13C43.5677 445.532 44.4301 445.169 45.3394 445.093C45.3394 445.093 44.6013 447.85 46.0171 449.81C47.433 451.77 51.5311 458.372 51.5311 458.372C52.0541 458.524 52.5527 458.751 53.0119 459.046C54.0851 459.751 53.199 461.415 52.0186 460.918Z" fill="url(#paint4_linear)"/>
<path d="M73.4134 327.286C73.4134 327.286 72.9515 330.666 73.6293 339.958C74.307 349.25 77.5402 371.067 76.8821 391.94C76.8821 391.94 67.6851 394.5 51.7077 393.287C51.7077 393.287 44.9651 360.697 46.6074 348.307C48.2496 335.917 57.1613 327.029 57.1613 327.029L73.4134 327.286Z" fill="#193570"/>
<path d="M66.6182 274.819L67.7427 288.143H57.0635L59.7186 267.806L66.6182 274.819Z" fill="url(#paint5_linear)"/>
<path d="M53.9061 286.301C57.5906 286.096 65.8306 285.717 71.6691 286.037C73.1627 286.117 74.588 286.693 75.7231 287.675C76.8582 288.657 77.6395 289.99 77.9453 291.466L79.3687 298.345C79.8995 300.907 79.8204 303.559 79.1377 306.084L73.414 327.245C73.414 327.245 68.3287 330.326 57.1619 327.029C57.1619 327.029 47.3506 303.456 51.3687 288.38C51.5196 287.808 51.8465 287.298 52.3023 286.925C52.7581 286.552 53.3196 286.333 53.9061 286.301Z" fill="#4F57F6"/>
<path d="M77.6607 290.233C79.2335 294.41 80.6539 298.789 82.189 302.892C82.9648 304.944 83.7512 306.957 84.5935 308.806C85.0192 309.719 85.4871 310.573 85.9173 311.34C86.254 311.935 86.644 312.497 87.0826 313.021C87.1324 313.064 86.9663 313.097 86.912 313.099C86.8577 313.1 87.9686 313.281 88.3112 313.337H89.626C91.5097 313.24 93.6441 312.904 95.7844 312.485C100.103 311.674 104.592 310.535 109.2 309.672H109.237C109.586 309.606 109.947 309.658 110.265 309.82C110.582 309.981 110.838 310.243 110.994 310.566C111.149 310.888 111.196 311.253 111.125 311.605C111.055 311.956 110.873 312.274 110.606 312.511C108.747 314.159 106.778 315.515 104.734 316.833C103.704 317.467 102.658 318.088 101.594 318.686C100.51 319.243 99.4222 319.804 98.2931 320.325C96.0169 321.323 93.6682 322.243 90.9603 322.835C90.2494 322.954 89.5475 323.08 88.8154 323.179C87.9943 323.208 87.2486 323.281 86.352 323.229C85.8765 323.182 85.398 323.123 84.9195 323.053C84.6656 323.022 84.4136 322.977 84.1648 322.917C83.8373 322.819 83.5112 322.707 83.1897 322.586C82.5165 322.342 82.0818 322.049 81.5294 321.741C81.0765 321.437 80.6614 321.133 80.2614 320.802C78.7807 319.532 77.8614 318.27 77.0524 317.059C76.2957 315.905 75.6198 314.699 75.0297 313.45C73.9216 311.162 72.991 308.791 72.2463 306.358C70.7656 301.614 69.7633 296.951 69.3392 291.999C69.242 290.958 69.5229 289.918 70.1296 289.07C70.7364 288.223 71.6277 287.627 72.6379 287.392C73.6482 287.157 74.7085 287.301 75.6218 287.795C76.5351 288.289 77.2393 289.101 77.6033 290.08L77.6607 290.233Z" fill="#4F57F6"/>
<path d="M107.743 311.801L109.65 307.236L119.678 304.718C119.678 304.718 120.481 306.469 116.268 307.236C116.268 307.236 117.778 308.91 116.97 310.888C116.163 312.866 107.642 314.828 107.743 311.801Z" fill="url(#paint6_linear)"/>
<path d="M71.1401 259.433C71.522 259.66 74.5258 270.342 72.0081 274.82C69.4903 279.298 61.8028 274.282 59.7183 267.807C57.6338 261.331 60.9832 253.394 71.1401 259.433Z" fill="url(#paint7_linear)"/>
<path d="M48.6969 263.896C47.9135 264.562 47.0878 265.189 46.4946 266.026C45.1769 267.882 45.2373 270.416 44.1505 272.417C43.0018 274.533 40.9158 275.293 39.1014 276.635C37.2149 278.028 35.9059 280.076 35.426 282.383C34.9293 284.885 36.2229 287.347 35.8788 289.687C35.6312 291.384 33.8003 292.263 33.7339 294.1C33.689 294.989 33.9267 295.87 34.4123 296.614C34.8979 297.358 35.6062 297.926 36.4343 298.237C37.4139 298.607 38.5958 298.661 39.275 299.463C40.0946 300.429 39.7278 301.933 40.1988 303.115C41.6131 306.6 45.2403 304.262 47.5346 303.664C50.1807 302.975 52.8614 304.638 55.5935 304.707C59.1709 304.796 62.5369 301.699 62.7648 298.1C62.8312 297.073 62.6743 296.035 62.7995 295.013C63.0516 292.952 64.2682 291.994 65.6946 290.743C66.434 290.086 67.0231 289.274 67.421 288.365C67.819 287.456 68.0164 286.47 67.9996 285.477C67.906 281.545 65.0803 278.502 63.7596 274.978C63.0546 273.092 62.5641 271.502 63.6086 269.692C64.6894 267.819 66.4946 266.422 68.2516 265.238C69.6011 264.325 71.0124 263.467 72.0856 262.242C73.1588 261.017 73.8607 259.326 73.4758 257.738C72.4192 253.372 64.4192 250.739 60.5037 251.391C57.5769 251.88 55.269 253.272 53.7444 255.847C52.4765 257.986 51.5241 260.682 49.9709 262.636C49.5868 263.096 49.1602 263.518 48.6969 263.896Z" fill="url(#paint8_linear)"/>
<path d="M366.218 441.989C366.218 441.989 367.105 447.061 367.541 452.082C367.581 452.548 367.526 453.016 367.38 453.46C367.235 453.904 367.001 454.313 366.694 454.663C366.388 455.013 366.014 455.297 365.595 455.498C365.176 455.698 364.722 455.811 364.258 455.83C357.628 456.108 343.44 456.65 338.349 456.42C338.172 456.411 337.999 456.36 337.845 456.27C337.691 456.18 337.561 456.055 337.464 455.904C337.368 455.753 337.309 455.582 337.292 455.403C337.275 455.225 337.301 455.045 337.366 454.879C337.604 454.277 338.062 453.791 338.645 453.521L362.079 442.659L366.218 441.989Z" fill="url(#paint9_linear)"/>
<path d="M366.946 439.007L366.232 445.073C366.232 445.073 362.126 447 359.323 444.83L361.023 438.069L366.946 439.007Z" fill="url(#paint10_linear)"/>
<path d="M366.409 324.956C366.718 326.54 368.069 404.014 359.85 438.731C359.784 439.004 359.816 439.293 359.942 439.544C360.067 439.795 360.278 439.993 360.536 440.101C362.673 440.934 364.935 441.397 367.225 441.47C367.672 441.485 368.11 441.35 368.472 441.087C368.833 440.823 369.098 440.446 369.224 440.014C371.571 431.959 382.824 391.6 384.293 353.047C385.932 309.967 384.293 351.58 384.293 351.58L383.33 324.952L366.409 324.956Z" fill="#193570"/>
<path d="M393.175 444.637C393.175 444.637 394.589 447.198 395.958 454.001C396.017 454.29 396.016 454.589 395.953 454.878C395.891 455.167 395.769 455.439 395.595 455.678C395.422 455.916 395.2 456.115 394.946 456.261C394.691 456.408 394.408 456.499 394.117 456.528C391.926 456.746 388.556 457.024 385.854 457.006C385.56 457.005 385.27 456.941 385.002 456.819C384.734 456.697 384.495 456.52 384.299 456.298C384.104 456.077 383.958 455.816 383.87 455.533C383.781 455.251 383.753 454.952 383.787 454.658C384.089 452.175 385.019 448.1 387.898 444.92L393.175 444.637Z" fill="url(#paint11_linear)"/>
<path d="M394.417 436.832L392.757 446.006C392.757 446.006 391.107 447.243 387.844 446.347L388.639 436.476L394.417 436.832Z" fill="url(#paint12_linear)"/>
<path d="M398.925 327.333C405.643 368.21 397.467 428.368 394.711 440.134C394.629 440.487 394.445 440.807 394.183 441.055C393.922 441.303 393.593 441.468 393.239 441.528C392.009 441.734 389.982 441.901 387.985 441.317C387.648 441.219 387.351 441.017 387.135 440.738C386.92 440.46 386.797 440.12 386.785 439.768C386.415 430.249 387.086 371.816 380.819 348.724C380.501 347.555 379.792 346.534 378.812 345.833L366.661 337.125L365.729 323.05L398.925 327.333Z" fill="#193570"/>
<path d="M356.112 249.884C376.247 249.547 398.464 255.209 398.464 255.209C404.465 290.51 399.521 331.232 399.521 331.232C383.933 335.352 366.348 328.712 366.348 328.712C363.758 313.952 351.67 272.429 351.67 272.429C341.832 271.198 333.727 268.336 327.053 264.553C332.144 258.606 334.544 251.037 335.587 246.562C342.698 248.796 349.906 249.987 356.112 249.884Z" fill="#4F57F6"/>
<path d="M296.637 219.985C298.616 217.578 301.118 218.716 301.118 218.716C304.081 231.334 319.618 241.565 335.58 246.562C334.537 251.037 332.137 258.605 327.046 264.553C300.557 249.543 296.637 219.985 296.637 219.985Z" fill="#4F57F6"/>
<path d="M297.116 220.599C296.909 221.262 299.306 222.273 300.717 219.56C300.767 218.259 301.55 212.69 300.781 211.631C296.677 205.99 288.719 198.919 288.719 198.919C287.374 200.256 288.482 201.57 288.482 201.57L292.341 205.625C291.534 207.095 290.55 208.336 290.088 210.115C289.75 211.473 289.943 212.91 290.627 214.129C291.304 215.36 292.23 216.959 293.104 218.212C294.758 220.581 297.116 220.599 297.116 220.599Z" fill="url(#paint13_linear)"/>
<path d="M294.031 208.254L297.548 211.261L298.653 214.254L295.517 217.753C295.517 217.753 294.46 211.819 293.678 210.529C292.896 209.238 293.302 208.636 294.031 208.254Z" fill="url(#paint14_linear)"/>
<path d="M390.74 274.866L398.464 255.212C398.464 255.212 417.27 268.094 420.363 284.427C416.81 284.69 410.343 285.622 404.014 288.839C402.624 281.132 390.74 274.866 390.74 274.866Z" fill="#4F57F6"/>
<path d="M374.305 293.36C374.305 293.36 395.421 305.39 402.545 295.118C404.025 292.987 404.378 290.857 404.014 288.844C410.343 285.623 416.809 284.69 420.363 284.431C421.295 289.355 420.803 294.591 417.932 299.885C405.452 322.898 371.51 298.613 371.51 298.613L374.305 293.36Z" fill="#4F57F6"/>
<path d="M376.842 308.579L365.319 268.009C365.255 267.784 365.127 267.583 364.95 267.431C364.773 267.28 364.556 267.184 364.326 267.157C362.238 266.912 356.188 266.222 349.203 265.626C341.55 264.975 332.774 264.434 326.855 264.713C326.48 264.732 326.115 264.845 325.794 265.042C325.472 265.239 325.205 265.514 325.015 265.841C324.825 266.169 324.72 266.539 324.707 266.918C324.695 267.297 324.776 267.673 324.944 268.012C329.121 276.481 341.184 300.542 347.692 309.412C347.907 309.703 348.187 309.938 348.51 310.099C348.832 310.26 349.188 310.341 349.548 310.337L375.722 310.09C375.903 310.089 376.081 310.045 376.243 309.962C376.404 309.88 376.545 309.761 376.653 309.615C376.761 309.468 376.835 309.299 376.868 309.119C376.9 308.94 376.891 308.755 376.842 308.579Z" fill="#00EA66"/>
<path d="M374.057 298.777C374.057 298.777 375.663 292.123 375.015 289.762C374.368 287.4 373.112 284.366 368.931 285.045C364.75 285.723 359.815 287.496 359.815 287.496C359.815 287.496 360.065 290.57 363.243 289.578L361.274 291.107C361.274 291.107 361.556 293.569 364.24 292.253L362.407 294.292C362.407 294.292 363.56 296.314 365.535 295.017C367.509 293.721 368.457 299.579 374.057 298.777Z" fill="url(#paint15_linear)"/>
<path d="M376.507 233.405L382.914 252.082C382.967 252.231 382.965 252.394 382.91 252.543C382.855 252.691 382.749 252.814 382.612 252.892C380.866 253.866 374.575 256.679 366.993 251.827C366.601 251.58 366.269 251.249 366.018 250.858C365.768 250.467 365.607 250.025 365.545 249.564L363.47 233.398L376.507 233.405Z" fill="#F4C0A2"/>
<path d="M362.566 216.108C362.566 216.108 355.531 229.459 356.433 234.852C357.336 240.244 366.055 239.858 373.668 235.477L378.988 221.063L362.566 216.108Z" fill="url(#paint16_linear)"/>
<path d="M373.332 228.398C373.259 228.366 373.194 228.319 373.142 228.259C373.089 228.199 373.05 228.128 373.027 228.052C373.004 227.975 372.999 227.894 373.01 227.815C373.021 227.736 373.05 227.66 373.093 227.593C373.657 226.725 374.713 224.953 375.056 223.404C375.056 223.404 376.319 222.587 371.836 221.505C367.353 220.424 360.666 218.744 359.261 214.897C357.89 211.146 361.49 201.714 367.235 209.229C367.286 209.296 367.352 209.35 367.426 209.387C367.501 209.424 367.584 209.443 367.667 209.443C367.75 209.443 367.833 209.424 367.908 209.387C367.982 209.35 368.048 209.296 368.099 209.229C369.041 207.994 371.516 205.425 374.953 206.985C378.17 208.439 378.532 210.815 378.488 212.006C378.485 212.088 378.5 212.17 378.532 212.246C378.565 212.322 378.613 212.389 378.675 212.443C378.737 212.497 378.81 212.536 378.889 212.557C378.968 212.578 379.051 212.581 379.131 212.566C380.757 212.254 384.659 211.985 386.481 216.02C387.981 219.345 387.006 221.225 386.118 222.146C386.051 222.213 386.003 222.297 385.978 222.389C385.952 222.481 385.952 222.577 385.975 222.67C385.999 222.762 386.046 222.846 386.112 222.915C386.177 222.983 386.26 223.033 386.351 223.059C387.419 223.389 388.799 224.304 388.662 226.827C388.47 230.317 384.6 230.01 383.498 229.85C383.409 229.836 383.319 229.845 383.234 229.875C383.15 229.906 383.074 229.957 383.013 230.023C382.069 231.076 377.812 235.551 373.202 236.092C373.11 236.101 373.017 236.087 372.932 236.051C372.846 236.015 372.771 235.958 372.714 235.885C372.656 235.812 372.618 235.725 372.602 235.633C372.586 235.541 372.594 235.446 372.624 235.358L374.618 229.515C374.663 229.384 374.656 229.24 374.6 229.113C374.544 228.986 374.443 228.885 374.316 228.83L373.332 228.398Z" fill="url(#paint17_linear)"/>
<path d="M372.53 229.228C372.53 229.228 377.538 225.763 377.905 228.68C378.272 231.597 373.394 232.907 370.979 231.819L372.53 229.228Z" fill="url(#paint18_linear)"/>
<defs>
<linearGradient id="paint0_linear" x1="210.099" y1="457.69" x2="210.099" y2="57.697" gradientUnits="userSpaceOnUse">
<stop stop-color="#09005D"/>
<stop offset="1" stop-color="#1A0F91"/>
</linearGradient>
<linearGradient id="paint1_linear" x1="280379" y1="166897" x2="396459" y2="131273" gradientUnits="userSpaceOnUse">
<stop stop-color="#09005D"/>
<stop offset="1" stop-color="#1A0F91"/>
</linearGradient>
<linearGradient id="paint2_linear" x1="237331" y1="211952" x2="223132" y2="401493" gradientUnits="userSpaceOnUse">
<stop stop-color="#09005D"/>
<stop offset="1" stop-color="#1A0F91"/>
</linearGradient>
<linearGradient id="paint3_linear" x1="7910.25" y1="37110.4" x2="8805.21" y2="39088.2" gradientUnits="userSpaceOnUse">
<stop stop-color="#09005D"/>
<stop offset="1" stop-color="#1A0F91"/>
</linearGradient>
<linearGradient id="paint4_linear" x1="11048.5" y1="47214.6" x2="11558.4" y2="49784.4" gradientUnits="userSpaceOnUse">
<stop stop-color="#09005D"/>
<stop offset="1" stop-color="#1A0F91"/>
</linearGradient>
<linearGradient id="paint5_linear" x1="10399.7" y1="38987" x2="6275.28" y2="41018.8" gradientUnits="userSpaceOnUse">
<stop stop-color="#FF928E"/>
<stop offset="1" stop-color="#FEB3B1"/>
</linearGradient>
<linearGradient id="paint6_linear" x1="16494.9" y1="16823.8" x2="15463" y2="19016.4" gradientUnits="userSpaceOnUse">
<stop stop-color="#FF928E"/>
<stop offset="1" stop-color="#FEB3B1"/>
</linearGradient>
<linearGradient id="paint7_linear" x1="13049.2" y1="41095.6" x2="10213.9" y2="38106.3" gradientUnits="userSpaceOnUse">
<stop stop-color="#FF928E"/>
<stop offset="1" stop-color="#FEB3B1"/>
</linearGradient>
<linearGradient id="paint8_linear" x1="39796.3" y1="95906.4" x2="19197.3" y2="114415" gradientUnits="userSpaceOnUse">
<stop stop-color="#09005D"/>
<stop offset="1" stop-color="#1A0F91"/>
</linearGradient>
<linearGradient id="paint9_linear" x1="-39324.9" y1="3713.1" x2="-38693" y2="12954.9" gradientUnits="userSpaceOnUse">
<stop stop-color="#09005D"/>
<stop offset="1" stop-color="#1A0F91"/>
</linearGradient>
<linearGradient id="paint10_linear" x1="-5886.06" y1="24808.6" x2="-6271" y2="24808.6" gradientUnits="userSpaceOnUse">
<stop stop-color="#FF928E"/>
<stop offset="1" stop-color="#FEB3B1"/>
</linearGradient>
<linearGradient id="paint11_linear" x1="-12923.2" y1="2810.41" x2="-11800.9" y2="10576.8" gradientUnits="userSpaceOnUse">
<stop stop-color="#09005D"/>
<stop offset="1" stop-color="#1A0F91"/>
</linearGradient>
<linearGradient id="paint12_linear" x1="-3898.96" y1="32299" x2="-4185.57" y2="32299" gradientUnits="userSpaceOnUse">
<stop stop-color="#FF928E"/>
<stop offset="1" stop-color="#FEB3B1"/>
</linearGradient>
<linearGradient id="paint13_linear" x1="34387.4" y1="43347" x2="27851" y2="38974.9" gradientUnits="userSpaceOnUse">
<stop stop-color="#FF928E"/>
<stop offset="1" stop-color="#FEB3B1"/>
</linearGradient>
<linearGradient id="paint14_linear" x1="-6591.98" y1="15745.2" x2="-7335.92" y2="15095.1" gradientUnits="userSpaceOnUse">
<stop stop-color="#FF928E"/>
<stop offset="1" stop-color="#FEB3B1"/>
</linearGradient>
<linearGradient id="paint15_linear" x1="47376.3" y1="23709.5" x2="45418.7" y2="27888.6" gradientUnits="userSpaceOnUse">
<stop stop-color="#FF928E"/>
<stop offset="1" stop-color="#FEB3B1"/>
</linearGradient>
<linearGradient id="paint16_linear" x1="92493.3" y1="71303" x2="94661.6" y2="66174.8" gradientUnits="userSpaceOnUse">
<stop stop-color="#FF928E"/>
<stop offset="1" stop-color="#FEB3B1"/>
</linearGradient>
<linearGradient id="paint17_linear" x1="133687" y1="71381.1" x2="128226" y2="75669.5" gradientUnits="userSpaceOnUse">
<stop stop-color="#09005D"/>
<stop offset="1" stop-color="#1A0F91"/>
</linearGradient>
<linearGradient id="paint18_linear" x1="27528.9" y1="22575.7" x2="28101" y2="21540.4" gradientUnits="userSpaceOnUse">
<stop stop-color="#FF928E"/>
<stop offset="1" stop-color="#FEB3B1"/>
</linearGradient>
</defs>
</svg>
