<svg width="600" height="632" viewBox="0 0 600 632" fill="none" xmlns="http://www.w3.org/2000/svg">
<g filter="url(#filter0_d)">
<rect x="30" y="16" width="540" height="572" rx="16" fill="#00EA66"/>
</g>
<g filter="url(#filter1_d)">
<rect x="30" y="16" width="516" height="572" rx="16" fill="#00EA66"/>
</g>
<path d="M450.506 456.096C439.366 467.654 429.397 474.447 421.765 479.571C347.333 529.59 262.248 515.173 235.942 510.245C193.5 502.295 157.673 496.686 126.891 468.697C56.9473 405.105 60.3481 272.426 113.795 190.248C120.132 180.503 173.498 100.886 258.766 89.6709C260.852 89.3971 262.408 89.2406 263.772 89.095C276.963 87.6865 358.703 80.2715 425.355 136.471C434.897 144.517 450.251 159.027 464.488 181.158C516.55 262.08 516.715 387.411 450.506 456.096Z" fill="white"/>
<path d="M163.722 511.636H357.306C373.232 511.636 386.254 500.018 386.664 485.443C388.488 420.709 392.909 194.304 391.917 132.682C391.746 122.09 382.489 113.511 370.924 113.205C325.952 112.017 217.808 110.088 167.603 117.229C157.037 118.732 149.125 126.903 148.782 136.694C146.888 190.932 140.87 430.937 142.38 492.531C142.639 503.155 152.113 511.636 163.722 511.636Z" fill="url(#paint0_linear)"/>
<path d="M164.529 500.515H357.719C367.486 500.515 375.444 493.674 375.59 485.171L380.461 141.548C380.612 133.11 372.816 126.195 363.133 126.161L171.669 125.585C164.747 125.564 159.073 130.37 158.905 136.404L150.754 488.21C150.563 494.956 156.792 500.515 164.529 500.515Z" fill="#0A40CE"/>
<path d="M174.418 492.553H348.106C356.886 492.553 364.041 486.104 364.172 478.071L368.549 153.771C368.679 145.807 361.675 139.28 352.971 139.249L180.838 138.706C174.614 138.685 169.517 143.223 169.366 148.917L162.03 480.939C161.861 487.307 167.457 492.553 174.418 492.553Z" fill="#EFFAFE"/>
<path d="M268.798 320.974C300.316 320.974 325.867 295.243 325.867 263.503C325.867 231.762 300.316 206.031 268.798 206.031C237.28 206.031 211.729 231.762 211.729 263.503C211.729 295.243 237.28 320.974 268.798 320.974Z" fill="#00EA66"/>
<path d="M268.438 316.204C297.178 316.204 320.477 292.741 320.477 263.798C320.477 234.854 297.178 211.391 268.438 211.391C239.697 211.391 216.398 234.854 216.398 263.798C216.398 292.741 239.697 316.204 268.438 316.204Z" fill="white"/>
<path d="M284.371 243.994C284.371 252.868 277.227 262.448 268.417 262.448C259.606 262.448 252.462 252.871 252.462 243.994C252.462 235.116 259.605 228.825 268.417 228.825C277.229 228.825 284.371 235.121 284.371 243.994Z" fill="#00EA66"/>
<path d="M248.616 296.612H287.559C289.558 296.612 291.504 295.973 293.118 294.787C294.732 293.6 295.93 291.928 296.539 290.012L298.636 283.415C300.169 278.585 297.674 273.356 292.945 271.614C277.096 265.779 260.705 266.526 243.916 272.152C239.212 273.729 236.602 278.795 237.899 283.614L239.514 289.604C240.056 291.617 241.241 293.394 242.887 294.66C244.532 295.927 246.545 296.613 248.616 296.612Z" fill="#00EA66"/>
<path opacity="0.3" d="M347.879 358.899H181.121C179.95 358.899 179 359.916 179 361.171V371.732C179 372.987 179.95 374.005 181.121 374.005H347.879C349.05 374.005 350 372.987 350 371.732V361.171C350 359.916 349.05 358.899 347.879 358.899Z" fill="#0A40CE"/>
<path opacity="0.3" d="M347.879 388.103H181.121C179.95 388.103 179 389.121 179 390.376V400.937C179 402.192 179.95 403.209 181.121 403.209H347.879C349.05 403.209 350 402.192 350 400.937V390.376C350 389.121 349.05 388.103 347.879 388.103Z" fill="#0A40CE"/>
<path opacity="0.3" d="M347.879 420.329H181.121C179.95 420.329 179 421.347 179 422.602V433.163C179 434.418 179.95 435.435 181.121 435.435H347.879C349.05 435.435 350 434.418 350 433.163V422.602C350 421.347 349.05 420.329 347.879 420.329Z" fill="#0A40CE"/>
<path opacity="0.3" d="M347.879 449.534H181.121C179.95 449.534 179 450.551 179 451.806V462.367C179 463.623 179.95 464.64 181.121 464.64H347.879C349.05 464.64 350 463.623 350 462.367V451.806C350 450.551 349.05 449.534 347.879 449.534Z" fill="#0A40CE"/>
<path d="M216.488 311.898L101.138 400.013C99.9937 400.887 99.0411 401.989 98.3401 403.252C97.6391 404.514 97.2051 405.909 97.0652 407.349C96.9252 408.788 97.0825 410.242 97.5271 411.617C97.9717 412.992 98.6939 414.26 99.6485 415.341L100.311 416.092C101.16 417.053 102.189 417.835 103.339 418.393C104.489 418.952 105.738 419.276 107.013 419.346C108.288 419.417 109.564 419.233 110.768 418.805C111.972 418.377 113.08 417.713 114.029 416.852L222.181 318.768L216.488 311.898Z" fill="url(#paint1_linear)"/>
<path d="M245.752 194.035C206.322 206.312 184.063 247.878 196.035 286.869C208.006 325.861 249.678 347.521 289.109 335.24C328.54 322.959 350.8 281.397 338.827 242.404C326.854 203.411 285.183 181.755 245.752 194.035ZM285.925 324.869C252.287 335.344 216.737 316.868 206.528 283.604C196.32 250.34 215.303 214.881 248.943 204.408C282.584 193.934 318.131 212.406 328.34 245.672C338.548 278.938 319.564 314.394 285.925 324.869Z" fill="url(#paint2_linear)"/>
<path d="M108.858 416.206H108.83C104.421 416.054 101.63 414.419 100.528 411.328C99.4266 408.238 100.495 404.676 103.193 402.512L116.916 391.523C116.944 391.501 116.976 391.484 117.01 391.475C117.044 391.465 117.079 391.462 117.114 391.466C117.149 391.47 117.183 391.481 117.214 391.498C117.245 391.515 117.273 391.539 117.295 391.566C117.317 391.594 117.333 391.626 117.343 391.66C117.352 391.695 117.355 391.73 117.351 391.766C117.347 391.801 117.336 391.835 117.319 391.866C117.302 391.898 117.279 391.925 117.251 391.947L103.528 402.936C101.011 404.95 100.009 408.247 101.036 411.144C102.05 414.004 104.676 415.525 108.841 415.662C108.876 415.661 108.911 415.668 108.944 415.68C108.977 415.693 109.007 415.713 109.032 415.737C109.058 415.762 109.078 415.792 109.092 415.824C109.107 415.857 109.114 415.892 109.115 415.927C109.116 415.963 109.109 415.998 109.096 416.031C109.084 416.064 109.064 416.094 109.04 416.12C109.015 416.146 108.986 416.166 108.954 416.18C108.922 416.195 108.887 416.202 108.851 416.203L108.858 416.206Z" fill="#BDD0FB"/>
<path d="M121.337 388.63C121.28 388.634 121.223 388.62 121.174 388.589C121.126 388.558 121.089 388.512 121.068 388.458C121.047 388.404 121.044 388.345 121.059 388.289C121.074 388.234 121.107 388.184 121.151 388.148L122.931 386.724C122.958 386.701 122.99 386.685 123.024 386.674C123.058 386.664 123.093 386.661 123.129 386.665C123.164 386.669 123.198 386.68 123.229 386.698C123.26 386.715 123.287 386.738 123.308 386.766C123.353 386.823 123.373 386.895 123.365 386.966C123.357 387.038 123.321 387.103 123.265 387.148L121.487 388.573C121.444 388.607 121.392 388.627 121.337 388.63Z" fill="white"/>
<path d="M122.103 427.534L109.539 430.697L112.68 454.421C112.68 454.421 107.967 459.167 106.397 465.493C104.828 471.82 103.379 498.385 103.379 498.385L100.397 500.2L100.035 501.72L108.708 513.464L107.27 504.116C107.042 502.632 107.437 499.624 107.312 499.556C112.025 486.902 122.105 451.258 122.105 451.258L122.103 427.534Z" fill="#F4C0A2"/>
<path d="M125.774 501.878C125.638 501.878 125.505 501.886 125.368 501.878C125.972 494.251 128.751 460.684 131.526 448.095C134.668 433.86 126.816 405.391 126.816 405.391L112.68 419.625L120.529 446.514C115.148 454.643 121.407 502.249 121.273 502.229V502.334L119.225 505.172L119.474 506.711L131.991 514.149L127.066 506.092C126.298 504.816 125.854 503.369 125.774 501.878Z" fill="#F4C0A2"/>
<path d="M109.874 342.257C109.874 342.257 82.3529 380.715 109.874 400.434L112.679 397.916C112.679 397.916 99.0155 381.694 112.679 361.836L109.874 342.257Z" fill="#4F57F6"/>
<path d="M132.825 515.316H128.831C128.462 515.317 128.098 515.233 127.767 515.069C127.436 514.906 127.147 514.668 126.922 514.374C125.676 512.744 123.097 509.564 121.862 509.482C120.202 509.369 120.415 515.316 120.415 515.316H119.483L118.301 507.927C118.156 507.02 118.298 506.091 118.708 505.27C119.117 504.45 119.772 503.78 120.581 503.356C120.581 503.356 120.959 506.183 123.018 507.434C125.077 508.685 131.396 513.164 131.396 513.164C131.936 513.1 132.482 513.115 133.018 513.208C134.282 513.436 134.105 515.316 132.825 515.316Z" fill="url(#paint3_linear)"/>
<path d="M109.019 514.86L105.336 513.3C104.996 513.157 104.693 512.937 104.451 512.657C104.209 512.377 104.034 512.045 103.939 511.686C103.419 509.698 102.265 505.757 101.16 505.201C99.6722 504.45 97.5786 510.014 97.5786 510.014L96.7197 509.65L98.4782 502.38C98.693 501.487 99.1815 500.684 99.8746 500.087C100.568 499.489 101.43 499.127 102.339 499.051C102.339 499.051 101.601 501.805 103.017 503.763C104.433 505.721 108.531 512.317 108.531 512.317C109.054 512.469 109.553 512.696 110.012 512.99C111.085 513.694 110.199 515.357 109.019 514.86Z" fill="url(#paint4_linear)"/>
<path d="M130.413 381.361C130.413 381.361 129.952 384.737 130.629 394.021C131.307 403.304 134.54 425.099 133.882 445.951C133.882 445.951 124.685 448.508 108.708 447.296C108.708 447.296 101.965 414.739 103.607 402.361C105.25 389.983 114.161 381.104 114.161 381.104L130.413 381.361Z" fill="#193570"/>
<path d="M123.618 328.947L124.743 342.257H114.063L116.719 321.941L123.618 328.947Z" fill="url(#paint5_linear)"/>
<path d="M110.906 340.418C114.591 340.212 122.831 339.834 128.669 340.153C130.163 340.234 131.588 340.809 132.723 341.79C133.858 342.771 134.639 344.102 134.945 345.577L136.369 352.449C136.9 355.008 136.82 357.658 136.138 360.18L130.414 381.32C130.414 381.32 125.329 384.399 114.162 381.104C114.162 381.104 104.351 357.555 108.369 342.494C108.52 341.922 108.846 341.414 109.302 341.041C109.758 340.668 110.32 340.449 110.906 340.418Z" fill="#4F57F6"/>
<path d="M134.661 344.346C136.234 348.518 137.654 352.893 139.189 356.991C139.965 359.042 140.751 361.053 141.594 362.9C142.019 363.812 142.487 364.664 142.917 365.431C143.254 366.025 143.644 366.587 144.083 367.11C144.132 367.153 143.966 367.186 143.912 367.188C143.858 367.189 144.969 367.37 145.311 367.426H146.626C148.51 367.329 150.644 366.993 152.784 366.575C157.103 365.765 161.592 364.626 166.2 363.765H166.237C166.586 363.699 166.947 363.751 167.265 363.912C167.582 364.074 167.838 364.336 167.994 364.658C168.149 364.98 168.196 365.344 168.125 365.695C168.055 366.046 167.873 366.365 167.606 366.601C165.747 368.247 163.778 369.602 161.734 370.918C160.704 371.552 159.658 372.172 158.594 372.77C157.51 373.326 156.422 373.887 155.293 374.407C153.017 375.404 150.668 376.323 147.96 376.915C147.249 377.033 146.547 377.16 145.815 377.258C144.994 377.287 144.249 377.36 143.352 377.309C142.877 377.261 142.398 377.202 141.92 377.132C141.666 377.102 141.414 377.057 141.165 376.997C140.837 376.898 140.511 376.787 140.19 376.665C139.517 376.422 139.082 376.129 138.529 375.822C138.077 375.518 137.661 375.214 137.261 374.884C135.781 373.615 134.861 372.355 134.052 371.145C133.296 369.992 132.62 368.787 132.03 367.539C130.922 365.253 129.991 362.884 129.246 360.454C127.766 355.714 126.763 351.057 126.339 346.109C126.242 345.069 126.523 344.03 127.13 343.183C127.736 342.337 128.628 341.741 129.638 341.507C130.648 341.273 131.708 341.416 132.622 341.91C133.535 342.403 134.239 343.215 134.603 344.192L134.661 344.346Z" fill="#4F57F6"/>
<path d="M164.743 365.891L166.65 361.331L176.678 358.815C176.678 358.815 177.481 360.565 173.268 361.331C173.268 361.331 174.778 363.003 173.97 364.979C173.163 366.955 164.642 368.916 164.743 365.891Z" fill="url(#paint6_linear)"/>
<path d="M128.14 313.576C128.522 313.802 131.526 324.473 129.008 328.947C126.49 333.421 118.803 328.41 116.718 321.941C114.634 315.471 117.983 307.543 128.14 313.576Z" fill="url(#paint7_linear)"/>
<path d="M105.697 318.034C104.914 318.7 104.088 319.326 103.495 320.162C102.177 322.017 102.237 324.548 101.15 326.547C100.002 328.661 97.9158 329.42 96.1014 330.76C94.2149 332.153 92.9059 334.198 92.426 336.503C91.9293 339.002 93.2229 341.462 92.8788 343.8C92.6312 345.495 90.8003 346.373 90.7339 348.208C90.689 349.097 90.9267 349.976 91.4123 350.72C91.8979 351.463 92.6062 352.031 93.4343 352.341C94.4139 352.71 95.5958 352.765 96.275 353.566C97.0946 354.532 96.7278 356.033 97.1988 357.214C98.6131 360.695 102.24 358.361 104.535 357.763C107.181 357.075 109.861 358.736 112.594 358.804C116.171 358.894 119.537 355.799 119.765 352.204C119.831 351.178 119.674 350.142 119.8 349.12C120.052 347.062 121.268 346.104 122.695 344.855C123.434 344.198 124.023 343.388 124.421 342.479C124.819 341.571 125.016 340.586 125 339.594C124.906 335.666 122.08 332.626 120.76 329.105C120.055 327.222 119.564 325.633 120.609 323.824C121.689 321.953 123.495 320.558 125.252 319.375C126.601 318.463 128.012 317.606 129.086 316.382C130.159 315.158 130.861 313.469 130.476 311.882C129.419 307.521 121.419 304.89 117.504 305.542C114.577 306.03 112.269 307.421 110.744 309.993C109.477 312.13 108.524 314.824 106.971 316.776C106.587 317.235 106.16 317.656 105.697 318.034Z" fill="url(#paint8_linear)"/>
<path d="M423.218 495.95C423.218 495.95 424.105 501.017 424.541 506.033C424.581 506.498 424.526 506.966 424.38 507.409C424.235 507.853 424.001 508.261 423.694 508.611C423.388 508.961 423.014 509.245 422.595 509.445C422.176 509.646 421.722 509.758 421.258 509.777C414.628 510.055 400.44 510.596 395.349 510.367C395.172 510.358 394.999 510.306 394.845 510.217C394.691 510.127 394.561 510.002 394.464 509.851C394.368 509.701 394.309 509.529 394.292 509.351C394.275 509.173 394.301 508.993 394.366 508.827C394.604 508.226 395.062 507.74 395.645 507.471L419.079 496.619L423.218 495.95Z" fill="url(#paint9_linear)"/>
<path d="M423.946 492.971L423.232 499.031C423.232 499.031 419.126 500.956 416.323 498.788L418.023 492.034L423.946 492.971Z" fill="url(#paint10_linear)"/>
<path d="M423.409 379.034C423.718 380.616 425.069 458.013 416.85 492.696C416.784 492.968 416.816 493.256 416.942 493.507C417.067 493.758 417.278 493.956 417.536 494.064C419.673 494.896 421.935 495.358 424.225 495.432C424.672 495.447 425.11 495.312 425.472 495.049C425.833 494.785 426.098 494.408 426.224 493.977C428.571 485.93 439.824 445.611 441.293 407.096C442.932 364.059 441.293 405.631 441.293 405.631L440.33 379.029L423.409 379.034Z" fill="#193570"/>
<path d="M450.175 498.595C450.175 498.595 451.589 501.153 452.958 507.95C453.017 508.239 453.016 508.537 452.953 508.826C452.891 509.114 452.769 509.387 452.595 509.625C452.422 509.863 452.2 510.061 451.946 510.208C451.691 510.354 451.408 510.445 451.117 510.474C448.926 510.692 445.556 510.97 442.854 510.952C442.56 510.951 442.27 510.887 442.002 510.765C441.734 510.644 441.495 510.466 441.299 510.245C441.104 510.023 440.958 509.763 440.87 509.481C440.781 509.198 440.753 508.9 440.787 508.606C441.089 506.125 442.019 502.055 444.898 498.878L450.175 498.595Z" fill="url(#paint11_linear)"/>
<path d="M451.417 490.798L449.757 499.963C449.757 499.963 448.107 501.199 444.844 500.304L445.639 490.443L451.417 490.798Z" fill="url(#paint12_linear)"/>
<path d="M455.925 381.408C462.643 422.244 454.467 482.342 451.711 494.097C451.629 494.449 451.445 494.769 451.183 495.017C450.922 495.265 450.593 495.429 450.239 495.489C449.009 495.695 446.982 495.862 444.985 495.278C444.648 495.181 444.351 494.978 444.135 494.7C443.92 494.423 443.797 494.083 443.785 493.731C443.415 484.221 444.086 425.847 437.819 402.778C437.501 401.61 436.792 400.59 435.812 399.889L423.661 391.19L422.729 377.129L455.925 381.408Z" fill="#193570"/>
<path d="M413.112 304.036C433.247 303.7 455.464 309.356 455.464 309.356C461.465 344.622 456.521 385.303 456.521 385.303C440.933 389.419 423.348 382.786 423.348 382.786C420.758 368.041 408.67 326.559 408.67 326.559C398.832 325.329 390.727 322.47 384.053 318.691C389.144 312.749 391.544 305.188 392.587 300.718C399.698 302.949 406.906 304.139 413.112 304.036Z" fill="#4F57F6"/>
<path d="M353.637 274.167C355.616 271.763 358.118 272.9 358.118 272.9C361.081 285.504 376.618 295.725 392.58 300.717C391.537 305.188 389.137 312.749 384.046 318.691C357.557 303.695 353.637 274.167 353.637 274.167Z" fill="#4F57F6"/>
<path d="M354.116 274.78C353.909 275.443 356.306 276.452 357.717 273.742C357.767 272.442 358.55 266.879 357.781 265.821C353.677 260.186 345.719 253.122 345.719 253.122C344.374 254.458 345.482 255.77 345.482 255.77L349.341 259.821C348.534 261.289 347.55 262.53 347.088 264.307C346.75 265.663 346.943 267.099 347.627 268.317C348.304 269.547 349.23 271.144 350.104 272.395C351.758 274.762 354.116 274.78 354.116 274.78Z" fill="url(#paint13_linear)"/>
<path d="M351.031 262.448L354.548 265.451L355.653 268.441L352.517 271.938C352.517 271.938 351.46 266.009 350.678 264.72C349.896 263.431 350.302 262.829 351.031 262.448Z" fill="url(#paint14_linear)"/>
<path d="M447.74 328.994L455.464 309.359C455.464 309.359 474.27 322.228 477.363 338.545C473.81 338.808 467.343 339.739 461.014 342.953C459.624 335.254 447.74 328.994 447.74 328.994Z" fill="#4F57F6"/>
<path d="M431.305 347.469C431.305 347.469 452.421 359.487 459.545 349.225C461.025 347.097 461.378 344.969 461.014 342.958C467.343 339.74 473.809 338.808 477.363 338.549C478.295 343.468 477.803 348.699 474.932 353.987C462.452 376.977 428.51 352.717 428.51 352.717L431.305 347.469Z" fill="#4F57F6"/>
<path d="M433.842 362.673L422.319 322.143C422.255 321.918 422.127 321.718 421.95 321.566C421.773 321.415 421.556 321.319 421.326 321.292C419.238 321.047 413.188 320.358 406.203 319.763C398.55 319.112 389.774 318.572 383.855 318.851C383.48 318.87 383.115 318.983 382.794 319.18C382.472 319.377 382.205 319.651 382.015 319.978C381.825 320.305 381.72 320.674 381.707 321.053C381.695 321.432 381.776 321.807 381.944 322.146C386.121 330.607 398.184 354.644 404.692 363.505C404.907 363.795 405.187 364.031 405.51 364.191C405.832 364.352 406.188 364.433 406.548 364.429L432.722 364.183C432.903 364.181 433.081 364.137 433.243 364.055C433.404 363.972 433.545 363.853 433.653 363.707C433.761 363.561 433.835 363.392 433.868 363.213C433.9 363.033 433.891 362.849 433.842 362.673Z" fill="#00EA66"/>
<path d="M431.057 352.881C431.057 352.881 432.663 346.234 432.015 343.874C431.368 341.515 430.112 338.484 425.931 339.162C421.75 339.84 416.815 341.611 416.815 341.611C416.815 341.611 417.065 344.682 420.243 343.69L418.274 345.218C418.274 345.218 418.556 347.678 421.24 346.363L419.407 348.4C419.407 348.4 420.56 350.42 422.535 349.125C424.509 347.83 425.457 353.682 431.057 352.881Z" fill="url(#paint15_linear)"/>
<path d="M433.507 287.573L439.914 306.232C439.967 306.381 439.965 306.544 439.91 306.692C439.855 306.84 439.749 306.964 439.612 307.041C437.866 308.014 431.575 310.825 423.993 305.977C423.601 305.731 423.269 305.4 423.018 305.01C422.768 304.619 422.607 304.177 422.545 303.717L420.47 287.567L433.507 287.573Z" fill="#F4C0A2"/>
<path d="M419.566 270.294C419.566 270.294 412.531 283.632 413.433 289.019C414.336 294.406 423.055 294.02 430.668 289.644L435.988 275.244L419.566 270.294Z" fill="url(#paint16_linear)"/>
<path d="M430.332 282.572C430.259 282.54 430.194 282.493 430.142 282.433C430.089 282.373 430.05 282.302 430.027 282.226C430.004 282.149 429.999 282.069 430.01 281.99C430.021 281.91 430.05 281.835 430.093 281.768C430.657 280.9 431.713 279.131 432.056 277.583C432.056 277.583 433.319 276.767 428.836 275.686C424.353 274.605 417.666 272.927 416.261 269.084C414.89 265.337 418.49 255.914 424.235 263.422C424.286 263.489 424.352 263.542 424.426 263.58C424.501 263.617 424.584 263.636 424.667 263.636C424.75 263.636 424.833 263.617 424.908 263.58C424.982 263.542 425.048 263.489 425.099 263.422C426.041 262.188 428.516 259.622 431.953 261.18C435.17 262.633 435.532 265.006 435.488 266.196C435.485 266.278 435.5 266.36 435.532 266.436C435.565 266.511 435.613 266.579 435.675 266.632C435.737 266.686 435.81 266.725 435.889 266.747C435.968 266.768 436.051 266.771 436.131 266.756C437.757 266.444 441.659 266.175 443.481 270.206C444.981 273.528 444.006 275.406 443.118 276.326C443.051 276.393 443.003 276.477 442.978 276.568C442.952 276.66 442.952 276.757 442.975 276.849C442.999 276.941 443.046 277.026 443.112 277.094C443.177 277.162 443.26 277.212 443.351 277.238C444.419 277.568 445.799 278.482 445.662 281.002C445.47 284.489 441.6 284.182 440.498 284.022C440.409 284.009 440.319 284.018 440.234 284.048C440.15 284.078 440.074 284.129 440.013 284.196C439.069 285.247 434.812 289.718 430.202 290.258C430.11 290.267 430.017 290.254 429.932 290.217C429.846 290.181 429.771 290.124 429.714 290.051C429.656 289.978 429.618 289.892 429.602 289.8C429.586 289.708 429.594 289.613 429.624 289.525L431.618 283.688C431.663 283.557 431.656 283.413 431.6 283.286C431.544 283.159 431.443 283.058 431.316 283.004L430.332 282.572Z" fill="url(#paint17_linear)"/>
<path d="M429.53 283.401C429.53 283.401 434.538 279.939 434.905 282.853C435.272 285.767 430.394 287.076 427.979 285.989L429.53 283.401Z" fill="url(#paint18_linear)"/>
<defs>
<filter id="filter0_d" x="0" y="0" width="600" height="632" filterUnits="userSpaceOnUse" color-interpolation-filters="sRGB">
<feFlood flood-opacity="0" result="BackgroundImageFix"/>
<feColorMatrix in="SourceAlpha" type="matrix" values="0 0 0 0 0 0 0 0 0 0 0 0 0 0 0 0 0 0 127 0"/>
<feOffset dy="14"/>
<feGaussianBlur stdDeviation="15"/>
<feColorMatrix type="matrix" values="0 0 0 0 0.0242535 0 0 0 0 0.529167 0 0 0 0 0.286808 0 0 0 0.16 0"/>
<feBlend mode="normal" in2="BackgroundImageFix" result="effect1_dropShadow"/>
<feBlend mode="normal" in="SourceGraphic" in2="effect1_dropShadow" result="shape"/>
</filter>
<filter id="filter1_d" x="0" y="0" width="576" height="632" filterUnits="userSpaceOnUse" color-interpolation-filters="sRGB">
<feFlood flood-opacity="0" result="BackgroundImageFix"/>
<feColorMatrix in="SourceAlpha" type="matrix" values="0 0 0 0 0 0 0 0 0 0 0 0 0 0 0 0 0 0 127 0"/>
<feOffset dy="14"/>
<feGaussianBlur stdDeviation="15"/>
<feColorMatrix type="matrix" values="0 0 0 0 0.0242535 0 0 0 0 0.529167 0 0 0 0 0.286808 0 0 0 0.14 0"/>
<feBlend mode="normal" in2="BackgroundImageFix" result="effect1_dropShadow"/>
<feBlend mode="normal" in="SourceGraphic" in2="effect1_dropShadow" result="shape"/>
</filter>
<linearGradient id="paint0_linear" x1="267.099" y1="511.636" x2="267.099" y2="112.041" gradientUnits="userSpaceOnUse">
<stop stop-color="#09005D"/>
<stop offset="1" stop-color="#1A0F91"/>
</linearGradient>
<linearGradient id="paint1_linear" x1="280436" y1="166785" x2="396496" y2="131132" gradientUnits="userSpaceOnUse">
<stop stop-color="#09005D"/>
<stop offset="1" stop-color="#1A0F91"/>
</linearGradient>
<linearGradient id="paint2_linear" x1="237388" y1="211796" x2="223218" y2="401150" gradientUnits="userSpaceOnUse">
<stop stop-color="#09005D"/>
<stop offset="1" stop-color="#1A0F91"/>
</linearGradient>
<linearGradient id="paint3_linear" x1="7967.25" y1="37127.8" x2="8860.73" y2="39104.3" gradientUnits="userSpaceOnUse">
<stop stop-color="#09005D"/>
<stop offset="1" stop-color="#1A0F91"/>
</linearGradient>
<linearGradient id="paint4_linear" x1="11105.5" y1="47222" x2="11614.4" y2="49789.4" gradientUnits="userSpaceOnUse">
<stop stop-color="#09005D"/>
<stop offset="1" stop-color="#1A0F91"/>
</linearGradient>
<linearGradient id="paint5_linear" x1="10456.7" y1="39002.5" x2="6333.89" y2="41035.6" gradientUnits="userSpaceOnUse">
<stop stop-color="#FF928E"/>
<stop offset="1" stop-color="#FEB3B1"/>
</linearGradient>
<linearGradient id="paint6_linear" x1="16551.9" y1="16861.4" x2="15521.7" y2="19052.6" gradientUnits="userSpaceOnUse">
<stop stop-color="#FF928E"/>
<stop offset="1" stop-color="#FEB3B1"/>
</linearGradient>
<linearGradient id="paint7_linear" x1="13106.2" y1="41109.1" x2="10273.8" y2="38119.9" gradientUnits="userSpaceOnUse">
<stop stop-color="#FF928E"/>
<stop offset="1" stop-color="#FEB3B1"/>
</linearGradient>
<linearGradient id="paint8_linear" x1="39853.3" y1="95865.2" x2="19272.7" y2="114376" gradientUnits="userSpaceOnUse">
<stop stop-color="#09005D"/>
<stop offset="1" stop-color="#1A0F91"/>
</linearGradient>
<linearGradient id="paint9_linear" x1="-39267.9" y1="3763.8" x2="-38637.3" y2="12996.5" gradientUnits="userSpaceOnUse">
<stop stop-color="#09005D"/>
<stop offset="1" stop-color="#1A0F91"/>
</linearGradient>
<linearGradient id="paint10_linear" x1="-5829.06" y1="24838.3" x2="-6214" y2="24838.3" gradientUnits="userSpaceOnUse">
<stop stop-color="#FF928E"/>
<stop offset="1" stop-color="#FEB3B1"/>
</linearGradient>
<linearGradient id="paint11_linear" x1="-12866.2" y1="2862.01" x2="-11746.1" y2="10621" gradientUnits="userSpaceOnUse">
<stop stop-color="#09005D"/>
<stop offset="1" stop-color="#1A0F91"/>
</linearGradient>
<linearGradient id="paint12_linear" x1="-3841.96" y1="32321.2" x2="-4128.57" y2="32321.2" gradientUnits="userSpaceOnUse">
<stop stop-color="#FF928E"/>
<stop offset="1" stop-color="#FEB3B1"/>
</linearGradient>
<linearGradient id="paint13_linear" x1="34444.4" y1="43358.2" x2="27912" y2="38984.5" gradientUnits="userSpaceOnUse">
<stop stop-color="#FF928E"/>
<stop offset="1" stop-color="#FEB3B1"/>
</linearGradient>
<linearGradient id="paint14_linear" x1="-6534.98" y1="15783.9" x2="-7278.28" y2="15133.7" gradientUnits="userSpaceOnUse">
<stop stop-color="#FF928E"/>
<stop offset="1" stop-color="#FEB3B1"/>
</linearGradient>
<linearGradient id="paint15_linear" x1="47433.3" y1="23740.2" x2="45478.9" y2="27916.7" gradientUnits="userSpaceOnUse">
<stop stop-color="#FF928E"/>
<stop offset="1" stop-color="#FEB3B1"/>
</linearGradient>
<linearGradient id="paint16_linear" x1="92550.3" y1="71286.4" x2="94714.9" y2="66161.7" gradientUnits="userSpaceOnUse">
<stop stop-color="#FF928E"/>
<stop offset="1" stop-color="#FEB3B1"/>
</linearGradient>
<linearGradient id="paint17_linear" x1="133744" y1="71364.4" x2="128287" y2="75653.8" gradientUnits="userSpaceOnUse">
<stop stop-color="#09005D"/>
<stop offset="1" stop-color="#1A0F91"/>
</linearGradient>
<linearGradient id="paint18_linear" x1="27585.9" y1="22607.6" x2="28157.1" y2="21572.9" gradientUnits="userSpaceOnUse">
<stop stop-color="#FF928E"/>
<stop offset="1" stop-color="#FEB3B1"/>
</linearGradient>
</defs>
</svg>
