<svg width="600" height="632" viewBox="0 0 600 632" fill="none" xmlns="http://www.w3.org/2000/svg">
<g filter="url(#filter0_d)">
<rect x="30" y="16" width="540" height="572" rx="16" fill="#00EA66"/>
</g>
<g filter="url(#filter1_d)">
<rect x="30" y="16" width="516" height="572" rx="16" fill="#00EA66"/>
</g>
<path d="M450.506 460.416C439.366 472.298 429.397 479.282 421.765 484.55C347.333 535.971 262.248 521.15 235.942 516.084C193.5 507.911 157.673 502.145 126.891 473.371C56.9473 407.996 60.3481 271.597 113.795 187.115C120.132 177.096 173.498 95.2471 258.766 83.7178C260.852 83.4362 262.408 83.2753 263.772 83.1257C276.963 81.6777 358.703 74.0548 425.355 131.83C434.897 140.101 450.251 155.019 464.488 177.77C516.55 260.961 516.715 389.806 450.506 460.416Z" fill="white"/>
<path opacity="0.3" d="M135.296 521.746C135.296 521.746 104.588 520.813 92.1802 495.883C82.4176 476.276 87.8748 447.474 128.827 439.833C154.295 435.082 109.457 382.77 164.455 370.142C219.453 357.513 218.916 301.155 273.138 290.045C327.36 278.936 327.445 357.913 375.996 366.239C424.547 374.566 458.791 396.575 446.902 437.606C435.012 478.636 462.331 480.247 466.405 498.563C470.478 516.88 458.953 521.746 458.953 521.746H135.296Z" fill="#0A40CE"/>
<path d="M113.956 493.302C113.956 493.302 102.071 497.943 102.129 489.807C102.188 481.671 105.853 479.653 100.532 476.592C95.2114 473.531 91.8996 472.434 92.8453 466.499C93.791 460.563 81.3754 455.549 82.6155 448.944C83.8556 442.338 93.4966 443.614 97.3347 448.087C101.173 452.561 110.402 449.066 112.116 459.219C113.831 469.373 114.365 468.029 120.514 472.983C126.663 477.936 124.484 490.499 113.956 493.302Z" fill="#4A63FE"/>
<path d="M115.545 502.53H115.501C115.251 502.519 115.017 502.405 114.848 502.215C114.679 502.024 114.589 501.772 114.599 501.514C114.599 501.415 114.842 494.707 112.333 485.676C109.011 473.729 102.354 463.062 93.1977 455.013C93.0183 454.841 92.9099 454.605 92.8952 454.352C92.8806 454.1 92.9609 453.852 93.1193 453.659C93.2777 453.467 93.5018 453.345 93.7449 453.32C93.9879 453.295 94.2309 453.368 94.4231 453.524C103.881 461.842 110.75 472.868 114.165 485.215C116.741 494.558 116.495 501.316 116.483 501.586C116.475 501.839 116.373 502.078 116.198 502.253C116.023 502.429 115.789 502.529 115.545 502.53Z" fill="#193570"/>
<path d="M119.505 494.333C119.505 494.333 129.904 498.396 129.853 491.288C129.801 484.18 126.593 482.402 131.251 479.725C135.91 477.049 138.802 476.085 137.974 470.892C137.146 465.699 148.013 461.313 146.927 455.53C145.842 449.747 137.407 450.874 134.048 454.769C130.688 458.664 122.615 455.625 121.113 464.508C119.612 473.39 119.148 472.217 113.754 476.554C108.359 480.89 110.295 491.882 119.505 494.333Z" fill="#7C87ED"/>
<path d="M118.114 502.531C117.871 502.53 117.637 502.432 117.462 502.258C117.286 502.083 117.182 501.846 117.172 501.594C117.172 501.347 116.936 495.415 119.203 487.218C122.194 476.392 128.211 466.723 136.498 459.425C136.592 459.336 136.702 459.267 136.822 459.222C136.942 459.178 137.069 459.159 137.197 459.167C137.324 459.175 137.448 459.21 137.562 459.268C137.676 459.327 137.777 459.409 137.86 459.51C137.943 459.61 138.005 459.727 138.043 459.852C138.081 459.978 138.094 460.111 138.081 460.242C138.068 460.373 138.03 460.5 137.969 460.615C137.907 460.731 137.824 460.832 137.724 460.914C129.734 467.94 123.926 477.249 121.025 487.675C118.817 495.579 119.041 501.446 119.041 501.503C119.047 501.631 119.029 501.759 118.986 501.88C118.944 502 118.879 502.111 118.795 502.205C118.712 502.3 118.61 502.376 118.498 502.43C118.385 502.484 118.264 502.514 118.14 502.519L118.114 502.531Z" fill="#193570"/>
<path d="M126.718 521.833H108.245C107.832 521.833 107.431 521.683 107.114 521.409C106.797 521.135 106.582 520.754 106.508 520.333L103.601 503.703C103.555 503.44 103.566 503.17 103.632 502.911C103.698 502.653 103.818 502.413 103.984 502.208C104.15 502.003 104.357 501.838 104.591 501.724C104.825 501.611 105.08 501.552 105.338 501.552H129.625C129.883 501.552 130.138 501.611 130.372 501.724C130.606 501.838 130.813 502.003 130.979 502.208C131.144 502.413 131.264 502.653 131.33 502.911C131.397 503.17 131.407 503.44 131.361 503.703L128.454 520.333C128.38 520.754 128.166 521.135 127.849 521.409C127.531 521.683 127.131 521.833 126.718 521.833Z" fill="#193570"/>
<path d="M462.575 493.302C462.575 493.302 474.461 497.943 474.402 489.807C474.343 481.671 470.678 479.653 475.999 476.592C481.32 473.531 484.632 472.434 483.686 466.499C482.741 460.563 495.156 455.549 493.913 448.944C492.669 442.338 483.035 443.614 479.193 448.087C475.352 452.561 466.126 449.066 464.412 459.219C462.697 469.373 462.163 468.029 456.014 472.983C449.865 477.936 452.033 490.499 462.575 493.302Z" fill="#4A63FE"/>
<path d="M460.985 502.53H461.026C461.149 502.526 461.271 502.495 461.384 502.441C461.496 502.388 461.597 502.311 461.681 502.217C461.765 502.122 461.83 502.011 461.872 501.891C461.914 501.77 461.933 501.642 461.927 501.514C461.927 501.415 461.688 494.707 464.198 485.676C467.519 473.729 474.175 463.062 483.333 455.013C483.433 454.931 483.516 454.83 483.577 454.714C483.639 454.599 483.677 454.472 483.69 454.341C483.702 454.209 483.689 454.077 483.651 453.951C483.613 453.825 483.551 453.709 483.469 453.608C483.386 453.508 483.285 453.426 483.171 453.367C483.057 453.308 482.932 453.274 482.805 453.266C482.678 453.258 482.551 453.277 482.431 453.321C482.311 453.366 482.201 453.435 482.107 453.524C472.649 461.841 465.782 472.868 462.369 485.215C459.793 494.558 460.036 501.316 460.05 501.586C460.059 501.838 460.161 502.076 460.335 502.252C460.509 502.428 460.742 502.528 460.985 502.53Z" fill="#193570"/>
<path d="M457.026 494.333C457.026 494.333 446.623 498.396 446.674 491.288C446.726 484.18 449.935 482.402 445.28 479.725C440.625 477.049 437.725 476.085 438.553 470.892C439.381 465.699 428.518 461.313 429.604 455.53C430.689 449.747 439.123 450.874 442.483 454.769C445.843 458.664 453.916 455.625 455.414 464.508C456.911 473.39 457.382 472.217 462.773 476.554C468.164 480.89 466.236 491.882 457.026 494.333Z" fill="#7C87ED"/>
<path d="M458.417 502.531C458.661 502.53 458.894 502.432 459.07 502.258C459.245 502.083 459.349 501.845 459.359 501.594C459.359 501.346 459.591 495.415 457.324 487.218C454.336 476.391 448.318 466.721 440.029 459.425C439.935 459.342 439.825 459.278 439.707 459.238C439.589 459.199 439.465 459.183 439.341 459.193C439.217 459.204 439.096 459.239 438.985 459.297C438.875 459.355 438.776 459.436 438.695 459.534C438.615 459.631 438.553 459.745 438.515 459.867C438.477 459.989 438.462 460.118 438.472 460.246C438.481 460.374 438.515 460.499 438.572 460.614C438.628 460.728 438.706 460.83 438.8 460.914C446.791 467.939 452.6 477.248 455.499 487.675C457.707 495.578 457.486 501.445 457.483 501.503C457.477 501.631 457.496 501.759 457.539 501.88C457.582 502 457.647 502.111 457.731 502.206C457.815 502.3 457.917 502.376 458.029 502.43C458.142 502.484 458.264 502.514 458.388 502.519L458.417 502.531Z" fill="#193570"/>
<path d="M449.824 521.833H468.282C468.695 521.833 469.095 521.682 469.411 521.408C469.728 521.134 469.942 520.754 470.015 520.333L472.926 503.703C472.972 503.44 472.961 503.17 472.895 502.911C472.829 502.653 472.709 502.413 472.543 502.208C472.377 502.003 472.17 501.838 471.936 501.724C471.702 501.611 471.447 501.552 471.189 501.552H446.902C446.644 501.552 446.388 501.61 446.154 501.723C445.92 501.836 445.712 502.001 445.547 502.206C445.381 502.412 445.261 502.652 445.195 502.911C445.129 503.169 445.119 503.44 445.165 503.703L448.072 520.333C448.146 520.757 448.363 521.14 448.683 521.414C449.004 521.689 449.408 521.837 449.824 521.833Z" fill="#193570"/>
<path d="M176.236 183.698H415.636C419.992 183.698 424.169 185.488 427.249 188.675C430.329 191.862 432.059 196.183 432.059 200.69V504.43C432.059 508.937 430.329 513.259 427.249 516.445C424.169 519.632 419.992 521.422 415.636 521.422H176.236C175.146 521.422 174.102 520.974 173.332 520.178C172.562 519.381 172.129 518.3 172.129 517.173V187.947C172.129 186.82 172.562 185.74 173.332 184.943C174.102 184.146 175.146 183.698 176.236 183.698Z" fill="#DCDFFE"/>
<path d="M223.93 183.698H176.236C175.147 183.699 174.104 184.147 173.334 184.944C172.565 185.741 172.133 186.821 172.133 187.947V517.173C172.132 517.731 172.238 518.283 172.444 518.799C172.65 519.314 172.952 519.783 173.333 520.177C173.714 520.572 174.167 520.885 174.665 521.099C175.163 521.312 175.697 521.422 176.236 521.422H223.93V183.698Z" fill="#0A40CE"/>
<path d="M187.352 223.205H166.767C159.965 223.205 154.451 228.911 154.451 235.948V243.597C154.451 250.635 159.965 256.34 166.767 256.34H187.352C194.154 256.34 199.668 250.635 199.668 243.597V235.948C199.668 228.911 194.154 223.205 187.352 223.205Z" fill="#2D3578"/>
<path d="M187.352 284.38H166.767C159.965 284.38 154.451 290.085 154.451 297.123V304.772C154.451 311.809 159.965 317.514 166.767 317.514H187.352C194.154 317.514 199.668 311.809 199.668 304.772V297.123C199.668 290.085 194.154 284.38 187.352 284.38Z" fill="#2D3578"/>
<path d="M187.352 387.609H166.767C159.965 387.609 154.451 393.314 154.451 400.352V408.001C154.451 415.039 159.965 420.744 166.767 420.744H187.352C194.154 420.744 199.668 415.039 199.668 408.001V400.352C199.668 393.314 194.154 387.609 187.352 387.609Z" fill="#2D3578"/>
<path d="M187.352 448.78H166.767C159.965 448.78 154.451 454.485 154.451 461.523V469.172C154.451 476.209 159.965 481.914 166.767 481.914H187.352C194.154 481.914 199.668 476.209 199.668 469.172V461.523C199.668 454.485 194.154 448.78 187.352 448.78Z" fill="#2D3578"/>
<path d="M326.305 429.496C373.314 429.496 411.422 390.068 411.422 341.431C411.422 292.794 373.314 253.366 326.305 253.366C279.296 253.366 241.188 292.794 241.188 341.431C241.188 390.068 279.296 429.496 326.305 429.496Z" fill="white"/>
<path d="M293.291 280.086C287.267 280.767 277.766 284.635 276.96 301.596C275.271 337.065 315.37 389.079 350.464 396.937C366.563 400.542 372.377 391.344 374.383 385.249C375.335 385.608 376.372 385.651 377.349 385.371C378.326 385.091 379.194 384.503 379.832 383.688L380.855 382.382C381.665 381.341 382.043 380.01 381.905 378.682C381.767 377.353 381.125 376.136 380.119 375.297L354.876 354.163C354.378 353.747 353.806 353.437 353.192 353.251C352.578 353.064 351.935 353.005 351.299 353.075C350.663 353.146 350.047 353.346 349.486 353.663C348.924 353.98 348.429 354.409 348.028 354.924L347.008 356.23C346.432 356.969 346.068 357.861 345.961 358.804C345.853 359.748 346.006 360.703 346.401 361.56C344.098 364.366 340.514 368.002 337.367 368.033C330.192 368.078 299.664 328.483 301.305 321.249C302.041 318.082 306.244 315.276 309.401 313.574C310.12 314.163 310.985 314.53 311.896 314.631C312.808 314.733 313.729 314.566 314.553 314.149L316.025 313.41C316.599 313.119 317.112 312.714 317.534 312.218C317.957 311.722 318.281 311.144 318.488 310.518C318.694 309.892 318.78 309.231 318.739 308.57C318.699 307.91 318.533 307.265 318.251 306.671L303.944 276.511C303.372 275.314 302.365 274.402 301.144 273.973C299.923 273.545 298.587 273.636 297.431 274.226L295.959 274.965C295.057 275.428 294.316 276.169 293.838 277.086C293.36 278.004 293.169 279.051 293.291 280.086Z" fill="#00EA66"/>
<path d="M194.624 300.782C194.624 300.782 189.104 305.731 190.37 315.436C191.636 325.14 196.784 332.245 195.938 333.684C195.938 333.684 205.631 334.445 206.952 328.354C208.273 322.262 194.624 300.782 194.624 300.782Z" fill="#1E147E"/>
<path d="M213.983 322.875L216.125 336.714L205.869 339.471L203.588 330.962L213.983 322.875Z" fill="#EA9896"/>
<path d="M213.983 322.875L212.824 327.954L204.147 333.055L203.588 330.961L213.983 322.875Z" fill="black" fill-opacity="0.11"/>
<path d="M211.433 306.39L214.675 327.33L203.588 330.943C203.588 330.943 198.091 332.968 196.832 329.172C191.68 313.616 194.013 304.151 194.013 304.151L211.433 306.39Z" fill="url(#paint0_linear)"/>
<path d="M204.806 318.855C204.806 318.855 208.033 316.387 210.344 318.245C212.655 320.103 208.272 322.262 208.272 322.262L204.806 318.855Z" fill="#EA9896"/>
<path d="M192.029 301.158C192.029 301.158 197.148 290.498 210.921 293.479C224.695 296.46 224.021 310.878 223.996 316.151C223.97 321.424 226.619 325.289 228.099 326.511C229.578 327.733 225.228 326.583 223.05 328.818C219.113 332.857 213.394 333.048 207.834 333.482C207.834 333.482 209.199 323.32 206.999 319.955C206.999 319.955 210.362 316.909 207.963 314.137C205.564 311.366 204.077 314.461 204.077 314.461C204.077 314.461 203.278 312.71 199.028 311.194C193.983 309.397 192.232 308.876 192.029 301.158Z" fill="#1E147E"/>
<path d="M168.847 353.66C166.994 351.944 164.78 350.698 162.381 350.021C158.444 348.932 157.789 349.826 157.649 350.633C157.509 351.441 158.385 352.598 158.385 352.598C158.385 352.598 157.55 358.731 159.36 360.852C161.17 362.973 161.936 361.328 161.936 361.328L167.717 363.529L168.847 353.66Z" fill="#EA9896"/>
<path d="M221.468 350.18L206.403 373.785C205.751 374.803 204.789 375.568 203.671 375.957C202.552 376.347 201.339 376.339 200.225 375.936L166.617 363.753L168.494 352.944L200.284 361.484L208.747 342.695" fill="#3C44E6"/>
<path d="M194.775 508.412L195.533 520.409C195.54 520.537 195.523 520.665 195.48 520.786C195.438 520.906 195.373 521.016 195.288 521.11C195.203 521.203 195.101 521.278 194.988 521.329C194.874 521.38 194.751 521.406 194.628 521.407H174.389C174.254 521.408 174.122 521.368 174.009 521.292C173.895 521.217 173.806 521.108 173.752 520.98C173.698 520.853 173.681 520.711 173.704 520.574C173.727 520.436 173.789 520.309 173.881 520.207C174.83 519.149 177.075 517.672 182.344 517.021L182.407 510.514L194.775 508.412Z" fill="#193570"/>
<path d="M226.244 508.412L226.999 520.409C227.006 520.537 226.988 520.665 226.946 520.786C226.904 520.906 226.839 521.016 226.754 521.11C226.669 521.203 226.567 521.278 226.453 521.329C226.34 521.38 226.217 521.406 226.093 521.407H205.854C205.72 521.408 205.588 521.368 205.474 521.292C205.361 521.217 205.272 521.108 205.218 520.98C205.164 520.853 205.147 520.711 205.17 520.574C205.193 520.436 205.254 520.309 205.347 520.207C206.296 519.149 208.541 517.672 213.81 517.021L213.869 510.514L226.244 508.412Z" fill="#193570"/>
<path d="M216.404 393.32C206.101 391.481 194.922 391.481 194.922 391.481L178.396 516.358L197.858 516.157C197.858 516.157 211.657 413.232 214.664 412.741" fill="#1E147E"/>
<path d="M199.717 399.618C200.983 399.5 208.033 515.231 209.053 514.976C210.072 514.721 230.027 515.357 230.027 515.357C230.027 515.357 223.647 401.091 225.185 399.888C225.185 399.888 210.12 393.975 199.702 395.045" fill="#1E147E"/>
<path d="M194.437 403.059L202.002 423.234L210.687 414.694L212.707 403.059H194.437Z" fill="#1E147E"/>
<path d="M225.2 399.888C225.2 399.888 230.789 402.039 230.042 419.27C229.733 426.435 226.086 437.659 226.086 437.659C226.086 437.659 216.265 400.554 225.2 399.888Z" fill="#1E147E"/>
<path d="M200.95 339.06C199.169 347.196 189.66 404.163 189.66 404.163C211.514 409.916 218.705 411.397 231.742 407.536C231.742 407.536 229.012 389.121 228.762 377.002C228.556 366.894 230.443 355.469 226.532 345.402C221.825 333.276 214.863 333.162 214.863 333.162L203.088 334.609C201.605 334.784 201.281 337.559 200.95 339.06Z" fill="#4F57F6"/>
<path d="M202.274 340.099C202.274 340.099 196.755 350.379 194.083 353.885C191.827 356.847 189.84 361.934 197.137 369.297C204.434 376.66 202.274 340.099 202.274 340.099Z" fill="#4F57F6"/>
<path d="M153.444 338.685L159.797 356.932C159.924 357.296 160.312 357.485 160.664 357.353L161.301 357.116C161.653 356.985 161.836 356.583 161.709 356.219L155.356 337.972C155.229 337.608 154.841 337.419 154.489 337.55L153.852 337.788C153.5 337.919 153.317 338.321 153.444 338.685Z" fill="#4A63FE"/>
<path d="M168.486 355.731C166.636 354.013 164.423 352.765 162.025 352.088C158.084 350.999 155.912 352.259 155.769 353.062C155.625 353.866 158.014 354.669 158.014 354.669C158.014 354.669 157.178 360.803 158.989 362.919C160.799 365.036 161.565 363.395 161.565 363.395L167.346 365.6L168.486 355.731Z" fill="url(#paint1_linear)"/>
<path d="M221.107 352.252L206.042 375.856C205.391 376.876 204.429 377.641 203.31 378.031C202.191 378.422 200.978 378.415 199.863 378.011L166.256 365.828L168.136 355.019L199.922 363.563L208.386 344.774" fill="#4F57F6"/>
<path d="M343.384 327.223L332.628 356.314C332.262 357.302 332.098 358.357 332.146 359.413C332.193 360.47 332.451 361.505 332.903 362.453C333.356 363.401 333.993 364.243 334.774 364.924C335.555 365.606 336.465 366.114 337.444 366.415L371.615 376.919L376.645 367.233L347.207 356.858L353.198 341.192" fill="#434BEA"/>
<path d="M357.116 309.561L358.01 323.241C358.033 323.595 358.123 323.941 358.276 324.258C358.429 324.576 358.642 324.858 358.902 325.09C359.163 325.321 359.465 325.496 359.791 325.605C360.118 325.713 360.462 325.754 360.803 325.723L368.582 325.038C368.921 325.009 369.251 324.911 369.553 324.75C369.855 324.589 370.123 324.367 370.342 324.098C370.561 323.829 370.726 323.518 370.829 323.183C370.931 322.847 370.968 322.495 370.938 322.144L370.235 313.768L357.116 309.561Z" fill="#EA9896"/>
<path d="M357.661 317.743L369.436 317.172C371.17 316.976 372.763 316.096 373.883 314.714C375.004 313.332 375.565 311.555 375.449 309.755L374.128 289.307L353.032 292.84L352.885 307.658C352.885 307.658 354.305 310.909 357.128 309.561L357.661 317.743Z" fill="url(#paint2_linear)"/>
<path d="M367.681 299.758C367.681 299.758 364.369 297.336 362.217 299.758C360.064 302.179 364.752 304.604 366.706 306.23C366.706 306.23 363.821 319.174 359.825 317.754C354.353 315.794 352.715 313.882 350.121 309.58C345.867 302.529 347.453 290.099 351.096 286.101C356.204 280.501 368.108 281.605 368.108 281.605C368.108 281.605 370.956 276.153 377.042 277.969C382.511 279.602 383.28 290.053 374.422 293.868C374.411 293.856 366.706 291.287 367.681 299.758Z" fill="#44465F"/>
<path d="M366.257 307.315C368.555 306.754 369.979 304.371 369.436 301.993C368.894 299.615 366.591 298.142 364.292 298.703C361.994 299.265 360.571 301.647 361.113 304.025C361.656 306.403 363.959 307.876 366.257 307.315Z" fill="url(#paint3_linear)"/>
<path d="M359.129 507.811L359.92 520.375C359.929 520.509 359.911 520.643 359.867 520.77C359.823 520.896 359.755 521.012 359.666 521.11C359.578 521.208 359.471 521.287 359.352 521.34C359.233 521.394 359.104 521.422 358.974 521.422H337.775C337.637 521.417 337.502 521.372 337.388 521.291C337.273 521.211 337.182 521.099 337.127 520.967C337.071 520.836 337.052 520.691 337.072 520.549C337.093 520.407 337.151 520.274 337.241 520.166C338.239 519.058 340.59 517.501 346.125 516.827L346.187 510.012L359.129 507.811Z" fill="#193570"/>
<path d="M393.156 508.374L394.996 520.375C394.988 520.509 395.006 520.644 395.05 520.771C395.094 520.897 395.162 521.013 395.251 521.112C395.34 521.21 395.448 521.288 395.567 521.341C395.687 521.395 395.815 521.422 395.946 521.422H417.141C417.28 521.417 417.414 521.372 417.529 521.291C417.643 521.211 417.734 521.098 417.79 520.967C417.845 520.836 417.864 520.691 417.844 520.549C417.824 520.407 417.765 520.274 417.675 520.165C416.681 519.058 414.326 517.5 408.792 516.826L407.268 509.859L393.156 508.374Z" fill="#193570"/>
<path d="M387.202 390.392L411.209 513.552L390.661 514.618C390.661 514.618 368.844 408.454 365.639 408.187C364.299 408.077 363.758 513.777 362.695 513.552C361.631 513.328 340.502 513.895 340.502 513.895C340.502 513.895 343.357 388.824 343.306 388.824L387.202 390.392Z" fill="#1E147E"/>
<path d="M384.686 326.279C384.013 324.094 382.199 321.284 378.574 321.044C370.868 320.538 360.105 320.245 351.343 321.425C348.366 321.828 344.319 322.799 343.086 328.35L344.757 369.415L342.482 393.1H388.215L385.727 365.025C385.448 357.791 386.294 349.636 386.121 342.974C388.266 342.14 386.474 332.096 384.686 326.279Z" fill="#4F57F6"/>
<path d="M432.059 317.655C432.059 317.655 431.691 319.178 430.024 320.873C429.94 319.89 429.616 317.907 428.361 318.748C426.933 319.711 425.134 324.01 424.681 325.118C424.393 325.25 424.088 325.338 423.776 325.38C420.832 325.704 428.825 333.109 428.825 333.109C428.825 333.109 433.344 332.23 435.18 328.415C437.811 322.944 432.059 317.655 432.059 317.655Z" fill="url(#paint4_linear)"/>
<path d="M381.26 324.744L398.687 337.407L423.269 323.998L430.054 334.354L404.719 351.787C403.541 352.72 402.142 353.307 400.669 353.487C399.196 353.667 397.703 353.434 396.347 352.811L377.58 341.119" fill="#4F57F6"/>
<defs>
<filter id="filter0_d" x="0" y="0" width="600" height="632" filterUnits="userSpaceOnUse" color-interpolation-filters="sRGB">
<feFlood flood-opacity="0" result="BackgroundImageFix"/>
<feColorMatrix in="SourceAlpha" type="matrix" values="0 0 0 0 0 0 0 0 0 0 0 0 0 0 0 0 0 0 127 0"/>
<feOffset dy="14"/>
<feGaussianBlur stdDeviation="15"/>
<feColorMatrix type="matrix" values="0 0 0 0 0.0242535 0 0 0 0 0.529167 0 0 0 0 0.286808 0 0 0 0.16 0"/>
<feBlend mode="normal" in2="BackgroundImageFix" result="effect1_dropShadow"/>
<feBlend mode="normal" in="SourceGraphic" in2="effect1_dropShadow" result="shape"/>
</filter>
<filter id="filter1_d" x="0" y="0" width="576" height="632" filterUnits="userSpaceOnUse" color-interpolation-filters="sRGB">
<feFlood flood-opacity="0" result="BackgroundImageFix"/>
<feColorMatrix in="SourceAlpha" type="matrix" values="0 0 0 0 0 0 0 0 0 0 0 0 0 0 0 0 0 0 127 0"/>
<feOffset dy="14"/>
<feGaussianBlur stdDeviation="15"/>
<feColorMatrix type="matrix" values="0 0 0 0 0.0242535 0 0 0 0 0.529167 0 0 0 0 0.286808 0 0 0 0.14 0"/>
<feBlend mode="normal" in2="BackgroundImageFix" result="effect1_dropShadow"/>
<feBlend mode="normal" in="SourceGraphic" in2="effect1_dropShadow" result="shape"/>
</filter>
<linearGradient id="paint0_linear" x1="86448.5" y1="85813.4" x2="89498.6" y2="80199" gradientUnits="userSpaceOnUse">
<stop stop-color="#FF928E"/>
<stop offset="1" stop-color="#FEB3B1"/>
</linearGradient>
<linearGradient id="paint1_linear" x1="51950.2" y1="43951.1" x2="53360.4" y2="40894.1" gradientUnits="userSpaceOnUse">
<stop stop-color="#FF928E"/>
<stop offset="1" stop-color="#FEB3B1"/>
</linearGradient>
<linearGradient id="paint2_linear" x1="92267.2" y1="89255.4" x2="95399" y2="83351.3" gradientUnits="userSpaceOnUse">
<stop stop-color="#FF928E"/>
<stop offset="1" stop-color="#FEB3B1"/>
</linearGradient>
<linearGradient id="paint3_linear" x1="40387.9" y1="18968.3" x2="40760" y2="16833.2" gradientUnits="userSpaceOnUse">
<stop stop-color="#FF928E"/>
<stop offset="1" stop-color="#FEB3B1"/>
</linearGradient>
<linearGradient id="paint4_linear" x1="52300.1" y1="48666.4" x2="53965.5" y2="45405.6" gradientUnits="userSpaceOnUse">
<stop stop-color="#FF928E"/>
<stop offset="1" stop-color="#FEB3B1"/>
</linearGradient>
</defs>
</svg>
