<svg width="428" height="440" viewBox="0 0 428 440" fill="none" xmlns="http://www.w3.org/2000/svg">
<path d="M376.506 378.416C365.366 390.298 355.397 397.282 347.765 402.55C273.333 453.971 188.248 439.15 161.942 434.084C119.5 425.911 83.6725 420.145 52.8913 391.371C-17.0527 325.996 -13.6519 189.597 39.7951 105.115C46.1317 95.096 99.4978 13.2471 184.766 1.71778C186.852 1.43623 188.408 1.27534 189.772 1.12571C202.963 -0.322287 284.703 -7.9452 351.355 49.83C360.897 58.1013 376.251 73.0189 390.488 95.7701C442.55 178.961 442.715 307.806 376.506 378.416Z" fill="white"/>
<path opacity="0.3" d="M61.2964 439.745C61.2964 439.745 30.5884 438.813 18.1802 413.883C8.41765 394.276 13.8748 365.474 54.8273 357.833C80.2952 353.082 35.4568 300.77 90.4551 288.142C145.453 275.513 144.916 219.155 199.138 208.045C253.36 196.936 253.445 275.913 301.996 284.239C350.547 292.566 384.791 314.575 372.902 355.606C361.012 396.636 388.331 398.247 392.405 416.563C396.478 434.88 384.953 439.745 384.953 439.745H61.2964Z" fill="#0A40CE"/>
<path d="M39.9563 411.302C39.9563 411.302 28.0706 415.943 28.1295 407.807C28.1883 399.671 31.8534 397.653 26.5324 394.592C21.2114 391.531 17.8996 390.434 18.8453 384.499C19.791 378.563 7.37541 373.549 8.6155 366.944C9.85559 360.338 19.4966 361.614 23.3347 366.087C27.1727 370.561 36.4016 367.066 38.1164 377.219C39.8312 387.373 40.3647 386.029 46.5137 390.983C52.6626 395.936 50.4842 408.499 39.9563 411.302Z" fill="#4A63FE"/>
<path d="M41.5451 420.531H41.501C41.2514 420.519 41.0165 420.405 40.8476 420.215C40.6787 420.024 40.5894 419.772 40.5994 419.514C40.5994 419.415 40.8423 412.707 38.3327 403.676C35.0107 391.729 28.3543 381.062 19.1977 373.013C19.0183 372.841 18.9099 372.605 18.8952 372.352C18.8806 372.1 18.9609 371.852 19.1193 371.659C19.2777 371.467 19.5018 371.346 19.7449 371.32C19.9879 371.295 20.2309 371.368 20.4231 371.524C29.881 379.842 36.7498 390.868 40.1652 403.215C42.7411 412.558 42.4945 419.316 42.4835 419.586C42.4749 419.839 42.3725 420.078 42.1977 420.254C42.0228 420.43 41.789 420.529 41.5451 420.531Z" fill="#193570"/>
<path d="M45.5053 412.333C45.5053 412.333 55.9044 416.396 55.8529 409.288C55.8013 402.18 52.5925 400.402 57.2512 397.725C61.9098 395.049 64.8021 394.085 63.9741 388.892C63.1462 383.699 74.0126 379.313 72.9271 373.53C71.8416 367.747 63.4075 368.874 60.0478 372.769C56.6882 376.664 48.6147 373.625 47.1134 382.508C45.612 391.39 45.1483 390.217 39.7538 394.554C34.3592 398.89 36.2948 409.882 45.5053 412.333Z" fill="#7C87ED"/>
<path d="M44.114 420.531C43.8707 420.53 43.637 420.432 43.4616 420.258C43.2861 420.083 43.1824 419.846 43.172 419.594C43.172 419.347 42.9365 413.415 45.2032 405.218C48.1942 394.392 54.2113 384.723 62.4984 377.425C62.5919 377.336 62.702 377.267 62.822 377.222C62.942 377.178 63.0694 377.159 63.1965 377.167C63.3237 377.175 63.448 377.21 63.562 377.268C63.676 377.327 63.7774 377.409 63.86 377.51C63.9426 377.61 64.0047 377.727 64.0427 377.852C64.0807 377.978 64.0937 378.111 64.081 378.242C64.0682 378.373 64.0301 378.5 63.9687 378.615C63.9073 378.731 63.824 378.832 63.7238 378.914C55.7342 385.94 49.9255 395.249 47.0248 405.675C44.8169 413.579 45.0413 419.446 45.0413 419.503C45.0473 419.631 45.0286 419.759 44.9864 419.88C44.9442 420 44.8793 420.111 44.7955 420.205C44.7116 420.3 44.6105 420.376 44.4979 420.43C44.3854 420.484 44.2637 420.514 44.1398 420.519L44.114 420.531Z" fill="#193570"/>
<path d="M52.7176 439.833H34.2451C33.8317 439.833 33.4314 439.682 33.114 439.408C32.7966 439.134 32.5822 438.754 32.5082 438.333L29.6012 421.703C29.5554 421.44 29.566 421.17 29.6321 420.911C29.6983 420.653 29.8184 420.413 29.984 420.208C30.1496 420.003 30.3567 419.837 30.5907 419.724C30.8246 419.611 31.0797 419.552 31.338 419.552H55.6246C55.883 419.552 56.1381 419.611 56.372 419.724C56.606 419.837 56.813 420.003 56.9786 420.208C57.1443 420.413 57.2643 420.653 57.3305 420.911C57.3966 421.17 57.4072 421.44 57.3615 421.703L54.4544 438.333C54.3804 438.754 54.166 439.134 53.8486 439.408C53.5312 439.682 53.131 439.833 52.7176 439.833Z" fill="#193570"/>
<path d="M388.575 411.302C388.575 411.302 400.461 415.943 400.402 407.807C400.343 399.671 396.678 397.653 401.999 394.592C407.32 391.531 410.632 390.434 409.686 384.499C408.741 378.563 421.156 373.549 419.913 366.944C418.669 360.338 409.035 361.614 405.193 366.087C401.352 370.561 392.126 367.066 390.412 377.219C388.697 387.373 388.163 386.029 382.014 390.983C375.865 395.936 378.033 408.499 388.575 411.302Z" fill="#4A63FE"/>
<path d="M386.985 420.531H387.026C387.149 420.526 387.271 420.496 387.384 420.442C387.496 420.388 387.597 420.311 387.681 420.217C387.765 420.122 387.83 420.012 387.872 419.891C387.914 419.77 387.933 419.642 387.927 419.514C387.927 419.415 387.688 412.707 390.198 403.676C393.519 391.729 400.175 381.062 409.333 373.013C409.433 372.932 409.516 372.83 409.577 372.715C409.639 372.599 409.677 372.472 409.69 372.341C409.702 372.21 409.689 372.077 409.651 371.951C409.613 371.826 409.551 371.709 409.469 371.609C409.386 371.508 409.285 371.426 409.171 371.368C409.057 371.309 408.932 371.274 408.805 371.266C408.678 371.259 408.551 371.277 408.431 371.322C408.311 371.366 408.201 371.435 408.107 371.524C398.649 379.841 391.782 390.868 388.369 403.215C385.793 412.558 386.036 419.316 386.05 419.586C386.059 419.838 386.161 420.077 386.335 420.252C386.509 420.428 386.742 420.528 386.985 420.531Z" fill="#193570"/>
<path d="M383.026 412.333C383.026 412.333 372.623 416.396 372.674 409.288C372.726 402.18 375.935 400.402 371.28 397.725C366.625 395.049 363.725 394.085 364.553 388.892C365.381 383.699 354.518 379.313 355.604 373.53C356.689 367.747 365.123 368.874 368.483 372.769C371.843 376.664 379.916 373.625 381.414 382.508C382.911 391.39 383.382 390.217 388.773 394.554C394.164 398.89 392.236 409.882 383.026 412.333Z" fill="#7C87ED"/>
<path d="M384.417 420.531C384.661 420.53 384.894 420.432 385.07 420.258C385.245 420.083 385.349 419.845 385.359 419.594C385.359 419.346 385.591 413.415 383.324 405.218C380.336 394.391 374.318 384.721 366.029 377.425C365.935 377.342 365.825 377.278 365.707 377.238C365.589 377.199 365.465 377.183 365.341 377.193C365.217 377.204 365.096 377.239 364.985 377.297C364.875 377.355 364.776 377.436 364.695 377.534C364.615 377.631 364.553 377.745 364.515 377.867C364.477 377.989 364.462 378.118 364.472 378.246C364.481 378.374 364.515 378.499 364.572 378.614C364.628 378.728 364.706 378.83 364.8 378.914C372.791 385.939 378.6 395.248 381.499 405.675C383.707 413.578 383.486 419.445 383.483 419.503C383.477 419.631 383.496 419.759 383.539 419.88C383.582 420 383.647 420.111 383.731 420.206C383.815 420.3 383.917 420.376 384.029 420.43C384.142 420.484 384.264 420.514 384.388 420.519L384.417 420.531Z" fill="#193570"/>
<path d="M375.824 439.833H394.282C394.695 439.833 395.095 439.682 395.411 439.408C395.728 439.134 395.942 438.753 396.015 438.333L398.926 421.703C398.972 421.44 398.961 421.17 398.895 420.911C398.829 420.653 398.709 420.413 398.543 420.208C398.377 420.003 398.17 419.837 397.936 419.724C397.702 419.611 397.447 419.552 397.189 419.552H372.902C372.644 419.551 372.388 419.61 372.154 419.723C371.92 419.836 371.712 420.001 371.547 420.206C371.381 420.411 371.261 420.652 371.195 420.911C371.129 421.169 371.119 421.44 371.165 421.703L374.072 438.333C374.146 438.757 374.363 439.14 374.683 439.414C375.004 439.689 375.408 439.837 375.824 439.833Z" fill="#193570"/>
<path d="M102.236 101.698H341.636C345.992 101.698 350.169 103.488 353.249 106.675C356.329 109.862 358.059 114.183 358.059 118.69V422.43C358.059 426.937 356.329 431.259 353.249 434.445C350.169 437.632 345.992 439.422 341.636 439.422H102.236C101.146 439.422 100.102 438.974 99.3317 438.178C98.5616 437.381 98.1289 436.3 98.1289 435.173V105.947C98.1289 104.82 98.5616 103.74 99.3317 102.943C100.102 102.146 101.146 101.698 102.236 101.698Z" fill="#DCDFFE"/>
<path d="M149.93 101.698H102.236C101.147 101.699 100.104 102.147 99.3343 102.944C98.565 103.741 98.1328 104.821 98.1328 105.947V435.173C98.1323 435.731 98.2381 436.284 98.4441 436.799C98.65 437.314 98.9522 437.783 99.3332 438.178C99.7143 438.572 100.167 438.885 100.665 439.099C101.163 439.312 101.697 439.422 102.236 439.422H149.93V101.698Z" fill="#0A40CE"/>
<path d="M113.352 141.206H92.7674C85.9653 141.206 80.4512 146.911 80.4512 153.948V161.597C80.4512 168.635 85.9653 174.34 92.7674 174.34H113.352C120.154 174.34 125.668 168.635 125.668 161.597V153.948C125.668 146.911 120.154 141.206 113.352 141.206Z" fill="#2D3578"/>
<path d="M113.352 202.38H92.7674C85.9653 202.38 80.4512 208.086 80.4512 215.123V222.772C80.4512 229.81 85.9653 235.515 92.7674 235.515H113.352C120.154 235.515 125.668 229.81 125.668 222.772V215.123C125.668 208.086 120.154 202.38 113.352 202.38Z" fill="#2D3578"/>
<path d="M113.352 305.609H92.7674C85.9653 305.609 80.4512 311.315 80.4512 318.352V326.001C80.4512 333.039 85.9653 338.744 92.7674 338.744H113.352C120.154 338.744 125.668 333.039 125.668 326.001V318.352C125.668 311.315 120.154 305.609 113.352 305.609Z" fill="#2D3578"/>
<path d="M113.352 366.78H92.7674C85.9653 366.78 80.4512 372.485 80.4512 379.523V387.172C80.4512 394.209 85.9653 399.915 92.7674 399.915H113.352C120.154 399.915 125.668 394.209 125.668 387.172V379.523C125.668 372.485 120.154 366.78 113.352 366.78Z" fill="#2D3578"/>
<path d="M252.305 347.496C299.314 347.496 337.422 308.068 337.422 259.431C337.422 210.794 299.314 171.366 252.305 171.366C205.296 171.366 167.188 210.794 167.188 259.431C167.188 308.068 205.296 347.496 252.305 347.496Z" fill="white"/>
<path d="M219.291 198.086C213.267 198.767 203.766 202.635 202.96 219.596C201.271 255.065 241.37 307.079 276.464 314.937C292.563 318.542 298.377 309.344 300.383 303.249C301.335 303.608 302.372 303.651 303.349 303.371C304.326 303.091 305.194 302.503 305.832 301.688L306.855 300.382C307.665 299.341 308.043 298.01 307.905 296.682C307.767 295.353 307.125 294.136 306.119 293.297L280.876 272.163C280.378 271.747 279.806 271.437 279.192 271.251C278.578 271.064 277.935 271.005 277.299 271.075C276.663 271.146 276.047 271.346 275.486 271.663C274.924 271.98 274.429 272.409 274.028 272.924L273.008 274.23C272.432 274.969 272.068 275.861 271.961 276.804C271.853 277.748 272.006 278.703 272.401 279.56C270.098 282.366 266.514 286.002 263.367 286.033C256.192 286.078 225.664 246.483 227.305 239.249C228.041 236.082 232.244 233.276 235.401 231.574C236.12 232.163 236.985 232.53 237.896 232.631C238.808 232.733 239.729 232.566 240.553 232.149L242.025 231.41C242.599 231.119 243.112 230.714 243.534 230.218C243.957 229.722 244.281 229.144 244.488 228.518C244.694 227.892 244.78 227.231 244.739 226.57C244.699 225.91 244.533 225.265 244.251 224.671L229.944 194.511C229.372 193.314 228.365 192.402 227.144 191.973C225.923 191.545 224.587 191.636 223.431 192.226L221.959 192.965C221.057 193.428 220.316 194.169 219.838 195.086C219.36 196.004 219.169 197.051 219.291 198.086Z" fill="#00EA66"/>
<path d="M120.624 218.782C120.624 218.782 115.104 223.731 116.37 233.436C117.636 243.14 122.784 250.245 121.938 251.684C121.938 251.684 131.631 252.445 132.952 246.354C134.273 240.262 120.624 218.782 120.624 218.782Z" fill="#1E147E"/>
<path d="M139.983 240.875L142.125 254.714L131.869 257.471L129.588 248.962L139.983 240.875Z" fill="#EA9896"/>
<path d="M139.983 240.875L138.824 245.954L130.147 251.055L129.588 248.961L139.983 240.875Z" fill="black" fill-opacity="0.11"/>
<path d="M137.433 224.39L140.675 245.33L129.588 248.943C129.588 248.943 124.091 250.968 122.832 247.172C117.68 231.616 120.013 222.151 120.013 222.151L137.433 224.39Z" fill="url(#paint0_linear)"/>
<path d="M130.806 236.855C130.806 236.855 134.033 234.388 136.344 236.246C138.655 238.104 134.272 240.262 134.272 240.262L130.806 236.855Z" fill="#EA9896"/>
<path d="M118.029 219.158C118.029 219.158 123.148 208.498 136.921 211.479C150.695 214.46 150.021 228.878 149.996 234.151C149.97 239.424 152.619 243.289 154.099 244.511C155.578 245.733 151.228 244.583 149.05 246.818C145.113 250.857 139.394 251.048 133.834 251.482C133.834 251.482 135.199 241.32 132.999 237.955C132.999 237.955 136.362 234.909 133.963 232.137C131.564 229.366 130.077 232.461 130.077 232.461C130.077 232.461 129.278 230.71 125.028 229.194C119.983 227.397 118.232 226.876 118.029 219.158Z" fill="#1E147E"/>
<path d="M94.8466 271.66C92.994 269.944 90.7804 268.698 88.3812 268.021C84.4438 266.932 83.7887 267.826 83.6489 268.633C83.5091 269.441 84.3849 270.598 84.3849 270.598C84.3849 270.598 83.5496 276.731 85.36 278.852C87.1705 280.973 87.9359 279.328 87.9359 279.328L93.7169 281.529L94.8466 271.66Z" fill="#EA9896"/>
<path d="M147.468 268.18L132.403 291.785C131.751 292.803 130.789 293.568 129.671 293.957C128.552 294.347 127.339 294.339 126.225 293.936L92.6172 281.753L94.4939 270.944L126.284 279.484L134.747 260.695" fill="#3C44E6"/>
<path d="M120.775 426.413L121.533 438.409C121.54 438.537 121.523 438.665 121.48 438.786C121.438 438.906 121.373 439.017 121.288 439.11C121.203 439.203 121.101 439.278 120.988 439.329C120.874 439.38 120.751 439.406 120.628 439.407H100.389C100.254 439.408 100.122 439.368 100.009 439.292C99.8954 439.217 99.8062 439.108 99.7522 438.98C99.6981 438.853 99.6814 438.711 99.7043 438.574C99.7272 438.436 99.7886 438.309 99.8809 438.207C100.83 437.149 103.075 435.672 108.344 435.021L108.407 428.514L120.775 426.413Z" fill="#193570"/>
<path d="M152.244 426.413L152.999 438.409C153.006 438.537 152.988 438.665 152.946 438.786C152.904 438.906 152.839 439.017 152.754 439.11C152.669 439.203 152.567 439.278 152.453 439.329C152.34 439.38 152.217 439.406 152.093 439.407H131.854C131.72 439.408 131.588 439.368 131.474 439.292C131.361 439.217 131.272 439.108 131.218 438.98C131.164 438.853 131.147 438.711 131.17 438.574C131.193 438.436 131.254 438.309 131.347 438.207C132.296 437.149 134.541 435.672 139.81 435.021L139.869 428.514L152.244 426.413Z" fill="#193570"/>
<path d="M142.404 311.32C132.101 309.481 120.922 309.481 120.922 309.481L104.396 434.359L123.858 434.157C123.858 434.157 137.657 331.232 140.664 330.741" fill="#1E147E"/>
<path d="M125.717 317.617C126.983 317.499 134.033 433.231 135.053 432.976C136.072 432.721 156.027 433.357 156.027 433.357C156.027 433.357 149.647 319.091 151.185 317.888C151.185 317.888 136.12 311.975 125.702 313.045" fill="#1E147E"/>
<path d="M120.437 321.059L128.002 341.234L136.687 332.694L138.707 321.059H120.437Z" fill="#1E147E"/>
<path d="M151.2 317.888C151.2 317.888 156.789 320.039 156.042 337.27C155.733 344.435 152.086 355.659 152.086 355.659C152.086 355.659 142.265 318.554 151.2 317.888Z" fill="#1E147E"/>
<path d="M126.95 257.06C125.169 265.196 115.66 322.163 115.66 322.163C137.514 327.916 144.705 329.397 157.742 325.536C157.742 325.536 155.012 307.121 154.762 295.002C154.556 284.894 156.443 273.469 152.532 263.402C147.825 251.276 140.863 251.162 140.863 251.162L129.088 252.609C127.605 252.784 127.281 255.559 126.95 257.06Z" fill="#4F57F6"/>
<path d="M128.274 258.099C128.274 258.099 122.755 268.379 120.083 271.885C117.827 274.847 115.84 279.934 123.137 287.297C130.434 294.66 128.274 258.099 128.274 258.099Z" fill="#4F57F6"/>
<path d="M79.4438 256.684L85.7969 274.932C85.9236 275.296 86.3117 275.484 86.6637 275.353L87.301 275.116C87.653 274.985 87.8355 274.583 87.7088 274.219L81.3557 255.972C81.229 255.608 80.8409 255.419 80.4889 255.55L79.8516 255.788C79.4997 255.919 79.317 256.32 79.4438 256.684Z" fill="#4A63FE"/>
<path d="M94.4863 273.731C92.6362 272.013 90.4235 270.765 88.0246 270.088C84.0835 268.999 81.9124 270.259 81.7689 271.062C81.6254 271.866 84.0136 272.669 84.0136 272.669C84.0136 272.669 83.1783 278.803 84.9887 280.919C86.7992 283.036 87.5646 281.395 87.5646 281.395L93.3456 283.6L94.4863 273.731Z" fill="url(#paint1_linear)"/>
<path d="M147.107 270.252L132.042 293.857C131.391 294.876 130.429 295.641 129.31 296.032C128.191 296.422 126.978 296.415 125.863 296.011L92.2559 283.828L94.1362 273.02L125.922 281.563L134.386 262.774" fill="#4F57F6"/>
<path d="M269.384 245.223L258.628 274.314C258.262 275.301 258.098 276.357 258.146 277.413C258.193 278.469 258.451 279.504 258.903 280.453C259.356 281.401 259.993 282.242 260.774 282.924C261.555 283.606 262.465 284.113 263.444 284.414L297.615 294.919L302.645 285.233L273.207 274.858L279.198 259.191" fill="#434BEA"/>
<path d="M283.116 227.562L284.01 241.241C284.033 241.595 284.123 241.941 284.276 242.259C284.429 242.576 284.642 242.859 284.902 243.09C285.163 243.321 285.465 243.496 285.791 243.605C286.118 243.714 286.462 243.754 286.803 243.723L294.582 243.038C294.921 243.009 295.251 242.911 295.553 242.75C295.855 242.589 296.123 242.367 296.342 242.099C296.561 241.83 296.726 241.518 296.829 241.183C296.931 240.848 296.968 240.495 296.938 240.145L296.235 231.769L283.116 227.562Z" fill="#EA9896"/>
<path d="M283.661 235.743L295.436 235.172C297.17 234.976 298.763 234.096 299.883 232.714C301.004 231.332 301.565 229.555 301.449 227.755L300.128 207.307L279.032 210.84L278.885 225.657C278.885 225.657 280.305 228.909 283.128 227.561L283.661 235.743Z" fill="url(#paint2_linear)"/>
<path d="M293.681 217.758C293.681 217.758 290.369 215.336 288.217 217.758C286.064 220.179 290.752 222.604 292.706 224.23C292.706 224.23 289.821 237.174 285.825 235.754C280.353 233.794 278.715 231.882 276.121 227.58C271.867 220.529 273.453 208.099 277.096 204.101C282.204 198.501 294.108 199.605 294.108 199.605C294.108 199.605 296.956 194.153 303.042 195.969C308.511 197.602 309.28 208.053 300.422 211.868C300.411 211.857 292.706 209.287 293.681 217.758Z" fill="#44465F"/>
<path d="M292.257 225.315C294.555 224.754 295.979 222.371 295.436 219.993C294.894 217.615 292.591 216.142 290.292 216.703C287.994 217.265 286.571 219.647 287.113 222.025C287.656 224.403 289.959 225.876 292.257 225.315Z" fill="url(#paint3_linear)"/>
<path d="M285.129 425.811L285.92 438.375C285.929 438.509 285.911 438.643 285.867 438.77C285.823 438.896 285.755 439.012 285.666 439.11C285.578 439.208 285.471 439.287 285.352 439.34C285.233 439.394 285.104 439.421 284.974 439.422H263.775C263.637 439.417 263.502 439.371 263.388 439.291C263.273 439.211 263.182 439.098 263.127 438.967C263.071 438.836 263.052 438.691 263.072 438.549C263.093 438.407 263.151 438.274 263.241 438.165C264.239 437.057 266.59 435.5 272.125 434.826L272.187 428.012L285.129 425.811Z" fill="#193570"/>
<path d="M319.156 426.375L320.996 438.375C320.988 438.509 321.006 438.644 321.05 438.771C321.094 438.898 321.162 439.014 321.251 439.112C321.34 439.21 321.448 439.288 321.567 439.341C321.687 439.395 321.815 439.422 321.946 439.422H343.141C343.28 439.417 343.414 439.372 343.529 439.291C343.643 439.211 343.734 439.099 343.79 438.967C343.845 438.836 343.864 438.691 343.844 438.549C343.824 438.407 343.765 438.274 343.675 438.166C342.681 437.058 340.326 435.5 334.792 434.827L333.268 427.859L319.156 426.375Z" fill="#193570"/>
<path d="M313.202 308.392L337.209 431.552L316.661 432.618C316.661 432.618 294.844 326.454 291.639 326.187C290.299 326.077 289.758 431.777 288.695 431.552C287.631 431.328 266.502 431.895 266.502 431.895C266.502 431.895 269.357 306.824 269.306 306.824L313.202 308.392Z" fill="#1E147E"/>
<path d="M310.686 244.279C310.013 242.094 308.199 239.284 304.574 239.044C296.868 238.538 286.105 238.245 277.343 239.425C274.366 239.828 270.319 240.799 269.086 246.35L270.757 287.415L268.482 311.1H314.215L311.727 283.025C311.448 275.791 312.294 267.636 312.121 260.974C314.266 260.14 312.474 250.096 310.686 244.279Z" fill="#4F57F6"/>
<path d="M358.059 235.655C358.059 235.655 357.691 237.178 356.024 238.872C355.94 237.89 355.616 235.907 354.361 236.748C352.933 237.711 351.134 242.01 350.681 243.117C350.393 243.249 350.088 243.338 349.776 243.38C346.832 243.704 354.825 251.109 354.825 251.109C354.825 251.109 359.344 250.229 361.18 246.415C363.811 240.944 358.059 235.655 358.059 235.655Z" fill="url(#paint4_linear)"/>
<path d="M307.26 242.744L324.687 255.407L349.269 241.998L356.054 252.354L330.719 269.787C329.541 270.72 328.142 271.307 326.669 271.487C325.196 271.667 323.703 271.434 322.347 270.811L303.58 259.119" fill="#4F57F6"/>
<defs>
<linearGradient id="paint0_linear" x1="86374.5" y1="85731.4" x2="89424.6" y2="80117" gradientUnits="userSpaceOnUse">
<stop stop-color="#FF928E"/>
<stop offset="1" stop-color="#FEB3B1"/>
</linearGradient>
<linearGradient id="paint1_linear" x1="51876.2" y1="43869.1" x2="53286.4" y2="40812.1" gradientUnits="userSpaceOnUse">
<stop stop-color="#FF928E"/>
<stop offset="1" stop-color="#FEB3B1"/>
</linearGradient>
<linearGradient id="paint2_linear" x1="92193.2" y1="89173.4" x2="95325" y2="83269.3" gradientUnits="userSpaceOnUse">
<stop stop-color="#FF928E"/>
<stop offset="1" stop-color="#FEB3B1"/>
</linearGradient>
<linearGradient id="paint3_linear" x1="40313.9" y1="18886.3" x2="40686" y2="16751.2" gradientUnits="userSpaceOnUse">
<stop stop-color="#FF928E"/>
<stop offset="1" stop-color="#FEB3B1"/>
</linearGradient>
<linearGradient id="paint4_linear" x1="52226.1" y1="48584.4" x2="53891.5" y2="45323.6" gradientUnits="userSpaceOnUse">
<stop stop-color="#FF928E"/>
<stop offset="1" stop-color="#FEB3B1"/>
</linearGradient>
</defs>
</svg>
